<svg width="783" height="734" viewBox="0 0 783 734" fill="none" xmlns="http://www.w3.org/2000/svg">
<path d="M345.86 112.052C345.696 111.422 345.537 110.85 345.613 110.19C345.816 108.418 346.685 106.374 347.139 104.607C348.951 97.5613 351.006 90.9613 352.074 83.7353C353.334 75.2093 354.371 66.6053 354.683 57.9843C355.066 47.3913 354.424 36.2983 354.066 25.6823C353.944 22.0383 353.297 18.2153 353.577 14.5913C353.702 12.9723 354.029 10.8353 355.005 9.49132C359.625 3.12932 382.111 0.633316 389.732 0.316316C400.947 -0.149684 412.702 -0.248682 423.854 1.06232C457.359 4.99832 490.924 17.9323 520.47 33.6793C531.133 39.3623 542.296 45.3143 551.2 53.6813C555.644 57.8563 559.187 64.0473 563.203 67.6403C564.035 70.5663 565.324 73.5893 563.74 76.4933C561.819 80.0153 558.908 82.9113 556.933 86.3763C554.924 89.9033 553.815 93.8793 551.861 97.4423C548.651 103.292 544.857 108.882 541.483 114.647C538.061 120.493 535.027 126.597 531.977 132.643C531.09 134.401 529.512 135.509 528.527 137.191C527.065 139.688 526.115 142.562 524.845 145.176C522.51 149.981 519.895 154.669 517.621 159.497C515.397 164.217 514.978 169.78 512.254 174.224C512.452 174.352 512.649 174.483 512.848 174.609C515.982 176.592 519.351 177.556 522.639 179.186C535.362 185.492 556.661 196.344 564.852 207.911C566.036 209.583 566.637 211.707 567.287 213.633C566.063 219.047 564.78 223.231 559.73 226.334C549.619 232.545 533.101 229.24 521.915 227.9C519.837 227.652 516.94 226.744 514.979 226.819C513.541 226.874 513.416 227.293 512.654 228.355C512.65 229.655 512.583 230.06 513.64 231.018C515.994 233.149 519.642 234.641 522.386 236.253C530.607 241.082 533.963 249.512 535.509 258.442C537.152 267.926 535.703 277.338 530.072 285.314C527.828 288.493 524.921 291.522 521.672 293.674C519.836 294.89 514.656 296.148 513.635 297.701C512.707 299.113 512.666 303.274 512.443 305.051C511.729 310.747 509.698 316.304 509.245 321.94C511.599 326.413 533.107 334.699 538.881 337.822C550.638 344.18 562.683 351.055 573.578 358.774C581.595 364.455 589.182 370.891 597.085 376.759C607.124 384.212 622.466 396.415 630.655 405.601C646.142 422.973 656.544 444.099 666.522 464.899C671.679 475.648 676.819 486.139 680.693 497.456C682.082 501.517 682.748 505.741 684.007 509.819C685.536 514.773 687.71 519.443 688.961 524.504C689.654 527.307 689.59 530.255 690.269 532.963C691.253 536.887 692.975 540.617 693.851 544.576C694.954 549.557 694.713 554.767 695.622 559.788C698.227 574.19 704.404 590.016 699.736 604.675C697.995 610.143 695.389 615.751 692.172 620.508C683.215 633.752 660.499 654.904 647.334 664.469C639.707 670.011 626.21 677.699 621.566 685.287C624.539 693.856 624.357 704.278 623.923 713.267C622.483 715.233 621.647 716.643 619.119 717.177C616.888 717.649 613.705 716.862 611.491 716.326C607.322 717.546 601.226 716.776 596.78 716.999C585.271 717.577 573.9 718.618 562.359 718.935C557.84 722.452 537.727 734.256 532.447 733.547C531.179 733.377 529.941 732.742 529.26 731.632C528.86 730.981 529.017 731.027 529.009 730.133C529.001 729.148 528.839 728.476 528.448 727.563C528.827 724.476 530.619 722.102 533.02 720.207C541.739 713.327 568.331 702.689 570.509 689.878C571.5 684.055 565.605 678.088 562.318 673.759C553.541 662.2 540.75 646.409 525.369 644.3C514.38 642.792 505.578 643.496 496.569 650.415C491.036 654.665 482.126 662.933 481.243 670.182C480.922 672.815 481.011 677.911 481.743 680.496C486.016 679.1 488.911 667.133 503.063 664.245C505.25 663.799 508.206 663.596 510.203 664.83C511.146 665.414 511.93 666.321 512.041 667.459C512.211 669.2 511.266 670.64 510.155 671.888C507.139 675.275 502.857 677.18 499.455 680.102C495.778 683.262 490.464 690.851 490.508 695.891C490.52 697.262 490.902 698.348 491.35 699.621C491.575 700.257 491.625 700.781 491.61 701.451C492.243 701.548 492.662 701.103 493.142 700.728C495.097 699.199 496.585 696.632 498.015 694.615C502.958 687.639 508.602 683.563 516.513 680.39C518.983 680.706 521.488 680.944 523.923 681.471C524.849 683.572 525.71 685.607 526.337 687.824C525.567 689.872 524.754 692.973 522.647 694.01C521.205 694.72 519.617 694.512 518.191 695.431C513.394 698.525 504.463 706.676 502.167 711.75C501.481 713.266 500.987 714.672 501.576 716.316C501.838 717.048 502.688 717.988 503.412 718.348C504.582 718.928 504.949 718.671 506.057 718.221C507.781 716.386 508.558 714.125 509.57 711.862C511.123 708.39 523.574 697.606 527.286 696.429C529.025 695.878 530.999 695.739 532.808 695.542C534.563 697.18 537.396 699.29 537.758 701.807C538.088 704.105 536.495 706.68 534.986 708.261C532.048 711.34 527.98 713.213 524.932 716.194C519.179 721.821 516.118 733.579 506.791 733.44C500.76 733.35 497.774 730.938 493.943 726.696C492.096 724.65 490.307 721.859 488.139 720.22C486.008 720.868 460.199 720.979 456.702 720.892C453.12 720.804 449.806 720.212 446.259 721.008C440.285 722.348 437.15 719.041 431.695 718.672C429.614 718.53 428.324 719.909 426.428 720.072C420.948 720.543 401.844 719.48 396.872 717.827C395.098 718.444 393.326 719.098 391.429 719.131C375.866 719.406 360.377 717.003 344.895 715.803C333.337 714.907 321.759 713.807 310.202 713.007C304.323 712.6 298.416 712.744 292.553 712.083C288.943 711.677 285.526 710.229 281.921 709.842C273.393 708.929 265.024 709.413 256.639 707.234C253.041 706.299 245.728 706.637 242.589 708.625L242.638 709.205C241.72 710.673 240.637 710.903 239.097 711.643C236.871 710.521 234.636 709.415 232.393 708.326L232.613 708.664L232.543 709.536L232.974 709.013C232.327 708.52 231.777 707.303 231.339 706.567C228.019 700.979 230.153 696.79 228.842 691.105C226.115 688.872 227.506 686.94 226.763 683.951C226.685 683.64 226.593 683.333 226.522 683.02C225.863 680.132 225.189 668.021 225.841 665.105C225.957 664.583 226.743 663.606 227.044 663.105C227.13 662.232 227.045 661.912 226.611 661.14C225.891 659.858 225.115 658.832 225.176 657.306C225.463 650.171 224.817 642.879 224.904 635.707C224.973 629.95 225.762 624.259 225.945 618.549C225.989 617.166 225.475 615.706 225.034 614.408C224.533 612.938 225.711 612.852 225.185 611.397C222.367 611.523 214.865 616.944 210.703 618.048C207.298 618.951 203.622 619.41 200.148 620.08C185.85 622.835 173.256 623.98 159.381 618.618C157.398 617.851 155.032 617.16 153.26 615.979C150.907 614.412 150.318 612.934 147.262 612.166C146.705 612.026 146.142 611.906 145.593 611.736C141.069 610.339 131.351 600.975 127.907 597.241C120.112 588.791 112.387 578.859 106.644 568.886C103.57 563.548 101.464 557.561 98.8929 551.966C96.7249 547.247 94.2739 542.652 92.2079 537.888C87.3899 526.779 83.2429 514.752 79.5169 503.225C74.1319 486.564 69.4479 469.825 61.0429 454.33C63.4349 450.139 63.4359 448.544 68.0379 446.077C65.4379 441.501 58.1949 427.06 57.2739 422.464C56.9459 420.827 57.3859 418.834 57.6389 417.197C62.9619 414.102 68.4659 412.088 73.4449 408.348C69.6499 405.59 66.6639 401.778 62.7919 399.147C54.0139 393.183 35.3359 386.67 32.0699 375.685C28.4379 375.725 24.5579 375.995 20.9709 375.393C16.7619 374.688 12.8819 372.854 10.5039 369.174C6.64892 363.21 8.29092 356.571 9.76492 350.184C7.63992 348.555 5.85191 346.845 4.35591 344.604C-0.876089 336.772 5.09392 332.642 4.51692 324.977C4.14492 320.046 -1.34209 316.798 0.308914 309.656C1.89291 302.805 7.67392 301.196 12.8379 297.773C12.9429 297.486 13.1219 297.217 13.1549 296.913C13.3009 295.543 11.6089 291.477 11.2589 289.836C10.7719 287.551 10.6879 285.161 10.2459 282.846L3.75491 247.896C1.79491 237.544 -0.428077 222.704 6.13992 213.525C9.65592 208.61 14.0789 206.76 19.8629 205.96C31.9949 204.281 44.4979 203.777 56.7139 203.419C61.5309 203.278 66.3899 202.492 71.2109 202.978C75.5739 203.417 81.6579 205.048 85.1119 207.805C94.5149 215.309 93.6379 232.364 94.5869 243.188C94.7779 245.368 96.1609 250.25 95.7159 252.198C95.5739 252.817 94.8299 253.182 94.6869 253.801C94.4189 254.968 96.7139 264.608 96.9359 266.69C98.2659 279.142 98.5659 291.729 99.6299 304.211C111.178 304.869 118.756 301.276 130.134 306.891C145.046 314.25 148.208 332.825 148.666 347.813C148.886 355.047 148.29 363.481 150.643 370.335C151.668 370.411 151.3 370.503 152.218 370.126C152.501 370.01 152.777 369.876 153.058 369.755C155.563 368.672 158.59 367.587 161.267 368.8C162.69 369.445 163.983 370.671 164.784 372.003C167.158 375.953 168.179 381.002 169.604 385.377L176.558 406.17C177.452 406.782 178.399 407.419 179.14 408.215C180.508 409.683 181.556 411.954 181.457 413.985C181.293 417.355 179.724 418.658 177.467 420.841L177.847 421.536C179.41 420.97 180.391 420.686 182.053 420.895C186.969 423.341 196.231 447.102 198.613 452.963L199.582 452.745C199.502 451.389 199.351 449.87 199.726 448.548C201.835 441.1 214.841 421.761 220.016 414.861C224.29 409.162 229.384 403.168 234.341 398.054C237.721 394.566 247.722 386.985 249.433 384.096C249.917 383.278 250.466 382.542 251.099 381.831C252.252 380.535 253.299 380.471 254.924 380.399C255.086 380.392 255.248 380.389 255.41 380.384L255.81 379.58L254.292 379.216C255.354 376.318 259.345 376.498 261.178 373.926C264.553 369.192 287.811 355.447 294.537 350.177L295.242 349.62C294.684 347.306 290.647 327.204 290.294 326.656C288.246 323.48 280.078 321.937 275.684 315.677C271.488 309.698 267.614 300.709 269.097 293.287C269.537 291.086 270.13 289.962 272.035 288.736C272.267 287.92 272.107 287.492 271.942 286.676C268.874 286.075 265.166 285.573 262.646 283.591C261.441 282.644 260.598 281.269 260.569 279.703C260.472 274.489 265.497 275.395 268.111 272.569C269.193 271.4 268.353 262.295 268.304 260.233C268.049 260.089 267.795 259.945 267.546 259.791C262.81 256.866 260.561 251.512 259.318 246.286C257.056 236.777 256.236 225.665 261.803 217.059C268.431 206.813 279.239 202.744 290.614 200.442C293.489 191.289 299.452 184.053 305.646 176.921C306.065 174.825 305.157 172.461 304.634 170.42C290.962 165.248 278.642 155.302 271.223 142.511C267.545 136.17 264.829 128.457 266.912 121.16C268.031 117.236 269.96 113.66 273.695 111.71C289.471 103.478 325.269 118.333 340.821 123.41C343.241 120.451 344.674 115.663 345.86 112.052Z" fill="#58C686"/>
<path d="M345.86 112.052C345.696 111.422 345.537 110.85 345.613 110.19C345.816 108.418 346.685 106.374 347.139 104.607C348.951 97.5613 351.006 90.9613 352.074 83.7353C353.334 75.2093 354.371 66.6053 354.683 57.9843C355.066 47.3913 354.424 36.2983 354.066 25.6823C353.944 22.0383 353.297 18.2153 353.577 14.5913C353.702 12.9723 354.029 10.8353 355.005 9.49132C359.625 3.12932 382.111 0.633316 389.732 0.316316C400.947 -0.149684 412.702 -0.248682 423.854 1.06232C457.359 4.99832 490.924 17.9323 520.47 33.6793C531.133 39.3623 542.296 45.3143 551.2 53.6813C555.644 57.8563 559.187 64.0473 563.203 67.6403C564.035 70.5663 565.324 73.5893 563.74 76.4933C561.819 80.0153 558.908 82.9113 556.933 86.3763C554.924 89.9033 553.815 93.8793 551.861 97.4423C548.651 103.292 544.857 108.882 541.483 114.647C538.061 120.493 535.027 126.597 531.977 132.643C531.09 134.401 529.512 135.509 528.527 137.191C527.065 139.688 526.115 142.562 524.845 145.176C522.51 149.981 519.895 154.669 517.621 159.497C515.397 164.217 514.978 169.78 512.254 174.224C512.452 174.352 512.649 174.483 512.848 174.609C515.982 176.592 519.351 177.556 522.639 179.186C535.362 185.492 556.661 196.344 564.852 207.911C566.036 209.583 566.637 211.707 567.287 213.633C566.063 219.047 564.78 223.231 559.73 226.334C549.619 232.545 533.101 229.24 521.915 227.9C519.837 227.652 516.94 226.744 514.979 226.819C513.541 226.874 513.416 227.293 512.654 228.355C512.65 229.655 512.583 230.06 513.64 231.018C515.994 233.149 519.642 234.641 522.386 236.253C530.607 241.082 533.963 249.512 535.509 258.442C537.152 267.926 535.703 277.338 530.072 285.314C527.828 288.493 524.921 291.522 521.672 293.674C519.836 294.89 514.656 296.148 513.635 297.701C512.707 299.113 512.666 303.274 512.443 305.051C511.729 310.747 509.698 316.304 509.245 321.94C511.599 326.413 533.107 334.699 538.881 337.822C550.638 344.18 562.683 351.055 573.578 358.774C581.595 364.455 589.182 370.891 597.085 376.759C607.124 384.212 622.466 396.415 630.655 405.601C646.142 422.973 656.544 444.099 666.522 464.899C671.679 475.648 676.819 486.139 680.693 497.456C682.082 501.517 682.748 505.741 684.007 509.819C685.536 514.773 687.71 519.443 688.961 524.504C689.654 527.307 689.59 530.255 690.269 532.963C691.253 536.887 692.975 540.617 693.851 544.576C694.954 549.557 694.713 554.767 695.622 559.788C698.227 574.19 704.404 590.016 699.736 604.675C697.995 610.143 695.389 615.751 692.172 620.508C683.215 633.752 660.499 654.904 647.334 664.469C639.707 670.011 626.21 677.699 621.566 685.287C624.539 693.856 624.357 704.278 623.923 713.267C622.483 715.233 621.647 716.643 619.119 717.177C616.888 717.649 613.705 716.862 611.491 716.326C607.322 717.546 601.226 716.776 596.78 716.999C585.271 717.577 573.9 718.618 562.359 718.935C557.84 722.452 537.727 734.256 532.447 733.547C531.179 733.377 529.941 732.742 529.26 731.632C528.86 730.981 529.017 731.027 529.009 730.133C529.001 729.148 528.839 728.476 528.448 727.563C528.827 724.476 530.619 722.102 533.02 720.207C541.739 713.327 568.331 702.689 570.509 689.878C571.5 684.055 565.605 678.088 562.318 673.759C553.541 662.2 540.75 646.409 525.369 644.3C514.38 642.792 505.578 643.496 496.569 650.415C491.036 654.665 482.126 662.933 481.243 670.182C480.922 672.815 481.011 677.911 481.743 680.496C486.016 679.1 488.911 667.133 503.063 664.245C505.25 663.799 508.206 663.596 510.203 664.83C511.146 665.414 511.93 666.321 512.041 667.459C512.211 669.2 511.266 670.64 510.155 671.888C507.139 675.275 502.857 677.18 499.455 680.102C495.778 683.262 490.464 690.851 490.508 695.891C490.52 697.262 490.902 698.348 491.35 699.621C491.575 700.257 491.625 700.781 491.61 701.451C492.243 701.548 492.662 701.103 493.142 700.728C495.097 699.199 496.585 696.632 498.015 694.615C502.958 687.639 508.602 683.563 516.513 680.39C518.983 680.706 521.488 680.944 523.923 681.471C524.849 683.572 525.71 685.607 526.337 687.824C525.567 689.872 524.754 692.973 522.647 694.01C521.205 694.72 519.617 694.512 518.191 695.431C513.394 698.525 504.463 706.676 502.167 711.75C501.481 713.266 500.987 714.672 501.576 716.316C501.838 717.048 502.688 717.988 503.412 718.348C504.582 718.928 504.949 718.671 506.057 718.221C507.781 716.386 508.558 714.125 509.57 711.862C511.123 708.39 523.574 697.606 527.286 696.429C529.025 695.878 530.999 695.739 532.808 695.542C534.563 697.18 537.396 699.29 537.758 701.807C538.088 704.105 536.495 706.68 534.986 708.261C532.048 711.34 527.98 713.213 524.932 716.194C519.179 721.821 516.118 733.579 506.791 733.44C500.76 733.35 497.774 730.938 493.943 726.696C492.096 724.65 490.307 721.859 488.139 720.22C487.699 718.846 487.767 718.005 486.429 717.315C485.417 716.793 484.729 716.353 483.991 715.446C481.425 712.288 479.576 708.115 477.729 704.489C471.909 693.062 466.107 681.427 467.38 668.189C468.423 657.342 478.142 646.334 486.279 639.722C493.017 634.247 503.878 628.977 512.732 629.686C519.358 630.217 525.899 632.29 532.585 632.978C533.778 631.087 533.747 628.821 534.936 627.174C544.491 613.94 560.358 601.818 572.658 591.175C575.781 588.473 579.154 586.205 582.066 583.254C581.388 578.119 582.265 572.901 581.769 567.798C581.477 564.789 580.26 561.62 579.627 558.623C578.281 552.261 577.368 545.82 575.762 539.51C574.763 535.586 573.644 531.559 572.099 527.809C571.362 526.02 569.225 522.707 569.082 521.063C569.024 520.389 569.232 519.718 569.307 519.045C565.282 512.163 557.673 496.254 556.46 488.468C556.178 486.656 556.198 485.292 557.411 483.776C559.052 481.725 561.622 480.464 564.234 480.316C566.055 480.214 567.71 480.734 568.956 482.118C573.265 486.903 580.222 506.897 583.131 513.67C584.849 517.669 587.08 521.644 588.612 525.685C590.329 530.212 591.629 535.489 592.535 540.239C593.308 544.293 596.321 568.279 597.832 569.623C603.066 570.72 607.391 566.924 612.362 566.851C619.291 566.749 634.055 571.288 638.718 576.21C639.593 577.133 640.194 578.176 640.039 579.484C639.816 581.363 638.409 583.547 636.959 584.713C634.979 586.305 632.457 586.745 629.973 586.648C626.702 586.521 623.345 585.179 620.168 584.38C615.027 583.087 609.305 581.742 604.021 581.298C602.549 581.174 600.451 581.075 599.244 581.994C596.093 584.39 594.39 589.341 591.577 592.254C588.072 595.883 583.712 598.803 580.056 602.316L565.338 616.552C562.182 619.66 559.296 622.963 555.87 625.796L556.688 628.408C557.216 630.091 558.35 631.363 559.6 632.557C560.394 633.391 561.089 634.159 562.042 634.819C562.902 635.383 563.46 635.93 564.119 636.695C568.701 642.017 574.435 645.65 578.213 651.87C582.996 649.441 585.077 645.456 591.193 645.725C597.848 651.287 602.265 666.127 607.651 672.117C608.663 673.241 609.491 673.616 610.974 673.645C617.843 669.558 623.899 664.525 630.221 659.683C648.989 645.307 662.805 633.903 677.421 614.928C680 611.581 683.034 608.012 684.769 604.137C685.866 601.689 686.108 599.172 686.076 596.517C685.904 582.165 682.588 567.408 680.352 553.266C679.502 547.886 679.228 540.625 677.123 535.641C675.649 532.152 674.941 528.29 673.773 524.67C671.043 516.38 668.252 508.11 665.399 499.862C662.394 491.336 659.132 482.665 655.119 474.56C652.51 469.289 649.445 464.264 646.68 459.076C644.334 454.673 642.274 450.136 639.798 445.8C633.764 435.234 625.492 423.414 617.501 414.122C613.094 408.998 607.668 404.407 602.758 399.755C599.698 396.856 596.729 393.464 593.427 390.865C590.448 388.521 586.756 387.179 583.758 384.707C581.614 382.939 563.811 368.302 562.979 367.944C556.015 364.945 548.067 358.113 541.542 353.829C535.817 350.071 529.572 347.067 523.617 343.685C522.631 352.948 523.377 362.514 522.76 371.832C522.329 378.328 521.1 384.543 520.175 390.96C518.851 400.15 515.474 432.11 507.547 436.785C503.559 439.138 487.93 439.72 482.516 440.235C480.138 440.461 476.659 440.018 474.79 441.657C473.512 447.032 488.962 452.646 491.743 459.9C492.813 462.694 492.53 465.928 491.322 468.634C487.71 476.726 479.298 481.761 473.005 487.55C462.147 497.539 451.608 508.066 439.633 516.753C436.595 518.957 432.856 520.079 429.729 522.16C425.879 524.723 422.361 527.798 418.453 530.259C395.167 544.921 366.586 559.332 341.081 569.684C343.3 577.585 342.505 586.634 342.862 594.844C343.702 614.18 344.04 633.592 345.383 652.896C345.814 659.093 346.276 665.352 347.043 671.516C347.985 679.082 350.574 688.311 349.208 695.911C348.928 697.469 347.542 698.509 346.281 699.39C344.619 700.55 343.064 701.195 341.005 700.736C339.069 700.304 337.329 698.275 336.347 696.668C332.344 690.117 329.177 656.916 331.081 649.4C331.161 649.086 331.255 648.776 331.342 648.464C326.628 641.333 329.252 582.152 328.695 569.484C328.582 566.927 328.073 564.341 327.634 561.822C329.713 559.765 331.158 559.991 333.438 558.71C335.754 557.408 337.527 555.179 339.823 553.861C342.587 552.274 345.976 551.549 348.891 550.175L384.343 533.399C392.759 529.355 400.167 524.169 407.987 519.137C420.415 511.14 433.234 502.969 444.556 493.429C451.057 487.95 457.099 481.911 463.643 476.46C467.221 473.481 475.729 469.413 476.979 465.045C477.545 463.066 460.057 448.614 457.304 445.466C455.792 443.737 454.741 441.612 453.673 439.592C455.506 436.816 457.442 434.404 460.239 432.538C462.36 431.123 464.773 430.231 467.327 430.737C468.258 430.922 468.943 431.031 469.909 430.948L470.89 429.058C473.852 427.651 486.164 424.64 489.37 424.949C491.693 425.174 496 425.492 497.909 423.884C505 417.909 507.197 376.355 508.21 365.596C509.053 356.641 510.756 347.011 510.404 338.046C508.27 336.551 505.531 334.048 502.804 334.381C501.489 335.156 500.811 335.99 499.966 337.256C496.283 342.776 493.424 349.108 489.999 354.834C484.64 363.79 478.788 372.36 473.455 381.342C467.775 390.907 462.156 400.606 456.061 409.912C452.323 415.619 448.186 421.046 444.261 426.625C432.933 442.661 421.31 458.486 409.396 474.092C405.627 478.988 401.489 483.525 397.484 488.22C393.915 492.404 390.734 496.64 386.696 500.405C384.965 502.019 383.049 503.286 382.207 505.491C382.102 505.767 381.978 506.035 381.865 506.308C381.796 506.473 381.735 506.642 381.662 506.805C379.867 510.821 374.001 515.09 370.85 518.333C363.365 526.034 356.988 534.79 349.436 542.425C348.528 543.342 347.745 544.095 346.493 544.492C338.325 547.08 327.783 524.399 323.838 522.473C317.121 519.196 313.548 505.943 307.328 502.068C306.055 501.275 305.595 501.048 304.889 499.704C304.922 498.661 304.917 498.092 304.43 497.157C303.65 496.833 302.838 496.447 302.191 495.897C300.827 494.735 299.709 492.886 298.651 491.424C293.851 484.783 289.042 478.175 283.837 471.841C281.085 468.491 277.672 465.444 275.234 461.871C274.405 460.655 273.878 459.532 273.804 458.049C273.426 450.511 285.342 444.148 290.392 440.033C293.318 437.649 295.97 435.024 298.559 432.283C293.209 429.805 279.362 426.202 275.91 422.557C273.799 420.328 273.953 416.47 274.679 413.725C276.705 406.071 282.399 398.523 285.873 391.303C288.568 385.701 290.525 379.871 293.1 374.275C294.245 371.788 296.877 367.783 296.937 365.124C294.606 364.984 290.871 368.559 288.932 370.001C268.333 385.319 248.99 404.029 232.806 423.989C225.493 433.007 215.994 451.057 207.345 456.682L206.671 457.116C204.375 455.423 202.112 454.056 199.582 452.745C199.502 451.389 199.351 449.87 199.726 448.548C201.835 441.1 214.841 421.761 220.016 414.861C224.29 409.162 229.384 403.168 234.341 398.054C237.721 394.566 247.722 386.985 249.433 384.096C249.917 383.278 250.466 382.542 251.099 381.831C252.252 380.535 253.299 380.471 254.924 380.399C255.086 380.392 255.248 380.389 255.41 380.384L255.81 379.58L254.292 379.216C255.354 376.318 259.345 376.498 261.178 373.926C264.553 369.192 287.811 355.447 294.537 350.177L295.242 349.62C294.684 347.306 290.647 327.204 290.294 326.656C288.246 323.48 280.078 321.937 275.684 315.677C271.488 309.698 267.614 300.709 269.097 293.287C269.537 291.086 270.13 289.962 272.035 288.736C272.267 287.92 272.107 287.492 271.942 286.676C268.874 286.075 265.166 285.573 262.646 283.591C261.441 282.644 260.598 281.269 260.569 279.703C260.472 274.489 265.497 275.395 268.111 272.569C269.193 271.4 268.353 262.295 268.304 260.233C268.049 260.089 267.795 259.945 267.546 259.791C262.81 256.866 260.561 251.512 259.318 246.286C257.056 236.777 256.236 225.665 261.803 217.059C268.431 206.813 279.239 202.744 290.614 200.442C293.489 191.289 299.452 184.053 305.646 176.921C306.065 174.825 305.157 172.461 304.634 170.42C290.962 165.248 278.642 155.302 271.223 142.511C267.545 136.17 264.829 128.457 266.912 121.16C268.031 117.236 269.96 113.66 273.695 111.71C289.471 103.478 325.269 118.333 340.821 123.41C343.241 120.451 344.674 115.663 345.86 112.052Z" fill="#030303"/>
<path d="M460.802 253.783C472.922 254.23 480.299 251.719 491.713 248.142C496.159 246.749 500.711 245.12 505.416 244.995C507.85 244.93 510.402 245.475 512.81 245.793C514.251 246.991 515.641 248.176 517.205 249.208C519.858 250.956 521.402 257.326 521.817 260.43C522.631 266.514 521.118 274.775 517.174 279.469C511.887 285.759 502.352 284.802 499.894 287.871C497.109 291.349 498.221 304.219 496.493 310.199C491.971 325.85 485.797 334.958 477.087 348.303C474.413 352.401 472.347 356.59 468.966 360.192C467.276 361.993 465.651 363.859 464.336 365.954L464.48 365.681L463.703 365.901C452.626 369.085 406.251 397.09 401.927 396.6C401.835 396.59 401.084 396.267 400.93 396.181C399.055 395.131 397.143 392.959 395.49 391.511C390.085 386.777 382.875 383.364 375.562 384.969C370.998 385.971 359.407 394.172 356.161 392.305C351.779 389.784 347.713 386.477 343.501 383.669C329.154 374.102 317.58 365.715 309.837 349.781C306.696 343.316 305.182 335.958 301.146 329.983C312.06 331.355 325.385 334.27 335.641 329.14C339.341 327.289 342.37 324.532 345.952 322.561C357.632 335.803 372.549 341.452 390.093 342.557C404.632 343.472 420.802 338.164 431.723 328.432C439.228 321.744 446.538 309.559 447.262 299.375C447.416 297.211 447.296 295.662 445.95 293.898C444.778 293.206 443.875 292.828 442.474 293.043C441.779 293.15 440.959 293.616 440.325 293.926C439.671 293.427 439.426 292.68 439.051 291.96C446.923 284.467 456.68 276.028 459.306 265.002C460.17 261.377 460.399 257.487 460.802 253.783Z" fill="#E8E7D1"/>
<path d="M322.119 265.948C325.148 265.644 326.37 265.194 328.605 263.061C329.392 268.504 333.475 273.638 337.801 276.771C344.274 281.459 352.936 283.263 360.781 281.789C364.744 281.044 369.829 279.19 372.127 275.636C373.149 274.055 373.521 271.956 373.858 270.126L374.066 270.346L375.085 270.353C376.488 269.425 377.695 268.581 378.841 267.344C380.522 270.319 382.763 272.845 384.948 275.455C392.304 284.246 399.705 290.387 410.971 293.591C422.64 296.909 435.356 290.886 439.051 291.96C439.426 292.68 439.671 293.427 440.325 293.926C437.461 296.893 436.071 300.939 434.141 304.519C429.023 314.011 419.616 322.368 409.377 325.809C395.59 330.441 370.237 325.842 358.947 316.37C355.154 313.187 352.623 307.298 348.063 305.265C339.371 301.391 337.607 312.971 328.083 316.325C322.593 318.258 315.988 318.203 310.285 317.405C300.395 316.021 290.509 311.449 284.69 303.04C280.735 297.325 279.443 292.229 272.57 288.982C272.392 288.898 272.213 288.818 272.035 288.736C272.267 287.92 272.107 287.492 271.942 286.676L272.006 286.641C276.32 287.16 284.222 287.57 288.449 286.792C296.422 285.325 307.593 278.104 314.52 273.504C317.657 271.421 321.328 269.853 322.119 265.948Z" fill="#58C686"/>
<path d="M319.589 282.303C320.898 282.171 321.897 282.169 323.215 282.379C324.371 283.431 324.437 283.575 324.827 285.092C324.537 286.622 324.064 287.547 322.939 288.606C320.727 290.691 302.203 295.847 298.871 295.548C298.733 295.535 298.599 295.495 298.463 295.469L297.802 295.827C296.983 296.067 296.362 296.27 295.495 296.195C294.776 296.133 294.05 295.363 293.71 294.719C293.043 293.456 293.09 292.954 293.3 291.622C296.73 286.48 313.354 283.695 319.589 282.303Z" fill="#E8E7D1"/>
<path d="M368.619 301.745C367.732 301.744 366.829 301.751 365.947 301.651C364.238 301.458 362.755 300.555 361.87 299.06C360.977 297.553 360.917 295.888 361.521 294.271C361.976 293.055 363.074 291.965 364.265 291.492C366.443 290.627 368.831 291.594 370.761 292.61C373.062 292.436 374.741 292.174 376.604 293.792C377.35 294.44 377.616 295.047 377.966 295.936C377.887 297.642 377.378 298.732 376.084 299.846C374.033 301.612 371.176 301.56 368.619 301.745Z" fill="#E8E7D1"/>
<path d="M370.761 292.61C373.062 292.436 374.741 292.174 376.604 293.792C377.35 294.44 377.616 295.047 377.966 295.936C377.887 297.642 377.378 298.732 376.084 299.846C374.033 301.612 371.176 301.56 368.619 301.745C369.43 301.301 369.141 301.539 369.79 300.853C371.402 299.15 370.834 294.839 370.761 292.61Z" fill="#9CE1AC"/>
<path d="M345.86 112.052C352.043 113.064 358.337 113.694 364.414 115.24C372.35 117.258 380.057 120.368 387.917 122.706C393.532 124.377 399.123 125.457 404.668 127.465L405.668 126.437C408.901 127.574 411.975 129.152 415.216 130.229C418.783 131.414 422.433 131.969 426.004 133.286C439.989 138.445 454.114 144.734 467.414 151.445C473.669 154.601 479.465 158.481 485.619 161.79C492.001 165.222 500.566 168.149 505.669 173.364C507.487 173.078 509.091 172.861 510.711 173.963C511.491 174.493 511.887 175.065 512.329 175.897L511.935 176.538C509.542 176.736 507.331 175.463 505.139 174.608C469.085 161.401 432.557 149.531 395.627 139.023C387.467 136.665 379.17 134.396 370.937 132.317C360.5 129.68 350.812 127.624 340.821 123.41C343.241 120.451 344.674 115.663 345.86 112.052Z" fill="#58C686"/>
<path d="M308.53 261.277C305.513 258.161 302.706 254.56 300.802 250.646C296.961 242.752 296.843 230.943 299.856 222.72C301.743 217.574 305.463 213.666 310.511 211.523C316.72 208.887 324.26 208.251 330.505 211.053C339.805 215.226 343.733 222.786 347.184 231.879C341.663 235.567 336.856 234.502 332.676 241.02C328.658 247.284 326.942 255.878 328.605 263.061C326.37 265.194 325.148 265.644 322.119 265.948C322.393 264.251 322.597 263.16 321.637 261.625C320.753 260.212 319.461 259.253 317.819 258.908C314.202 258.149 311.528 259.429 308.53 261.277Z" fill="#E8E7D1"/>
<path d="M320.568 222.842C321.215 223.091 321.88 223.29 322.558 223.437C323.44 223.632 323.303 223.478 324.19 223.83C327.186 225.02 328.655 228.447 330.051 231.091C329.98 233.653 330.059 236.463 329.124 238.885C327.702 242.571 324.531 243.719 321.197 245.207C320.786 245.414 320.712 245.481 320.191 245.566C318.504 245.841 316.284 245.319 314.969 244.272C311.675 241.648 311.95 234.845 311.867 231.086C312.486 229.936 313.13 228.8 313.798 227.677C315.498 224.868 317.427 223.639 320.568 222.842Z" fill="#030303"/>
<path d="M579.925 701.729C580.836 702.089 581.78 702.461 582.742 702.661C593.788 704.953 600.825 694.77 609.383 689.881C609.544 689.789 609.708 689.701 609.871 689.611C609.601 698.729 610.708 707.32 611.491 716.326C607.322 717.546 601.226 716.776 596.78 716.999C585.271 717.577 573.9 718.618 562.359 718.935C564.633 716.764 567.515 715.17 569.93 713.127C573.834 709.824 576.796 705.74 579.925 701.729Z" fill="#58C686"/>
<path d="M373.858 270.126C373.386 268.971 372.944 267.663 371.883 266.907C368.204 264.286 360.208 268.637 355.999 268.819C351.999 268.992 347.756 267.893 344.863 264.997C342.993 263.125 341.858 260.611 341.9 257.948C341.948 254.958 343.521 252.323 345.745 250.407C353.363 243.842 364.351 245.17 373.624 245.872C374.256 253.661 375.94 260.103 378.841 267.344C377.695 268.581 376.488 269.425 375.085 270.353L374.066 270.346L373.858 270.126Z" fill="#E8E7D1"/>
<path d="M555.87 625.796L556.688 628.408C557.216 630.091 558.35 631.363 559.6 632.557C560.394 633.391 561.089 634.159 562.042 634.819C562.902 635.383 563.46 635.93 564.119 636.695C568.701 642.017 574.435 645.65 578.213 651.87C580.298 657.396 586.283 666.611 590.162 671.015C587.562 674.23 583.681 673.954 580.617 676.657C576.331 666.605 563.113 651.85 554.94 644.374C551.905 641.598 548.473 639.257 545.372 636.531C548.571 632.492 551.929 629.126 555.87 625.796Z" fill="#E8E7D1"/>
<path d="M590.162 671.015C592.597 674.683 594.945 678.34 597.103 682.182C594.496 684.507 591.991 686.373 588.985 688.165C585.875 684.557 583.022 680.774 580.617 676.657C583.681 673.954 587.562 674.23 590.162 671.015Z" fill="#58C686"/>
<path d="M473.942 104.661C470.902 104.678 454.027 97.6234 449.176 96.2504C439.307 93.4574 429.063 91.1434 419.108 88.6104C415.009 87.5684 410.526 86.9884 406.632 85.4024C404.338 84.4674 402.209 84.8914 399.839 84.5304C392.18 83.3624 384.551 81.5544 376.847 80.7424C374.269 80.4714 369.672 81.2454 367.662 79.9724C366.572 75.8944 368.492 67.0834 368.763 62.4364C369.101 56.6384 369.196 50.6524 369.025 44.8454C368.814 37.6794 365.633 23.9934 366.687 18.0274C370.52 15.4484 377.897 15.3224 382.541 14.9254C388.54 14.4134 394.471 13.1634 400.476 12.9404C411.468 12.5304 425.223 15.4824 436.169 17.6254C443.176 18.9964 450.594 20.3964 457.428 22.4024C485.4 30.6134 530.443 50.6924 551.054 71.2154C545.966 78.6614 540.332 86.2464 536.22 94.2684C530.067 106.274 525.975 119.074 517.403 129.729C510.527 124.194 492.722 113.009 484.469 110.132C485.152 108.327 485.673 106.429 486.26 104.588L480.49 99.5744C478.161 101.077 475.617 101.997 473.269 103.411L473.942 104.661Z" fill="#58C686"/>
<path d="M503.766 54.5603C503.921 54.5643 504.076 54.5593 504.23 54.5743C506.559 54.8023 509.348 55.9133 510.894 57.7243C511.796 58.7803 512.164 59.8733 511.937 61.2553C511.365 64.7413 502.181 83.1503 500.043 86.4023C499.246 87.6153 498.139 88.4623 496.982 89.3103C495.913 89.5493 494.75 89.7583 493.655 89.7803C492.346 89.7953 491.1 89.2153 490.268 88.2043C488.759 86.3423 489.078 83.2703 489.555 81.1003C491.004 74.5083 495.056 63.3473 499.276 58.0743C500.497 56.5503 502.124 55.5703 503.766 54.5603Z" fill="#E8E7D1"/>
<path d="M351.29 145.827C351.482 145.784 351.672 145.723 351.868 145.699C358.032 144.935 367.033 148.275 373.178 149.565C379.622 150.918 386.193 151.58 392.609 153.113C399.327 154.719 405.839 156.919 412.432 158.954C418.203 160.735 424.119 162.161 429.812 164.182C445.791 169.854 461.201 177.702 476.361 185.195C484.13 189.035 493.172 192.43 500.022 197.738C499.874 203.821 502.444 228.446 501.555 231.122C497.069 234.185 489.918 234.647 484.708 236.067C476.102 238.414 468.111 241.376 459.227 242.726C457.699 234.212 455.36 226.511 450.197 219.409C442.891 209.359 431.196 206.544 419.591 204.806C413.459 204.339 405.319 205.854 399.718 208.495C391.645 212.301 382.187 221.893 379.127 230.229C375.314 230.504 364.587 232.185 361.407 229.729C359.241 228.056 356.972 214.354 346.864 206.581C338.893 200.45 327.655 195.969 317.446 198.15C313.272 199.042 309.306 200.945 305.063 201.483C304.521 200.629 304.497 200.302 304.627 199.266C305.189 194.762 313.294 187.895 316.679 185.142C323.425 179.655 335.046 175.395 343.841 176.956C346.448 177.418 349.112 179.08 351.733 179.143C353.901 179.195 357.219 178.076 358.6 176.314C359.642 174.985 359.949 173.541 359.674 171.897C359.191 169.013 357.099 167.689 354.925 166.09C341.166 163.538 333.482 165.326 320.478 169.977C320.767 169.524 321.06 169.074 321.358 168.627C329.081 156.973 337.301 148.653 351.29 145.827Z" fill="#E8E7D1"/>
<path d="M409.066 170.947C409.657 171.077 410.112 171.02 410.707 170.999C426.522 170.46 438.723 177.483 449.879 188.065C450.162 190.108 450.633 192.524 449.751 194.483C449.182 195.744 448.537 196.522 447.225 197.024C444.328 198.132 441.264 196.044 438.866 194.674C434.071 191.507 429.892 187.761 424.477 185.593C421.181 184.273 417.446 183.284 413.883 183.486C408.885 183.771 402.918 187.096 398.003 184.667C396.82 184.083 396.26 183.15 395.897 181.913C395.316 179.935 395.859 177.221 397.034 175.551C399.472 172.088 405.238 171.742 409.066 170.947Z" fill="#030303"/>
<path d="M307.454 377.379C311.744 379.683 316.221 382.912 319.927 386.062C315.78 403.729 317.065 419.991 322.511 437.155C323.87 441.438 325.498 446.084 327.657 450.035C335.059 463.585 344.111 476.167 352.638 489.006C355.021 492.594 356.972 497.081 359.552 500.403C360.386 501.477 361.86 502.122 363.043 502.741C360.473 508.104 349.535 523.175 344.382 525.434C341.113 524.48 337.481 517.695 335.136 514.977C332.132 511.636 329.64 507.819 326.855 504.291C323.305 499.793 319.291 495.552 316.028 490.844C311.811 484.761 308.135 478.361 303.598 472.488C300.838 468.916 293.702 463.618 292.121 460.089C291.742 459.243 290.775 456.386 291.253 455.492C293.487 451.323 310.224 444.744 314.452 434.77C315.473 432.361 315.803 429.058 314.647 426.635C311.596 420.239 299.687 418.222 293.702 415.55C292.648 415.08 291.806 414.521 291.396 413.401C292.702 410.962 293.329 408.595 294.47 406.138C297 400.689 299.668 395.396 301.983 389.842C303.708 385.704 305.213 381.253 307.454 377.379Z" fill="#58C686"/>
<path d="M412.521 217.937C420.206 218.062 429.332 219.422 435.752 223.959C442.766 228.914 447.06 240.526 448.166 248.757C449.273 256.993 446.615 265.053 441.546 271.536C436.739 277.685 430.95 279.855 423.459 280.738C423.22 280.77 422.981 280.807 422.741 280.836C414.886 281.782 406.355 278.049 400.283 273.222C391.817 266.491 387.359 257.569 386.176 246.96C388.662 240.872 390.036 234.677 393.808 229.156C398.524 222.256 404.611 219.434 412.521 217.937Z" fill="#E8E7D1"/>
<path d="M417.809 236.469C421.914 236.567 424.88 238.961 427.985 241.345C428.057 244.369 428.225 247.564 427.354 250.49C426.265 254.146 424.009 256.108 420.762 257.909C419.319 257.788 417.669 257.779 416.287 257.378C414.318 256.806 412.388 254.443 411.402 252.75C409.878 250.169 409.519 247.062 410.414 244.201C411.218 241.68 412.412 239.933 414.805 238.768C415.923 238.224 416.631 237.676 417.502 236.791C417.606 236.685 417.707 236.576 417.809 236.469Z" fill="#030303"/>
<path d="M352.62 430.511C355.215 431.275 356.998 437.449 358.951 439.632C360.483 441.344 362.856 442.679 364.914 443.655C371.062 446.571 379.67 446.844 386.063 444.418C391.697 442.28 395.018 438.001 397.307 432.644C403.944 435.237 410.311 438.6 417.157 440.615C416.85 441.118 416.531 441.609 416.218 442.109C410.681 450.942 399.414 461.263 392.438 469.845C385.222 476.775 380.075 485.613 372.857 492.464C372.62 492.328 371.95 491.952 371.759 491.803C368.651 489.373 346.154 454.733 343.556 449.754C341.206 445.251 339.387 440.775 338.33 435.8C343.561 435.83 348.175 432.961 352.62 430.511Z" fill="#E8E7D1"/>
<path d="M480.49 99.5743L486.26 104.588C485.673 106.429 485.152 108.327 484.469 110.132C484.412 110.256 484.371 110.388 484.299 110.503C480.847 116.086 473.246 135.842 469.544 138.523C467.911 138.688 466.451 139.019 464.939 138.214C464.228 137.303 463.886 136.604 463.793 135.43C463.422 130.731 469.064 116.413 472.06 112.767C473.952 110.464 474.824 108.065 475.184 105.091L473.942 104.661L473.269 103.411C475.617 101.997 478.161 101.077 480.49 99.5743Z" fill="#E8E7D1"/>
<path d="M286.571 214.69L287.415 214.974C287.356 217.559 286.359 220.061 285.475 222.454C283.621 227.469 284.958 233.643 282.962 238.371C281.631 241.524 277.584 243.719 275.786 247.467L275.451 248.177L274.827 248.301C273.503 247.084 272.647 245.893 272.028 244.201C269.786 238.067 270.424 231.004 273.387 225.21C276.403 219.311 280.46 216.605 286.571 214.69Z" fill="#E8E7D1"/>
<path d="M430.552 408.119L431.491 408.258C432.956 409.241 433.708 409.8 434.409 411.441C434.421 416.882 428.989 420.988 426.199 425.137L425.769 425.786L423.565 424.961C420.629 421.447 418.493 418.735 416.975 414.336C421.4 412.115 426.044 410.175 430.552 408.119Z" fill="#E8E7D1"/>
<path d="M333.263 399.839C339.301 402.322 342.854 405.326 347.175 410.061C345.499 411.231 343.688 412.047 341.848 412.92C338.728 414.346 335.585 415.621 332.378 416.837C331.57 410.703 331.409 405.85 333.263 399.839Z" fill="#E8E7D1"/>
<path d="M286.631 255.908C289.228 257.882 294.503 265.368 296.647 268.276C294.827 268.592 293.029 269.085 291.235 269.523C290.712 269.764 290.187 269.996 289.657 270.221C288.105 270.875 286.883 271.431 285.272 270.553C284.012 269.865 283.358 268.473 283.147 267.109C282.416 262.379 284.038 259.578 286.631 255.908Z" fill="#E8E7D1"/>
<path d="M377.778 398.163C379.165 398.097 380.198 398.064 381.472 398.766C382.899 399.551 384.015 401.561 384.156 403.153C384.299 404.776 383.972 406.525 382.67 407.65C381.485 408.675 380.497 408.46 379.081 408.428C377.862 408.891 376.534 408.683 375.282 408.341C374.038 408.001 373.248 407.359 372.786 406.134C372.296 404.838 372.425 403.236 372.933 401.961C373.833 399.702 375.696 399.062 377.778 398.163Z" fill="#E8E7D1"/>
<path d="M376.495 419.906C377.894 420.035 379.866 420.901 380.991 421.714C381.488 422.871 381.801 423.792 381.667 425.07C381.373 427.886 379.73 430.467 377.6 432.23C376.712 431.76 375.809 431.289 374.972 430.731C373.128 429.501 371.069 426.526 370.775 424.327C370.604 423.043 371.03 422.248 371.695 421.205C373.175 420.004 374.65 420.053 376.495 419.906Z" fill="#E8E7D1"/>
<path d="M9.76492 350.184C7.63992 348.555 5.85191 346.845 4.35591 344.604C-0.876089 336.772 5.09392 332.642 4.51692 324.977C4.14492 320.046 -1.34209 316.798 0.308914 309.656C1.89291 302.805 7.67392 301.196 12.8379 297.773C12.9429 297.486 13.1219 297.217 13.1549 296.913C13.3009 295.543 11.6089 291.477 11.2589 289.836C10.7719 287.551 10.6879 285.161 10.2459 282.846L3.75491 247.896C1.79491 237.544 -0.428077 222.704 6.13992 213.525C9.65592 208.61 14.0789 206.76 19.8629 205.96C31.9949 204.281 44.4979 203.777 56.7139 203.419C61.5309 203.278 66.3899 202.492 71.2109 202.978C75.5739 203.417 81.6579 205.048 85.1119 207.805C94.5149 215.309 93.6379 232.364 94.5869 243.188C94.7779 245.368 96.1609 250.25 95.7159 252.198C95.5739 252.817 94.8299 253.182 94.6869 253.801C94.4189 254.968 96.7139 264.608 96.9359 266.69C98.2659 279.142 98.5659 291.729 99.6299 304.211C111.178 304.869 118.756 301.276 130.134 306.891C145.046 314.25 148.208 332.825 148.666 347.813C148.886 355.047 148.29 363.481 150.643 370.335C151.668 370.411 151.3 370.503 152.218 370.126C152.501 370.01 152.777 369.876 153.058 369.755C155.563 368.672 158.59 367.587 161.267 368.8C162.69 369.445 163.983 370.671 164.784 372.003C167.158 375.953 168.179 381.002 169.604 385.377L176.558 406.17C177.452 406.782 178.399 407.419 179.14 408.215C180.508 409.683 181.556 411.954 181.457 413.985C181.293 417.355 179.724 418.658 177.467 420.841L177.847 421.536C177.741 421.647 177.636 421.761 177.527 421.87C176.153 423.254 174.86 423.817 173.052 424.481C172.354 426.277 174.134 431.235 174.559 433.332C174.74 434.225 175.127 434.225 175.807 434.624C174.658 436.177 173.541 437.752 172.454 439.349C171.469 439.81 170.985 440.127 169.88 439.617C165.048 437.387 159.771 421.803 157.846 416.465L154.645 420.669C150.122 422.596 145.392 424.399 141.071 426.744C137.491 428.687 134.19 431.135 130.589 433.036C127.372 434.735 123.984 436.067 120.807 437.851C110.166 443.826 100.364 449.743 88.7449 453.866C84.9669 455.207 81.1089 455.35 77.3069 456.398C79.6659 462.698 83.2159 468.439 85.5259 474.765C89.1929 484.807 91.3359 495.343 95.1009 505.379C97.6979 512.302 101.198 519.043 104.306 525.756C107.676 533.033 110.671 540.479 114.491 547.542C116.77 551.755 120.018 555.459 122.681 559.438C125.621 563.83 128.032 568.678 131.167 572.914C139.223 583.799 153.167 596.241 165.486 601.863C179.071 608.063 200.101 605.215 213.713 599.99C217.6 598.498 221.493 596.412 225.657 595.927C226.733 587.475 226.979 579.037 227.82 570.589C229.675 551.959 232.892 532.968 236.381 514.58C237.4 509.211 237.942 503.418 239.579 498.213C240.594 494.989 242.396 490.668 245.212 488.647C246.241 487.908 247.409 487.578 248.66 487.937C251.475 488.744 253.084 492.889 254.256 495.277C253.455 501.72 252.037 508.045 250.926 514.437C250.106 519.154 249.567 523.931 248.593 528.618C248.329 530.736 247.972 532.88 247.968 535.017C246.694 545.214 245.192 555.372 243.984 565.578C243.525 569.45 242.691 573.285 242.637 577.188L242.614 578.142C242.604 578.919 242.594 578.662 242.687 579.368C242.961 581.816 242.295 584.61 242.051 587.08C241.307 594.625 240.233 602.274 239.784 609.832C239.375 616.716 240.55 623.583 240.696 630.454C240.756 633.279 239.637 635.962 239.537 638.725C239.489 640.04 240.413 640.039 240.754 640.998C241.322 642.594 240.514 651.673 240.644 654.305C241.318 667.991 243.389 681.625 243.942 695.28C244.089 698.895 243.409 702.298 243.318 705.854C243.293 706.833 242.918 707.714 242.589 708.625L242.638 709.205C241.72 710.673 240.637 710.903 239.097 711.643C236.871 710.521 234.636 709.415 232.393 708.326L232.613 708.664L232.543 709.536L232.974 709.013C232.327 708.52 231.777 707.303 231.339 706.567C228.019 700.979 230.153 696.79 228.842 691.105C226.115 688.872 227.506 686.94 226.763 683.951C226.685 683.64 226.593 683.333 226.522 683.02C225.863 680.132 225.189 668.021 225.841 665.105C225.957 664.583 226.743 663.606 227.044 663.105C227.13 662.232 227.045 661.912 226.611 661.14C225.891 659.858 225.115 658.832 225.176 657.306C225.463 650.171 224.817 642.879 224.904 635.707C224.973 629.95 225.762 624.259 225.945 618.549C225.989 617.166 225.475 615.706 225.034 614.408C224.533 612.938 225.711 612.852 225.185 611.397C222.367 611.523 214.865 616.944 210.703 618.048C207.298 618.951 203.622 619.41 200.148 620.08C185.85 622.835 173.256 623.98 159.381 618.618C157.398 617.851 155.032 617.16 153.26 615.979C150.907 614.412 150.318 612.934 147.262 612.166C146.705 612.026 146.142 611.906 145.593 611.736C141.069 610.339 131.351 600.975 127.907 597.241C120.112 588.791 112.387 578.859 106.644 568.886C103.57 563.548 101.464 557.561 98.8929 551.966C96.7249 547.247 94.2739 542.652 92.2079 537.888C87.3899 526.779 83.2429 514.752 79.5169 503.225C74.1319 486.564 69.4479 469.825 61.0429 454.33C63.4349 450.139 63.4359 448.544 68.0379 446.077C65.4379 441.501 58.1949 427.06 57.2739 422.464C56.9459 420.827 57.3859 418.834 57.6389 417.197C62.9619 414.102 68.4659 412.088 73.4449 408.348C69.6499 405.59 66.6639 401.778 62.7919 399.147C54.0139 393.183 35.3359 386.67 32.0699 375.685C28.4379 375.725 24.5579 375.995 20.9709 375.393C16.7619 374.688 12.8819 372.854 10.5039 369.174C6.64892 363.21 8.29092 356.571 9.76492 350.184Z" fill="#030303"/>
<path d="M157.846 416.465C159.742 414.587 161.978 413.379 164.263 412.044L165.75 412.499C166.749 410.765 167.459 408.264 169.161 407.183C170.98 407.076 172.703 408.128 174.32 408.884L174.735 409.656C173.9 411.069 173.405 411.757 171.76 412.184C170.303 412.563 168.562 412.513 167.562 413.649C167.439 415.542 167.26 417.434 168.731 418.905C169.774 419.949 171.745 420.71 173.217 420.505C173.495 420.467 173.76 420.362 174.037 420.312C175.305 420.084 176.273 420.462 177.467 420.841L177.847 421.536C177.741 421.647 177.636 421.761 177.527 421.87C176.153 423.254 174.86 423.817 173.052 424.481C172.354 426.277 174.134 431.235 174.559 433.332C174.74 434.225 175.127 434.225 175.807 434.624C174.658 436.177 173.541 437.752 172.454 439.349C171.469 439.81 170.985 440.127 169.88 439.617C165.048 437.387 159.771 421.803 157.846 416.465Z" fill="#E8E7D1"/>
<path d="M105.16 316.943C105.543 316.901 105.925 316.856 106.309 316.826C116.687 316.03 123.152 318.789 130.89 325.456C132.161 329.533 133.626 333.669 134.347 337.889C135.484 344.544 135.215 351.82 135.563 358.582C135.902 365.179 136.841 371.751 137.663 378.302C133.992 381.371 90.4739 403.143 86.2289 403.83C84.9859 404.031 84.4699 403.733 83.4849 403.041C83.2479 400.213 81.9589 398.712 80.2959 396.523C74.4949 388.887 66.4419 384.894 58.2499 380.294C55.3099 378.643 52.3379 377.116 49.9629 374.672L50.1689 374.01C52.9829 373.986 55.5249 373.622 58.1809 372.657L58.7309 372.452C63.7009 370.102 67.9179 367.989 70.2599 362.64C72.2409 358.114 71.8429 353.896 70.1739 349.399L69.9159 348.717C70.7259 347.634 70.7149 347.148 70.6169 345.811C70.5979 345.558 70.5709 345.305 70.5479 345.052C71.5529 344.3 71.0039 344.396 72.1909 344.746C75.4509 345.706 79.6249 347.497 82.9719 347.732C86.8899 348.008 91.1149 346.632 94.9929 347.306C95.3329 347.366 96.3499 347.676 96.4789 348.01C98.0379 352.052 91.6819 364.321 98.0609 373.02C99.2649 374.661 100.937 375.559 102.951 375.777C105.042 376.004 107.13 375.5 108.749 374.138C110.632 368.278 108.732 361.978 108.893 355.931L108.925 354.919C109.038 350.82 111.261 347.481 111.772 343.564C112.305 339.481 109.599 336.08 107.215 333.137C98.4469 330.977 87.5769 336.346 79.2389 331.231C77.5039 330.167 76.8979 328.894 76.3659 326.99C76.8529 325.228 77.6849 324.245 78.8599 322.869L78.8399 323.124C84.3609 322.361 96.6389 317.792 100.195 317.76C101.97 317.744 103.45 317.395 105.16 316.943Z" fill="#E8E7D1"/>
<path d="M151.966 387.156C152.997 387.042 153.504 387.131 154.463 387.522C157.618 390.893 158.365 396.439 159.478 400.819C153.339 405.691 144.944 409.337 137.982 413.014C132.233 416.05 126.692 419.519 120.87 422.408C107.907 428.84 94.5989 434.577 81.8059 441.351C79.0959 435.879 76.1229 430.302 73.0559 425.02C78.7649 420.925 86.5919 419.158 92.9959 416.139C107.289 409.403 121.397 402.019 135.512 394.918C140.931 392.191 146.554 389.938 151.966 387.156Z" fill="#E8E7D1"/>
<path d="M38.8779 235.356C45.2739 234.564 54.1109 234.458 60.4539 235.685C61.9529 235.975 63.3929 236.398 64.2379 237.738C67.6419 243.133 70.9029 264.318 69.5729 270.56C67.9739 272.717 60.0729 272.981 57.2599 273.561C50.7469 274.585 41.5209 274.205 34.8749 273.746C30.2479 270.404 28.0939 244.854 26.8999 238.267C30.9999 236.519 34.4799 235.844 38.8779 235.356Z" fill="#E8E7D1"/>
<path d="M42.347 245.62C44.126 245.957 45.624 245.583 47.389 245.569C49.622 245.551 51.599 246.298 53.134 247.96C54.752 249.712 55.249 252.157 55.158 254.474C55.026 257.815 53.559 259.726 51.163 261.901C50.295 262.233 49.388 262.579 48.462 262.709C45.823 263.081 42.904 262.216 40.831 260.568C38.974 259.116 37.837 256.931 37.714 254.577C37.582 252.271 38.227 250.287 39.844 248.63C40.68 247.773 41.391 246.945 42.094 245.974L42.347 245.62Z" fill="#030303"/>
<path d="M19.0149 329.412C23.0599 330.809 27.5209 330.239 31.7519 330.361C38.4749 330.556 49.1709 330.816 55.3879 332.738C56.9479 333.221 58.7079 334.043 59.4329 335.609C59.9939 336.822 60.1709 338.454 59.7159 339.723C59.2619 340.99 59.0099 340.98 57.8609 341.536C57.6479 341.557 57.4349 341.581 57.2219 341.6C52.5299 342.005 47.0519 341.266 42.2789 341.206C35.5549 341.121 27.5999 342.064 21.0309 341.005C20.0219 340.842 18.9379 340.395 18.2009 339.665C16.7779 338.256 16.3139 336.705 16.3549 334.762C16.4079 332.206 17.1649 331.114 19.0149 329.412Z" fill="#E8E7D1"/>
<path d="M18.9079 307.125C22.5129 308.065 27.2699 307.486 31.0539 307.712C40.1269 308.253 48.2429 311.936 56.4589 315.478C57.4129 316.609 58.2619 317.57 58.8059 318.973L58.2599 319.639L56.5959 319.733C50.5549 319.568 20.7759 317.023 17.0179 315.767C16.0859 315.455 15.4509 314.418 15.1909 313.51C14.8079 312.175 15.0329 310.671 15.6499 309.433C16.5109 307.705 17.2059 307.648 18.9079 307.125Z" fill="#E8E7D1"/>
<path d="M26.7889 353.627C26.9669 353.854 27.0669 354.173 27.3219 354.307C29.0479 355.215 52.7749 352.364 56.8789 353.635C57.8219 353.927 58.3929 354.389 59.1239 355.021C59.5389 356.042 59.6619 356.354 59.2629 357.474C58.2309 360.373 55.9469 361.267 53.2769 362.142C50.6409 360.831 29.3049 362.96 24.1119 361.658C22.5089 361.256 21.2749 360.779 20.4099 359.304C20.4599 358.304 20.3759 358.051 20.9109 357.149C21.6409 355.919 22.5949 354.979 24.0169 354.656C24.7989 354.479 25.2179 354.376 25.9329 354.038L26.7889 353.627Z" fill="#E8E7D1"/>
<path d="M177.847 421.536C179.41 420.97 180.391 420.686 182.053 420.895C186.969 423.341 196.231 447.102 198.613 452.963C200.467 459.974 203.644 468.67 207.243 474.925C207.192 477.051 207.376 479.744 206.418 481.682C205.573 483.392 203.269 484.501 201.473 484.94C199.473 485.429 198.224 484.667 196.611 483.625C190.859 473.089 186.514 461.625 181.517 450.723C179.904 447.204 177.415 443.702 176.161 440.08C175.856 439.2 175.918 438.445 176.072 437.558C176.216 436.733 176.264 436.23 176.039 435.408C175.967 435.145 175.884 434.885 175.807 434.624C175.127 434.225 174.74 434.225 174.559 433.332C174.134 431.235 172.354 426.277 173.052 424.481C174.86 423.817 176.153 423.254 177.527 421.87C177.636 421.761 177.741 421.647 177.847 421.536Z" fill="#030303"/>
<path d="M247.968 535.017C249.372 534.576 249.966 534.257 251.431 534.553L256.054 535.515L256.215 536.168L254.705 536.846C255.163 537.81 255.543 538.225 256.35 538.949L254.29 540.469C254.432 543.272 255.503 549.439 254.285 551.815L253.152 552.407C253.221 553.49 253.418 554.321 253.741 555.343C254.053 556.327 254.313 556.939 253.866 557.939C252.725 560.493 251.127 562.061 250.75 565.008C251.134 565.739 251.406 566.142 251.931 566.747C251.092 567.47 251.563 567.214 250.525 567.528C248.577 571.816 247.735 575.44 244.39 579.01C243.837 579.139 243.252 579.323 242.687 579.368C242.594 578.662 242.604 578.919 242.614 578.142L242.637 577.188C242.691 573.285 243.525 569.45 243.984 565.578C245.192 555.372 246.694 545.214 247.968 535.017Z" fill="#9CE1AC"/>
<path d="M559.6 632.557C559.682 630.319 560.431 626.961 562.024 625.302C562.868 624.423 563.877 623.805 565.131 623.797C566.736 623.787 568.202 624.698 569.225 625.872C570.252 627.051 571.069 628.845 570.895 630.446C570.758 631.7 570.235 632.732 569.232 633.522C567.108 635.194 564.576 634.991 562.042 634.819C561.089 634.159 560.394 633.391 559.6 632.557Z" fill="#030303"/>
<path d="M248.593 528.618C251.107 528.819 254.065 530.059 255.693 532.1C256.241 532.788 256.184 533.06 256.316 533.888L255.736 534.305C254.45 533.879 253.226 533.282 251.863 533.421L251.431 534.553C249.966 534.257 249.372 534.576 247.968 535.017C247.972 532.88 248.329 530.736 248.593 528.618Z" fill="#58C686"/>
<path d="M513.364 538.682C513.469 538.665 513.573 538.63 513.68 538.629C515.668 538.627 517.962 538.481 519.906 538.884C521.795 539.276 523.234 540.315 524.2 541.989C524.949 543.285 525.205 544.814 524.63 546.242C523.473 549.117 519.998 550.741 517.359 551.944C507.276 556.544 494.886 560.578 483.85 561.921C476.546 562.81 468.322 562.588 460.916 562.512C456.695 562.469 452.642 563.02 448.604 561.535C448.376 561.596 448.15 561.667 447.919 561.718C446.183 562.104 441.746 560.545 440.34 559.477C437.207 557.096 437.122 554.414 436.799 550.813C438.508 549.108 441.117 546.125 443.62 545.785C447.318 545.283 452.117 547.365 456.008 547.407C462.052 547.472 468.264 548.189 474.252 548.103C487.253 547.918 501.439 543.633 513.364 538.682Z" fill="#030303"/>
<path d="M372.945 637.888C375.877 637.829 378.564 638.108 381.347 639.097C385.564 640.596 389.084 643.979 390.92 648.041C393.15 652.974 392.703 659.334 390.587 664.228C388.343 669.418 384.352 672.936 379.164 674.926C378.641 675.017 378.118 675.112 377.591 675.175C373.738 675.641 368.619 673.718 365.698 671.291C361.324 667.655 359.714 662.031 359.307 656.553C358.776 649.399 360.87 645.032 365.408 639.763C367.9 638.935 370.378 638.4 372.945 637.888Z" fill="#030303"/>
<path d="M374.78 649.949C376.212 650.901 377.743 651.726 379.231 652.589C379.256 653.569 379.316 654.585 379.246 655.563C379.096 657.649 377.047 659.031 375.617 660.382C374.272 659.97 373.027 659.573 371.775 658.912C371.409 658.243 371.002 657.515 370.981 656.728C370.911 654.057 373.021 651.691 374.78 649.949Z" fill="#E8E7D1"/>
<path d="M371.482 582.458C374.573 581.924 379.657 583.281 382.435 584.748C386.441 586.864 389.394 590.145 390.615 594.557C391.969 599.452 391.748 605.292 388.962 609.657C385.689 614.786 381.204 616.633 375.553 617.791C372.204 617.587 368.608 617.299 365.666 615.535C360.981 612.726 360.065 607.532 358.901 602.64C359.413 601.176 360.017 600.261 359.629 598.737L359.636 598.774H358.368C358.282 598.342 358.232 598.193 358.25 597.698C358.401 593.475 360.275 588.731 363.212 585.711C365.677 583.178 368.039 582.543 371.482 582.458Z" fill="#030303"/>
<path d="M374.27 595.428C376.265 596.053 377.649 596.536 378.866 598.241C379.205 601.036 377.045 603.438 375.574 605.656C374.81 605.411 374.085 605.14 373.365 604.781C371.868 604.033 370.986 603.213 370.442 601.602C370.568 598.547 372.158 597.379 374.27 595.428Z" fill="#E8E7D1"/>
<path d="M182.386 557.489C183.78 558.562 184.954 559.549 186.074 560.91C185.783 563.081 184.989 564.889 184.302 566.932C183.492 569.343 182.83 570.561 181.01 572.395L180.158 572.441L179.918 571.919L181.578 569.956L180.22 569.433C179.46 567.325 180.225 563.136 180.296 560.705L182.386 557.489Z" fill="#E8E7D1"/>
<path d="M63.8529 29.0393C65.2859 23.4593 64.4919 22.4273 69.7909 19.2973C93.7429 5.14835 112.909 -1.39267 140.53 5.73933C149.756 8.12133 165.727 14.3763 170.774 22.8533C171.651 24.3263 172.451 26.3403 171.836 28.0413C170.7 31.1853 166.056 32.7333 163.152 33.7203C165.749 37.8713 168.783 42.3943 172.459 45.6643C173.219 46.9503 173.995 48.0113 174.866 49.1903C174.906 49.2453 174.903 49.3213 174.921 49.3873C174.107 51.6223 175.265 53.3843 176.228 55.4313C177.372 57.8603 178.726 61.1043 180.845 62.8123C183.331 60.0163 186.422 56.7363 190.422 56.5253C192.051 56.4393 193.573 57.0733 194.724 58.2123C195.513 58.9923 195.795 59.7763 196.024 60.8303C196.877 64.7683 196.54 69.1163 197.029 73.1393C197.437 76.4933 198.755 79.8833 198.617 83.2553C198.604 83.5623 198.582 83.8693 198.566 84.1773C197.246 110.209 193.764 127.154 173.797 145.409C171.509 147.5 169.271 149.236 166.571 150.758C168.081 155.808 169.814 159.716 173.677 163.498C177.339 167.083 192.188 172.741 188.412 178.885C187.642 180.139 186.186 180.594 184.969 181.338C180.305 184.189 177.035 186.69 171.313 187.514C161.246 188.962 151.101 186.701 143.067 180.44C137.389 176.015 132.202 170.221 129.146 163.675C102.485 163.331 75.9449 159.746 56.2269 139.692C43.1349 126.378 33.8119 104.478 33.9449 85.7443C33.9619 83.3353 34.2539 81.2143 36.0409 79.4423C37.9209 77.5773 40.7729 76.9553 43.3309 76.8813C44.8799 74.1093 45.2059 65.9713 46.2359 62.2123C46.9879 59.4683 48.4029 57.0333 49.7759 54.5613C48.0829 54.2693 46.4419 53.9193 45.2659 52.5183C43.5679 50.4963 43.9229 47.0443 43.8989 44.5573C47.8089 41.8723 49.5929 40.4903 54.5209 40.6893C56.0209 42.3193 57.3599 43.8883 58.5419 45.7653C62.0319 42.5163 64.9289 37.5973 67.7919 33.7393C66.4529 32.1943 65.1399 30.6273 63.8529 29.0393Z" fill="#58C686"/>
<path d="M180.845 62.8123C183.331 60.0163 186.422 56.7363 190.422 56.5253C192.051 56.4393 193.573 57.0733 194.724 58.2123C195.513 58.9923 195.795 59.7763 196.024 60.8303C196.877 64.7683 196.54 69.1163 197.029 73.1393C197.437 76.4933 198.755 79.8833 198.617 83.2553C198.604 83.5623 198.582 83.8693 198.566 84.1773C197.246 110.209 193.764 127.154 173.797 145.409C171.509 147.5 169.271 149.236 166.571 150.758C168.081 155.808 169.814 159.716 173.677 163.498C177.339 167.083 192.188 172.741 188.412 178.885C187.642 180.139 186.186 180.594 184.969 181.338C180.305 184.189 177.035 186.69 171.313 187.514C161.246 188.962 151.101 186.701 143.067 180.44C137.389 176.015 132.202 170.221 129.146 163.675C102.485 163.331 75.9449 159.746 56.2269 139.692C43.1349 126.378 33.8119 104.478 33.9449 85.7443C33.9619 83.3353 34.2539 81.2143 36.0409 79.4423C37.9209 77.5773 40.7729 76.9553 43.3309 76.8813C43.9909 78.1473 45.4149 79.1513 46.4889 80.1053L47.6199 91.5623C49.4299 108.271 58.5589 124.964 71.6689 135.496C90.6489 150.743 113.351 152.676 136.721 150.183C138.178 151.61 139.584 153.097 141.011 154.555C141.614 159.398 143.149 162.794 146.669 166.264C150.338 169.882 159.018 174.641 164.393 174.459C165.49 174.422 166.497 174.239 167.299 173.442C163.985 170.976 161.236 168.091 159.24 164.456C156.656 159.751 153.123 150.892 154.944 145.608C156.152 142.102 165.108 136.378 167.981 133.081C175.212 124.782 179.699 114.348 182.672 103.895C186.309 91.1053 187.585 74.9073 180.845 62.8123Z" fill="#030303"/>
<path d="M63.8529 29.0393C65.2859 23.4593 64.4919 22.4273 69.7909 19.2973C93.7429 5.14835 112.909 -1.39267 140.53 5.73933C149.756 8.12133 165.727 14.3763 170.774 22.8533C171.651 24.3263 172.451 26.3403 171.836 28.0413C170.7 31.1853 166.056 32.7333 163.152 33.7203C155.386 25.5953 146.526 19.5693 135.514 16.9763C121.524 13.6823 109.665 15.4623 96.4369 20.6053C93.0679 21.9153 89.3809 23.1943 86.2399 24.9763C82.1019 27.3233 78.4359 30.4623 74.3409 32.8893C71.9649 34.2973 70.4579 34.3703 67.7919 33.7393C66.4529 32.1943 65.1399 30.6273 63.8529 29.0393Z" fill="#030303"/>
<path d="M43.8989 44.5573C47.8089 41.8723 49.5929 40.4903 54.5209 40.6893C56.0209 42.3193 57.3599 43.8883 58.5419 45.7653C58.4799 45.9373 58.4119 46.1063 58.3559 46.2803C58.0269 47.3003 58.2219 46.5573 58.1849 47.4443C58.1349 48.6103 56.3859 51.6383 55.4919 52.3653C53.7379 53.7893 51.9589 54.1863 49.7759 54.5613C48.0829 54.2693 46.4419 53.9193 45.2659 52.5183C43.5679 50.4963 43.9229 47.0443 43.8989 44.5573Z" fill="#030303"/>
<path d="M113.517 36.2213L114.419 36.7393C118.554 35.7733 123.053 37.0463 126.981 38.3703C129.616 41.5743 131.94 45.0043 132.478 49.2213C133.575 57.8293 126.211 59.6363 122.015 65.1843C121.918 65.8093 121.683 66.2273 122.05 66.7953C123.161 68.5213 125.845 68.6203 127.674 68.9083C131.199 69.4623 133.837 71.0253 136.848 72.8503C144.383 77.4163 148.165 84.6523 148.925 93.3163C149.084 95.1223 148.865 97.8363 149.981 99.3143C157.256 100.064 155.217 91.7543 159.415 89.0443C160.6 88.2673 162.047 87.9973 163.432 88.2963C165.682 88.8023 167.563 90.5133 168.674 92.4783C170.114 95.0353 170.427 98.0743 169.54 100.87C167.609 106.757 163.361 107.113 158.639 109.516C154.783 111.478 151.242 111.511 146.981 111.856C146.802 112.052 146.633 112.256 146.446 112.443C145.64 113.253 145.095 113.647 143.923 113.595C133.367 113.129 139.115 92.3823 132.479 85.3433C130.458 83.1993 123.543 78.7603 120.525 78.7693C120.296 78.7703 120.067 78.7873 119.839 78.7963C118.857 78.9783 117.879 79.1753 116.904 79.3893C92.8329 84.7453 103.118 106.815 98.4349 113.497C97.4959 114.836 96.0409 115.93 94.3939 116.154C87.1509 117.137 75.9809 118.482 69.9569 113.557C66.0349 110.351 65.4539 106.213 64.8789 101.518C65.6969 99.0113 67.3619 95.3993 69.9639 94.3013C74.1129 92.5513 78.3399 103.668 82.2609 105.118C83.9979 105.761 84.8869 105.437 86.4769 104.624C87.3189 103.448 87.6429 91.5943 88.5879 88.3493C90.2649 82.5893 94.4049 75.2963 99.8199 72.4783C101.524 71.5913 103.254 70.5033 105.069 69.8673C107.071 69.1643 109.077 69.2053 110.944 68.0853C111.16 66.8053 111.032 67.1103 110.108 66.2833C101.571 58.6443 101.177 62.5623 98.2699 49.8963C98.6869 48.5783 99.1569 47.3653 99.7949 46.1343C102.919 40.1063 107.401 38.2293 113.517 36.2213Z" fill="#030303"/>
<path d="M114.41 47.0503C116.626 47.4013 118.468 47.6593 119.991 49.4573C121.068 50.7293 120.977 51.3933 120.802 52.9373C119.924 53.8883 119.222 54.7163 118.135 55.4303C116.552 55.0733 114.175 55.4553 112.894 54.7093C112.322 54.3763 111.626 53.8323 111.541 53.1383C111.285 51.0333 113.264 48.7173 114.41 47.0503Z" fill="#E8E7D1"/>
<path d="M678.602 87.8943C680.972 88.7443 684.151 88.6563 686.691 89.0233C694.891 90.2083 704.501 92.3483 711.213 97.5213C720.746 104.867 732.437 126.825 733.784 138.962C735.08 150.648 729.05 162.291 721.92 171.179C719.322 174.417 716.592 177.778 713.291 180.333C707.61 184.731 697.356 187.483 690.25 186.429C686.574 185.883 682.542 183.982 678.854 184.399C678.572 184.904 678.25 185.419 678 185.941C675.89 190.346 671.51 193.439 667.178 195.471C665.528 195.815 663.845 196.249 662.222 196.715C661.619 196.889 661.008 197.114 660.382 197.197C653.703 198.085 641.06 196.095 635.743 192.135C634.494 191.205 633.326 189.923 633.229 188.287C632.806 181.152 643.077 182.428 647.268 180.638C649.55 179.663 652.02 176.509 653.792 174.744C651.908 171.621 648.47 169.741 645.638 167.516C638.402 161.828 632.911 155.197 631.828 145.72C630.278 132.149 632.513 116.015 641.294 105.045C649.172 95.2043 662.07 90.0493 674.382 88.7093C675.691 88.5673 676.876 88.3603 678.15 88.0193L678.602 87.8943Z" fill="#030303"/>
<path d="M664.354 174.393C664.275 173.011 664.257 171.525 663.79 170.21C662.167 165.647 651.808 158.415 648.46 151.326C644.701 143.366 642.53 130.933 645.658 122.508C648.608 114.565 654.863 109.718 662.321 106.361C672.858 101.619 684.072 99.8683 695.075 104.091C705.991 108.28 711.651 114.453 716.367 124.964C720.533 134.251 721.981 144.963 718.149 154.668C716.398 159.101 713.479 163.324 710.196 166.757C695.237 182.406 681.36 168.866 674.885 172.211C674.653 172.331 674.435 172.477 674.21 172.609C674.073 172.756 673.934 172.9 673.799 173.048C671.561 175.495 670.273 178.219 668.412 180.883C667.004 182.897 661.792 185.223 659.291 185.073C658.841 185.046 658.673 184.926 658.312 184.745C658.504 183.041 663.162 177.962 664.354 174.393Z" fill="#58C686"/>
<path d="M664.354 174.393C664.418 173.531 664.453 172.756 664.736 171.931C664.984 171.21 665.63 170.923 666.34 170.686C668.72 169.891 672.111 171.549 674.21 172.609C674.073 172.756 673.934 172.9 673.799 173.048C671.561 175.495 670.273 178.219 668.412 180.883C667.004 182.897 661.792 185.223 659.291 185.073C658.841 185.046 658.673 184.926 658.312 184.745C658.504 183.041 663.162 177.962 664.354 174.393Z" fill="url(#paint0_linear_1_69)"/>
<path d="M680.356 107.01C680.414 106.973 680.467 106.925 680.531 106.9C681.545 106.508 683.108 106.993 683.997 107.56C684.801 108.072 685.325 108.417 685.494 109.365C685.83 111.247 685.097 112.301 684.148 113.847C683.425 115.024 682.847 116.027 682.386 117.325C682.512 117.72 682.449 118.242 682.766 118.51C683.313 118.974 689.333 118.941 690.599 119.168C692.706 119.545 695.206 120.949 696.955 122.158C700.146 124.364 702.568 127.489 703.217 131.378C703.98 135.945 702.445 141.084 699.72 144.761C695.913 149.898 685.908 155.933 679.45 156.64C677.645 156.837 675.725 156.611 674.371 155.265C673.454 154.353 672.872 152.949 672.914 151.655C672.977 149.717 674.192 148.297 675.401 146.91L675.767 146.499C681.128 143.651 687.212 143.676 691.762 138.885C692.831 137.759 693.574 136.412 693.358 134.8C692.97 131.905 690.426 130.27 688.215 128.771C684.369 128.663 680.751 128.604 676.971 129.452C673.295 130.276 665.18 135.1 661.884 133.875C660.37 133.313 658.955 131.158 658.571 129.656C658.274 128.494 658.319 127.408 659.053 126.413C662.041 122.36 669.809 122.91 672.1 120.027C672.968 118.934 673 116.02 673.391 114.579C673.92 112.627 674.831 110.679 675.76 108.882C677.331 107.658 678.405 107.344 680.356 107.01Z" fill="#030303"/>
<path d="M668.595 255.842L669.365 256.273C675.927 255.065 684.039 258.344 690.519 259.334C693.668 259.814 696.927 259.816 700.102 260.186C706.557 260.938 713.548 262.404 719.706 264.501C728.757 267.584 739.088 273.585 743.281 282.614C745.841 288.127 744.464 292.503 743.873 298.212C743.652 300.348 743.777 302.095 742.959 304.172C739.873 312.011 739.408 319.974 732.447 325.912C729.469 328.452 724.243 330.603 720.296 330.346C720.261 330.359 720.227 330.381 720.19 330.384C717.043 330.62 713.854 331.114 710.696 331.038C706.201 330.929 701.795 330.053 697.349 329.494C683.317 327.731 667.397 327.306 655.145 319.532C650.395 316.518 646.355 312.446 645.228 306.743C644.156 301.315 645.381 292.477 646.815 287.096C647.358 285.056 648.367 283.04 648.719 280.965C649.012 279.237 648.464 277.523 648.985 275.803C650.108 272.103 652.724 268.144 654.898 264.981C658.746 259.379 661.966 257.096 668.595 255.842Z" fill="#030303"/>
<path d="M685.537 275.161C686.644 275.343 687.665 275.726 688.627 276.304C690.998 277.728 692.08 278.792 692.745 281.523C693.014 282.63 693.129 283.299 693.902 284.182C697.514 285.478 704.719 281.754 708.269 280.487C710.95 283.481 712.898 286.119 714.465 289.809C711.587 296.153 708.397 299.197 702.838 303.295C700.444 305.06 695.185 310.014 692.504 310.416C686.881 307.285 680.577 297.638 678.55 291.484C677.264 287.58 676.949 282.68 679.056 278.992C679.885 277.541 680.627 277.022 682.237 276.648C683.179 276.429 683.853 276.209 684.685 275.699C684.972 275.524 685.253 275.34 685.537 275.161Z" fill="#E8E7D1"/>
<path d="M707.356 237.576C707.664 237.563 707.971 237.54 708.279 237.538C718.754 237.47 777.128 247.167 781.943 253.43C783.832 255.888 782.001 259.402 781.596 262.09C780.96 266.306 776.985 270.873 776.915 274.776C776.905 275.341 776.912 275.858 776.829 276.421C774.534 291.761 771.652 307.008 768.189 322.127C767.295 325.922 766.054 329.635 765.15 333.43C763.394 340.794 762.328 348.561 759.781 355.692C758.725 358.645 757.322 362.503 754.652 364.318C748.819 368.286 734.637 362.593 727.96 361.493L727.056 361.349C722.174 360.943 711.108 359.879 707.805 356.17C706.772 355.01 706.645 353.912 706.822 352.438C707.076 350.316 707.878 348.277 709.702 347.041C715.589 343.05 735.485 350.472 742.994 351.693C744.362 351.915 745.459 351.878 746.639 351.087C749.525 345.987 751.873 325.951 753.141 319.353C754.41 312.754 756.314 306.256 757.761 299.691C758.745 295.223 759.165 290.659 760.191 286.197C761.378 281.032 766.604 264.81 766.187 260.55C757.836 258.464 749.062 257.666 740.604 255.977C733.701 254.599 727.042 252.336 720.184 250.831C716.821 250.094 709.288 249.685 706.768 247.631C705.755 246.805 705.223 245.438 705.127 244.164C704.934 241.594 705.618 239.454 707.356 237.576Z" fill="#030303"/>
<path d="M639.25 224.852C639.387 224.813 639.518 224.738 639.661 224.734C643.589 224.631 661.776 229.444 664.668 231.834C666.055 232.979 667.252 234.666 667.174 236.542C667.102 238.252 666.079 239.677 664.712 240.608C659.537 244.134 646.909 239.189 640.931 238.361L640.303 238.28C639.072 248.508 637.408 258.654 636.118 268.858C635.108 276.851 634.628 284.92 633.534 292.901C632.789 298.337 626.652 326.15 627.951 329.122C628.298 329.915 629.934 330.605 630.722 330.883C640.38 334.301 651.028 334.524 660.793 338.141C661.36 338.343 661.902 338.569 662.431 338.856C664.087 339.751 665.877 341.707 666.155 343.657C666.297 344.651 666.183 345.49 665.381 346.161C663.555 347.69 659.969 347.759 657.737 347.67C651.982 347.443 618.662 340.412 615.34 336.637C613.761 334.843 614.147 332.257 614.325 330.007C615.323 317.391 618.852 304.599 621.009 292.124C622.87 281.361 623.488 270.383 625.445 259.576C626.999 250.987 629.858 242.44 630.551 233.702L630.973 228.716C633.599 225.95 635.452 225.122 639.25 224.852Z" fill="#030303"/>
<path d="M677.255 234.545C680.017 234.897 682.895 234.621 685.69 234.872C687.839 235.066 689.709 235.709 691.038 237.489C692.032 238.822 692.335 241.133 691.949 242.717C691.606 244.123 689.806 244.893 688.65 245.565C688.49 245.595 688.33 245.622 688.17 245.654C686.629 245.961 685.502 245.943 683.969 245.664C680.687 245.066 675.591 243.676 673.945 240.42C673.401 239.342 673.4 238.342 673.875 237.243C674.544 235.695 675.825 235.171 677.255 234.545Z" fill="#030303"/>
<path d="M682.924 342.079C683.873 342.216 684.82 342.373 685.763 342.549C688.446 343.058 690.741 343.734 692.174 346.296C692.924 347.637 693.077 349.164 692.507 350.601C691.788 352.414 690.306 353.194 688.583 353.844C687.119 353.734 685.63 353.651 684.176 353.444C680.884 352.976 679.62 351.647 677.612 349.079C679.033 346.129 680.406 344.223 682.924 342.079Z" fill="#030303"/>
<path d="M172.459 45.6643C173.445 42.9333 175.422 39.9193 178.182 38.7093C179.652 38.0653 181.44 38.1603 182.894 38.8053C184.398 39.4733 185.527 40.7303 186.084 42.2753C186.6 43.7073 186.551 45.3633 185.733 46.6783C184.34 48.9183 181.037 49.3753 178.623 49.6433C177.378 49.7823 176.146 49.6083 174.921 49.3873C174.903 49.3213 174.906 49.2453 174.866 49.1903C173.995 48.0113 173.219 46.9503 172.459 45.6643Z" fill="#030303"/>
<defs>
<linearGradient id="paint0_linear_1_69" x1="668.877" y1="171.187" x2="662.561" y2="185.088" gradientUnits="userSpaceOnUse">
<stop stop-color="#BEE1B8"/>
<stop offset="1" stop-color="#EFF9D2"/>
</linearGradient>
</defs>
</svg>
