<svg width="828" height="847" viewBox="0 0 828 847" fill="none" xmlns="http://www.w3.org/2000/svg">
<path d="M441.033 71.4096C445.951 70.9856 450.996 71.6156 455.915 71.8996C465.412 72.4476 474.733 72.8696 484.113 74.6556C493.109 76.3696 501.779 79.1806 510.658 81.3456C517.944 83.1226 524.921 84.1856 532.015 86.9496C538.91 89.6356 545.05 93.6076 551.532 97.1016C554.434 98.6656 557.539 99.8696 560.511 101.304C570.844 106.292 591.945 115.589 595.648 127.453C596.317 129.594 596.302 132.253 595.573 134.375C592.931 142.08 587.529 149.667 583.92 157.055C580.049 164.982 576.811 173.197 573.085 181.186C568.998 189.949 564.398 198.721 560.006 207.345C560.495 208.246 560.852 208.483 561.734 208.981C564.745 210.678 568.408 211.601 571.575 213.053C577.938 215.972 589.636 222.684 595.059 226.988C599.183 230.261 603.384 234.594 603.835 240.104C604.319 246.017 600.871 251.083 597.278 255.395C586.878 259.524 578.152 259.719 567.256 258.655C566.455 258.577 565.424 258.555 564.809 259.089C565.127 259.271 565.507 259.5 565.837 259.633C566.507 259.902 567.186 260.045 567.823 260.397C571.948 262.679 576.677 270.061 577.996 274.37C580.335 282.007 578.181 290.515 574.555 297.347C568.339 309.06 562.894 309.477 551.438 312.989C549.661 316.825 551.191 329.824 551.014 334.828C550.839 339.748 550.354 344.68 549.94 349.586C556.765 353.766 562.776 359.874 569.319 364.594C573.251 367.43 577.472 369.858 581.355 372.759C596.634 384.171 616.005 400.959 627.241 416.356C633.81 425.358 639.193 435.402 645.001 444.902C647.176 448.46 649.75 451.759 651.854 455.367C654.349 459.642 656.064 464.388 657.905 468.973C666.12 489.432 668.574 505.022 669.498 526.897C669.724 532.23 670.164 537.626 670.057 542.962C669.81 555.289 668.255 567.634 667.859 579.942C667.383 594.806 668.56 610.941 664.611 625.448C664.537 625.719 664.452 625.986 664.379 626.256C663.487 629.55 661.71 632.175 659.915 635.046C661.754 641.072 661.766 646.939 661.487 653.17C674.875 661.241 687.107 681.724 691.859 696.384L712.843 695.209C715.679 696.596 718.86 698.405 720.221 701.407C723.688 709.046 731.229 769.302 731.067 780.243C731.033 782.482 730.653 784.558 729.777 786.625C728.734 789.086 727.562 791.046 724.961 791.986C717.155 794.807 708.779 795.93 700.641 797.428L659.549 804.583C642.94 807.558 626.748 811.976 609.944 813.965C604.174 814.648 597.741 815.174 592.002 814.154C593.054 819.63 595.34 826.437 592.602 831.687C590.571 835.581 585.537 837.318 581.52 838.453C573.256 840.79 564.564 841.973 556.098 843.355C534.909 846.813 510.9 850.853 491.114 839.663C485.396 836.429 480.745 831.368 479.162 824.872C478.347 821.528 477.811 816.291 479.811 813.236C481.801 810.197 485.687 809.787 488.951 809.15C495.411 814.647 492.822 815.657 496.667 820.783C498.704 821.827 499.904 821.825 502.116 821.339C504.292 820.862 506.498 820.819 508.658 820.309C517.735 818.165 524.347 809.58 529.043 802.132C526.305 795.35 522.458 789.186 519.446 782.538C513.39 769.171 508.213 755.536 502.457 742.062C500.615 737.751 498.322 733.638 496.5 729.322C494.3 724.111 489.931 707.694 486.987 704.426C484.68 701.866 474.863 703.177 471.345 702.898C457.942 701.836 445.794 693.801 437.211 683.838C433.644 688.162 430.994 692.303 426.308 695.595C423.165 697.802 416.275 699.726 414.291 702.562C414.476 711.255 420.114 729.408 422.168 738.854C424.594 750.008 426.143 761.494 428.283 772.736C428.64 774.61 429.089 776.538 429.194 778.445C429.4 782.205 428.388 787.701 429.613 791.151C432.743 799.963 438.43 811.939 436.752 821.447C436.153 824.84 434.183 827.445 431.285 829.248C423.341 834.189 411.974 833.273 402.982 834.449C390.898 836.029 380.077 838.505 367.697 838.383C361.206 838.319 354.934 837.276 348.609 835.853C338.156 833.502 325.375 828.058 319.567 818.522C317.891 815.77 316.093 811.915 317.076 808.629C317.972 805.639 320.554 804.027 323.12 802.603L323.777 802.245L324.213 802.146C328.692 803.719 330.714 806.998 332.814 811.022C337.017 811.999 340.289 812.659 344.602 811.773C353.574 809.93 361.332 804.415 366.376 796.923C361.596 783.34 355.641 770.303 351.38 756.49C348.085 745.808 345.42 734.912 342.232 724.209C340.975 719.987 338.685 716.057 337.488 711.83C335.65 705.34 335.29 699.457 332.147 693.283C327.893 691.044 323.481 688.536 319.874 685.333C313.749 679.893 309.448 671.547 307.268 663.736C303.933 651.784 304.052 634.774 303.291 622.161C302.986 617.109 302.129 612.125 301.734 607.086C300.901 596.463 300.621 585.317 301.084 574.674C301.444 566.387 301.806 557.932 302.415 549.665C302.683 546.016 304.131 540.257 303.313 536.739C303.243 536.441 303.266 536.054 303.023 535.867C302.56 535.512 282.772 539.57 279.76 539.496C267.718 539.199 254.116 536.959 242.695 533.04C238.534 531.612 234.57 529.613 230.489 527.973C224.085 525.399 217.83 522.99 211.686 519.8C201.886 514.711 182.277 501.922 173.98 494.824C157.262 480.521 111.769 426.555 105.695 407.353C107.426 402.228 110.06 399.138 113.838 395.437C102.129 389.793 101.858 383.928 93.3094 377.353C89.9864 377.369 86.6634 377.346 83.3414 377.286C80.5895 375.86 78.1314 374.204 76.1024 371.829C72.4904 367.603 70.5244 361.571 70.9154 356.005C70.9924 354.903 71.0275 353.8 71.0765 352.697C70.0604 351.119 64.3124 349.799 62.2544 348.81C56.5034 346.045 57.2454 338.896 54.5024 334.16C51.2364 328.522 45.4664 325.686 43.3694 318.977C39.7284 307.33 49.4384 306.099 53.3834 297.994C53.4834 297.789 53.5784 297.582 53.6764 297.376C48.4384 291.045 41.3484 282.396 39.1044 274.47C38.2504 271.455 38.5324 268.416 40.0854 265.676C43.6724 259.346 52.2914 255.501 59.0374 253.767C56.0974 249.839 51.8034 242.861 51.0594 238.043C50.8254 236.529 50.9964 235.39 51.9524 234.151C53.2904 233.359 54.5734 232.838 56.1474 232.718C57.7605 232.595 59.2314 233.156 60.3994 234.283C64.6244 238.364 64.9044 246.034 64.8684 251.501C66.1324 251.721 67.3084 251.062 68.5064 250.621C71.4434 249.539 74.2694 249.003 77.3914 249.706C79.4444 250.168 81.1164 251.09 82.4854 252.693C87.1824 258.194 90.1294 265.888 93.5584 272.247C97.9254 280.348 102.654 288.417 107.534 296.221C110.444 292.926 113.464 289.582 116.948 286.881C121.754 283.153 127.487 281.21 133.58 282.106C140.234 283.085 147.484 286.73 152.931 290.59C166.867 300.464 172.182 314.91 172.029 331.663C171.992 335.797 170.467 344.019 172.991 347.506C173.229 347.481 173.466 347.444 173.705 347.431C176.651 347.273 179.078 351.757 180.525 353.989C184.553 360.206 186.569 367.692 189.881 374.324C196.433 387.447 212.155 407.636 223.421 416.802C234.432 425.76 247.378 434.712 262.249 433.104C266.666 432.626 272.217 431.368 275.886 428.761C280.559 425.44 284.599 420.722 288.613 416.649C298.271 406.847 307.701 396.379 317.761 387.026C322.914 382.236 328.164 377.339 333.577 372.853C338.674 368.629 350.919 359.999 354.421 355.276C354.557 355.093 355.11 354.269 355.133 354.108C355.35 352.58 352.309 344.028 351.679 342.031C349.125 333.932 347.059 326.133 345.836 317.712C333.904 312.797 319.115 303.977 313.433 291.798C308.905 282.095 306.597 271.105 310.533 260.82C312.524 255.617 316.853 250.98 322.03 248.848C326.013 247.207 330.471 246.96 334.47 248.708C343.835 252.799 331.6 263.134 334.823 269.448C335.79 271.342 338.095 272.301 340.081 272.683C342.111 273.074 343.848 272.62 345.539 271.467C351.848 254.188 355.144 236.151 362.161 219.097C363.408 216.065 364.685 212.982 366.235 210.09C368.051 206.701 373.162 201.167 373.376 197.546C373.735 191.474 355.355 193.208 348.951 185.835C344.657 180.891 342.598 172.831 343.193 166.35C343.496 163.048 344.65 159.421 347.402 157.34C356.613 150.369 395.714 160.266 407.272 162.108C408.367 161.237 409.086 160.055 409.644 158.785C413.335 150.384 416.192 139.11 418.939 130.276C422.346 119.317 426.24 108.889 428.901 97.6886C430.192 92.2516 430.79 80.7766 433.033 76.7256C434.791 73.5516 437.692 72.3466 441.033 71.4096Z" fill="#060605"/>
<path d="M552.307 369.851C556.611 373.202 561.881 375.316 566.345 378.544C572.052 382.671 577.271 387.359 582.633 391.911C595.263 402.635 607.41 413.587 617.523 426.836C628.432 441.129 644.671 468.472 650.161 485.413C658.132 510.006 657.84 544.303 655.997 570.074C655.644 575.005 655.54 580.134 654.815 585.021C654.707 585.747 654.613 587.26 653.946 587.644C648.508 590.768 610.323 587.137 603.011 585.608C603.147 579.605 603.844 573.62 603.856 567.612C603.887 552.932 600.645 524.337 595.696 510.625C594.1 506.204 591.376 502.138 589.503 497.806C587.126 492.306 585.046 485.344 580.978 480.868C579.534 479.279 577.599 477.959 575.36 478.061C573.445 478.148 571.825 479.306 570.622 480.719C567.818 484.01 566.637 488.699 565.578 492.8C560.702 511.679 560.827 532.376 562.176 551.782C562.517 556.696 563.371 561.568 563.762 566.477C565.148 583.871 566.768 601.318 567.678 618.74C568.024 625.067 568.459 631.437 568.507 637.772C568.594 649.251 567.358 660.482 571.24 671.513C544.092 681.21 516.521 687.679 487.649 689.078C482.606 689.322 477.459 689.794 472.416 689.474C463.089 688.884 455.112 684.367 449.051 677.37C444.612 672.246 441.853 666.472 440.169 659.933C434.997 639.851 435.974 618.678 435.05 598.111C434.549 586.965 432.872 575.904 432.337 564.752C431.976 557.241 432.34 549.767 432.281 542.258C432.211 533.351 431.585 524.401 432.043 515.501C432.331 509.904 433.386 504.409 433.784 498.826C446.717 491.361 459.169 483.059 472.16 475.677C486.987 467.252 502.645 460.021 517.297 451.333C520.401 449.494 524.576 447.534 526.622 444.525C530.276 439.151 519.666 421.449 518.539 414.6L518.43 413.905C525.6 416.984 533.595 416.301 540.91 418.66C543.087 417.368 544.9 416.179 546.678 414.331C547.339 399.381 550.338 384.652 552.307 369.851Z" fill="#32BC76"/>
<path d="M516.479 481.046C521.556 480.72 528.018 479.737 532.121 483.456C533.887 485.058 534.768 487.285 534.831 489.649C534.922 493.123 533.355 496.448 530.958 498.904C523.855 506.183 513.624 503.928 504.504 504.141C499.318 504.228 493.755 504.961 489.249 501.799C486.981 500.233 485.445 497.815 484.992 495.096C484.431 491.842 485.327 488.292 487.299 485.654C488.58 483.94 490.311 482.612 492.365 481.968C493.48 481.618 494.886 481.846 496.027 481.93C502.947 482.435 509.614 481.958 516.479 481.046Z" fill="#DFDFD0"/>
<path d="M460.71 594.075C469.937 593.967 477.488 601.392 477.536 610.62C477.583 619.848 470.109 627.351 460.881 627.338C451.738 627.325 444.319 619.934 444.272 610.791C444.225 601.648 451.567 594.181 460.71 594.075Z" fill="#060605"/>
<path d="M457.811 605.014C458.041 605.021 458.271 605.021 458.501 605.034C460.813 605.159 462.259 605.444 463.818 607.277C464.902 608.551 465.647 609.965 465.356 611.701C465.037 613.6 463.909 614.511 462.382 615.416C459.604 614.891 457.912 613.48 456.166 611.294C455.146 610.017 454.795 608.861 454.948 607.217C455.852 605.87 456.389 605.722 457.811 605.014Z" fill="#32BC76"/>
<path d="M457.605 548.111C461.356 548.466 464.14 549.344 467.143 551.748C471.113 554.924 474.281 560.036 474.641 565.177C474.91 569.02 473.728 573.208 471.133 576.109C467.794 579.844 463.943 580.329 459.247 580.613C459.218 580.622 459.189 580.636 459.159 580.64C456.006 581.149 452.478 580.387 449.812 578.599C445.988 576.036 443.485 571.419 442.742 566.95C442.018 562.587 442.773 558.03 445.441 554.441C448.406 550.453 452.815 548.695 457.605 548.111Z" fill="#060605"/>
<path d="M454.643 558.535C455.757 558.854 456.753 559.272 457.719 559.915C459.563 561.143 461.416 562.723 461.524 565.126C461.606 566.92 460.512 567.636 459.413 568.846C458.721 568.876 458.018 568.7 457.334 568.592C455.58 567.319 454.488 566.007 453.87 563.889C453.189 561.554 453.531 560.585 454.643 558.535Z" fill="#32BC76"/>
<path d="M450.426 498.946C453.662 498.87 456.776 498.886 459.759 500.333C464.546 502.676 468.154 506.891 469.73 511.982C470.938 515.771 471.086 520.015 469.14 523.591C466.847 527.805 463.088 529.349 458.787 530.743C455.567 531.054 452.407 531.131 449.3 530.065C445.203 528.661 441.875 525.616 440.114 521.66C438.233 517.479 438.23 512.305 440.001 508.085C442.036 503.235 445.79 500.866 450.426 498.946Z" fill="#060605"/>
<path d="M452.349 510.19C453.113 510.339 453.823 510.466 454.481 510.913C456.067 511.989 458.014 514.047 458.096 516.074C458.159 517.644 457.219 518.092 456.188 519.086C454.224 518.865 452.212 518.098 450.869 516.579C450.023 515.621 449.411 514.451 449.67 513.124C449.987 511.501 451.12 511.045 452.349 510.19Z" fill="#32BC76"/>
<path d="M563.915 446.439C565.882 446.314 567.248 446.302 569.051 447.141C570.034 448.317 570.124 448.529 570.362 450.044C568.223 454.255 564.515 458.028 561.784 461.906C559.02 465.832 556.676 470.159 553.754 473.955C552.836 475.148 551.66 476.157 550.526 477.137C549.576 477.324 548.896 477.433 547.928 477.224C546.54 476.925 545.167 476.223 544.535 474.902C543.561 472.865 544.488 469.881 545.266 467.939C548.34 460.262 556.174 449.603 563.915 446.439Z" fill="#060605"/>
<path d="M310.321 413.633C314.345 407.046 325.418 397.627 331.315 391.824C335.822 387.389 339.96 382.601 344.718 378.418C346.721 376.656 348.842 375.208 351.101 373.8C350.908 374.303 350.721 374.81 350.54 375.318C348.91 379.805 343.049 396.117 345.361 400.014C348.106 404.641 360.036 405.276 364.986 406.676C360.835 416.391 356.145 423.677 352.963 434.105C360.262 453.072 392.331 475.728 408.509 488.365C410.012 489.538 411.521 490.795 413.158 491.777C414.636 492.664 421.301 495.093 421.705 496.213C423.017 499.863 421.29 507.51 420.861 511.465C420.024 519.2 420.555 527.475 420.675 535.258C421.518 571.734 423.012 608.191 425.159 644.613C425.603 652.603 429.407 667.855 427.798 674.763C427.744 674.995 427.688 675.226 427.625 675.456C427.498 675.927 427.341 676.389 427.155 676.841C424.682 682.893 417.874 687.111 412.019 689.455C403.314 692.941 396.325 691.572 387.321 691.309C382.159 691.157 376.984 691.497 371.827 691.085C362.572 690.345 345.533 686.475 337.024 682.772C332.625 680.858 328.985 678.213 326.762 673.861C321.115 662.804 320.591 644.512 319.516 632.027C318.673 622.229 317.157 612.483 316.593 602.667C315.116 571.601 316.107 540.465 319.558 509.555C320.422 501.81 321.093 493.935 322.52 486.271C324.935 473.293 328.2 460.178 331.497 447.394C333.398 440.026 335.913 432.396 336.953 424.853C337.236 422.798 337.616 419.334 336.566 417.417C335.903 416.207 335.51 416.095 334.303 415.597C333.515 415.651 332.883 415.704 332.203 416.166C324.85 421.16 310.763 475.798 308.88 485.893C307.844 491.447 306.733 497.04 306.02 502.644C305.203 509.073 304.956 515.444 303.169 521.717L302.998 522.299C286.502 524.586 271.848 526.296 255.338 522.355C240.209 518.744 223.379 510.879 210.22 502.69C205.905 500.005 202.049 496.71 197.983 493.679C188.488 486.601 179.011 479.651 170.394 471.471C163.38 464.814 156.886 457.483 150.545 450.189C144.758 443.531 138.758 436.989 134.162 429.427C150.288 421.35 161.898 408.935 174.772 396.719C178.216 393.743 180.526 390.608 182.825 386.704L183.393 387.381C187.792 392.676 191.18 398.747 195.379 404.218C209.046 422.026 232.192 446.636 255.757 448.954C266.375 449.998 275.261 446.421 283.347 439.69C290.071 434.093 295.897 427.575 302.106 421.448C304.762 418.828 308.085 416.604 310.321 413.633Z" fill="#32BC76"/>
<path d="M182.825 386.704L183.393 387.381C187.792 392.676 191.18 398.747 195.379 404.218C209.046 422.026 232.192 446.636 255.757 448.954C266.375 449.998 275.261 446.421 283.347 439.69C290.071 434.093 295.897 427.575 302.106 421.448C304.762 418.828 308.085 416.604 310.321 413.633C311.252 413.68 311.98 413.79 312.874 414.091C314.937 414.786 316.964 416.416 317.866 418.415C318.937 420.786 318.625 423.343 317.546 425.652C316.223 428.483 313.136 431.296 311.065 433.645C308.529 436.521 306.146 439.597 303.404 442.277C294.945 450.543 283.088 458.532 272.073 462.849C261.136 467.135 249.487 465.493 238.905 460.821C223.612 454.071 204.759 438.071 193.981 425.219C191.175 421.873 189.18 417.827 186.532 414.339C182.22 408.658 177.408 403.436 174.772 396.719C178.216 393.743 180.526 390.608 182.825 386.704Z" fill="#94E1B6"/>
<path d="M352.489 454.375C353.051 454.379 353.577 454.364 354.138 454.456C355.322 454.649 356.337 455.153 356.991 456.189C357.654 457.237 357.906 458.673 357.935 459.896C357.994 462.434 357.452 464.999 357.353 467.539L356.047 498.435C355.498 511.525 354.632 524.667 354.518 537.766C354.304 562.232 355.629 590.774 357.997 615.251C358.607 621.561 360.76 630.502 359 636.562C358.549 638.118 357.63 639.353 356.183 640.117C353.554 641.505 351.238 640.775 348.665 639.752C348.193 639.236 347.755 638.764 347.422 638.143C345.249 634.098 344.714 618.922 344.259 613.723C343.58 605.978 342.029 598.363 341.47 590.618C341.163 586.371 341.335 582.107 341.132 577.856C339.356 544.233 340.276 510.521 343.884 477.045C344.393 472.529 344.95 461.837 346.802 457.999C347.884 455.758 350.331 455.209 352.489 454.375Z" fill="#94E1B6"/>
<path d="M393.767 592.076C396.288 591.591 400.023 592.031 402.397 592.985C406.441 594.609 409.483 597.828 411.135 601.834C412.983 606.308 413.252 612.158 411.208 616.612C409.492 620.354 407.359 621.557 403.612 622.929C398.28 622.77 394.024 622.438 389.569 619.083C385.5 616.018 383.497 611.805 382.925 606.808C382.49 603.003 382.791 598.91 385.323 595.847C387.631 593.055 390.283 592.371 393.767 592.076Z" fill="#060605"/>
<path d="M395.11 601.828C396.173 601.805 397.296 601.751 398.322 602.077C399.443 602.433 400.53 603.277 400.956 604.402C401.684 606.326 400.875 608.358 400.132 610.128C398.237 609.989 396.775 609.78 395.247 608.566C394.221 607.751 393.564 606.741 393.526 605.393C393.479 603.754 394.129 602.99 395.11 601.828Z" fill="#94E1B6"/>
<path d="M387.092 500.349C390.017 500.093 392.864 500.158 395.631 501.223C400.155 502.965 404.007 506.708 405.925 511.156C407.37 514.506 407.427 518.143 406.042 521.527C404.296 525.794 401.057 528.397 396.894 530.103C395.161 530.539 393.555 530.807 391.76 530.7C387.6 530.452 383.925 528.789 381.221 525.586C376.738 520.274 376.969 514.425 377.356 507.935C380.394 504.528 382.896 502.235 387.092 500.349Z" fill="#060605"/>
<path d="M390.268 512.104C392.139 512.482 393.627 512.943 394.787 514.537C395.172 516.063 394.871 516.814 394.322 518.207C394.036 518.235 393.752 518.305 393.465 518.29C392.443 518.236 391.476 517.267 390.926 516.503C389.944 515.139 390.066 513.668 390.268 512.104Z" fill="#32BC76"/>
<path d="M394.358 543.878C396.865 543.262 400.407 544.722 402.596 545.874C406.032 547.682 408.903 550.961 410.01 554.706C411.038 558.182 410.725 562.311 408.886 565.469C406.399 569.738 402.175 570.965 397.731 572.211C394.529 572.139 391.561 571.757 388.638 570.321C385.191 568.661 382.614 565.611 381.553 561.936C380.542 558.354 380.834 554.234 382.737 550.991C385.264 546.682 389.748 545.011 394.358 543.878Z" fill="#060605"/>
<path d="M394.956 555.796C396.019 554.833 397.652 554.881 398.656 555.905C399.66 556.929 399.675 558.563 398.691 559.606C398.019 560.318 397.012 560.605 396.066 560.354C395.12 560.104 394.387 559.356 394.155 558.405C393.924 557.454 394.231 556.453 394.956 555.796Z" fill="#32BC76"/>
<path d="M392.025 196.411C400.257 196.149 408.492 198.016 416.59 199.329C439.666 202.988 462.486 208.115 484.91 214.677C492.604 216.984 500.017 220.173 507.679 222.563C513.427 224.357 521.19 224.812 526.318 227.786C527.61 228.536 528.671 229.384 529.245 230.807C530.32 233.474 529.068 255.279 530.921 262.115C531.316 263.572 531.972 265.217 533.196 266.192C536.261 268.633 550.307 262.672 558.945 268.046C562.348 270.163 564.621 273.525 565.402 277.452C566.385 282.392 565.791 288.603 562.837 292.809C558.099 299.555 551.111 299.185 544.006 300.755C541.714 301.262 539.363 302.275 538.134 304.393C537.204 305.997 537.21 307.283 537.731 309.041C539.137 313.787 538.556 336.964 536.989 341.772C535.378 346.712 519.316 357.224 514.319 359.633C489.847 371.425 443.558 368.559 417.738 361.64C412.385 360.206 407.262 357.952 402.07 356.033C394.082 353.113 386.061 350.283 378.008 347.546C373.376 345.578 368.435 343.723 364.365 340.724C361.643 334.559 360.698 328.371 359.523 321.788C377.797 322.403 382.244 322.594 397.746 312.936L398.052 313.532C403.852 324.56 415.305 333.892 427.192 337.593C438.941 341.252 456.296 341.132 467.329 335.136C474.962 330.989 481.243 323.51 483.515 315.075C485.835 306.464 484.503 296.171 479.945 288.486C478.233 285.601 475.773 282.925 472.384 282.152C469.38 281.467 466.334 282.554 463.804 284.143C462.193 285.155 460.591 286.406 460.334 288.438C459.959 291.41 462.796 294.471 464.464 296.668C462.113 299.153 460.816 300.557 457.357 301.256L456.474 301.427C455.388 301.644 454.285 301.916 453.175 301.971C445.918 302.335 445.934 287.935 444.321 283.129C442.563 277.893 439.372 272.819 435.072 269.307C427.22 262.892 417.249 262.883 407.697 263.797C407.166 263.72 407.465 263.803 406.793 263.399C402.971 261.098 397.827 259.106 393.252 259.311C387.536 259.567 376.492 264.355 371.141 266.494C367.983 267.757 364.427 269.35 360.983 269.415L360.523 268.899C362.045 265.543 362.625 260.96 363.486 257.356C366.206 245.964 368.395 233.846 373.271 223.155C376.739 215.551 381.395 209.579 386.254 202.888C387.463 201.224 388.509 198.517 390.108 197.298C390.664 196.875 391.382 196.648 392.025 196.411Z" fill="#DFDFD0"/>
<path d="M459.058 228.432C462.574 228.055 466.877 228.991 469.964 230.712C474.618 233.306 477.851 237.977 479.105 243.113C480.273 247.896 479.74 253.676 476.965 257.844C474.169 262.044 470.678 263.222 466.002 264.163C462.565 264.326 460.073 264.206 456.829 262.957C452.268 261.2 448.077 257.964 446.096 253.393C444.231 249.088 444.343 243.973 446.15 239.668C448.631 233.755 453.371 230.713 459.058 228.432Z" fill="#060605"/>
<path d="M391.395 218.431C394.309 218.121 397.879 219.132 400.344 220.691C403.812 222.885 405.919 226.593 406.827 230.521C408.04 235.774 407.217 241.541 404.288 246.102C401.287 250.773 397.414 252.397 392.24 253.533C389.818 253.553 386.75 253.576 384.565 252.437C380.289 250.209 377.276 246.451 375.99 241.793C374.607 236.782 376.196 231.141 378.856 226.825C381.983 221.752 385.806 219.696 391.395 218.431Z" fill="#060605"/>
<path d="M542.854 272.549C547.302 272.01 550.011 272.096 553.949 274.412C555.956 277.694 556.981 280.928 556.115 284.791C555.769 286.337 554.83 287.813 553.431 288.6C551.439 289.722 549.675 289.176 547.642 288.557C546.558 288.538 546.899 288.46 545.996 288.709C544.291 289.18 542.36 289.952 540.567 289.576C538.776 289.202 537.08 288.185 536.187 286.555C535.103 284.576 535.431 282.171 536.149 280.13C537.416 276.528 539.442 274.169 542.854 272.549Z" fill="#060605"/>
<path d="M698.998 708.631C700.05 708.639 701.099 708.597 702.15 708.554C702.457 708.541 702.764 708.505 703.072 708.512C704.479 708.544 705.492 709.236 706.345 710.305C707.367 711.586 708.028 713.174 708.458 714.743C709.726 719.368 709.739 724.474 710.428 729.225C711.269 735.021 712.704 740.726 713.561 746.522C714.504 752.901 714.766 759.537 715.312 765.967C715.644 769.868 716.404 774.25 715.893 778.14C715.701 779.606 715.312 781.223 713.974 782.032C710.037 784.413 661.854 792 652.964 793.685C647.368 794.745 641.878 796.274 636.298 797.396C629.385 798.785 622.339 799.798 615.363 800.826C611.349 801.417 598.422 803.649 595.05 802.396C594.829 802.458 594.612 802.536 594.388 802.582C592.982 802.866 591.134 802.772 589.915 801.942C588.466 800.955 587.82 798.054 587.352 796.381C585.118 788.392 583.894 779.984 582.264 771.847C579.828 759.633 577.144 747.47 574.213 735.366C579.93 734.645 585.711 733.023 591.314 731.676C600.826 729.389 610.346 727.03 619.882 724.854C642.942 719.591 666.074 715.483 689.435 711.835C692.386 711.375 697.061 711.07 698.998 708.631Z" fill="#DFDFD0"/>
<path d="M650.24 734.089C656.005 732.524 660.695 732.342 666.095 735.42C671.872 738.713 676.757 744.47 678.29 751.014C679.876 757.781 678.648 766.219 674.929 772.06C671.971 776.707 667.739 779.969 662.319 781.162C655.326 782.702 647.051 781.23 641.18 777.164C635.277 773.075 634.126 768.52 633.095 761.776C632.375 757.063 633.361 753.049 635.252 748.754C635.871 746.932 636.465 745.009 637.372 743.307C640.221 737.964 644.653 735.635 650.24 734.089Z" fill="#32BC76"/>
<path d="M650.24 734.089C656.005 732.524 660.695 732.342 666.095 735.42C671.872 738.713 676.757 744.47 678.29 751.014C679.876 757.781 678.648 766.219 674.929 772.06C671.971 776.707 667.739 779.969 662.319 781.162C655.326 782.702 647.051 781.23 641.18 777.164C635.277 773.075 634.126 768.52 633.095 761.776C632.375 757.063 633.361 753.049 635.252 748.754C636.955 753.666 637.554 760.506 640.058 764.853C641.856 767.973 644.666 770.303 648.178 771.205C652.677 772.361 657.324 771.081 661.128 768.574C665.772 765.513 670.426 760.428 671.399 754.831C672.082 750.905 670.908 746.951 668.634 743.734C664.288 737.587 658.262 735.795 651.209 734.711L650.495 734.607L650.24 734.089Z" fill="#060605"/>
<path d="M700.141 748.908C701.795 748.752 703.578 748.511 705.095 749.344C707.342 750.578 708.814 753.327 709.436 755.725C710.655 760.43 709.76 766.571 707.183 770.695C704.025 775.749 699.54 776.21 694.273 777.46C692.325 777.391 690.036 777.582 688.137 777.245C686.869 777.019 686.416 776.492 685.701 775.499C685.545 774.099 685.637 772.947 686.315 771.696C688.134 768.339 695.524 767.79 698.926 766.978C699.005 766.104 699.054 765.231 699.116 764.356C699.372 760.807 697.163 752.298 697.727 750.669C697.985 749.926 699.468 749.315 700.141 748.908Z" fill="#060605"/>
<path d="M596.184 769.192C597.333 769.201 598.703 769.153 599.8 769.522C605.754 771.528 602.863 779.04 605.535 782.801C607.828 786.027 622.907 783.394 627.365 784.304C628.882 784.614 629.481 785.049 630.286 786.345C630.051 788.074 629.498 788.551 628.453 789.913C626.37 789.881 624.298 790.709 622.23 790.991C615.743 791.876 606.391 792.439 600.53 789.059C596.391 782.58 595.94 776.69 596.184 769.192Z" fill="#060605"/>
<path d="M594.144 746.182C594.917 746.121 595.597 746.135 596.373 746.237C597.964 746.446 599.306 747.404 600.232 748.685C601.054 749.824 601.402 751.188 601.131 752.586C600.742 754.583 599.668 755.249 598.092 756.25C595.912 756.089 594.149 755.24 592.662 753.598C591.663 752.495 591.217 751.047 591.449 749.565C591.689 748.03 593.023 747.094 594.144 746.182Z" fill="#060605"/>
<path d="M690.33 724.788C691.866 724.962 693.723 725.697 694.756 726.917C695.681 728.011 695.888 728.831 695.773 730.252C695.584 732.578 693.748 733.837 692.082 735.176C691.47 735.298 690.838 735.426 690.211 735.347C689.058 735.201 687.884 734.419 687.269 733.438C686.377 732.015 686.475 730.193 686.847 728.626C687.33 726.588 688.695 725.854 690.33 724.788Z" fill="#060605"/>
<path d="M446.157 82.9306C466.133 81.3706 511.531 91.7636 530.421 99.3566C534.949 101.177 538.809 104.199 543.151 106.352C555.855 112.65 564.849 115.751 576.779 124.474C578.739 125.907 581.879 127.685 582.71 130.072C583.071 131.109 582.252 132.793 581.808 133.766C578.621 140.748 574.449 147.366 570.83 154.136C567.48 160.402 564.61 166.936 561.328 173.249C560.114 176.2 558.34 178.796 556.614 181.465C547.471 176.537 538.835 170.665 529.433 166.218C514.176 159.003 488.979 152.61 472.329 148.547C463.57 146.41 454.683 144.489 445.878 142.532C441.046 141.457 435.428 140.972 430.976 138.807C430.513 136.302 438.329 113.387 439.413 108.805C441.324 100.729 441.328 91.3176 443.812 83.6606L446.157 82.9306Z" fill="#32BC76"/>
<path d="M502.796 709.452C501.568 707.452 499.956 705.243 500.361 702.837C510.072 700.363 520.028 699.094 529.837 697.075C540.794 694.819 552.167 691.603 562.901 688.428C568.819 696.859 572.091 709.671 574.61 719.637C568.289 721.052 562.452 722.004 556.739 725.242C557.054 731.558 559.674 736.833 561.391 742.814C562.969 748.309 564.277 753.943 565.706 759.483C567.882 767.918 569.222 776.941 571.966 785.168C560.518 787.266 554.086 788.918 542.401 788.434C541.676 788.404 541.119 788.314 540.425 788.118L540.062 787.658C537.648 787.731 535.407 786.989 533.094 786.378C532.058 781.351 525.825 769.071 523.58 763.724C517.651 749.602 513.071 735.073 507.765 720.736C506.343 716.892 503.981 713.358 502.796 709.452Z" fill="#32BC76"/>
<path d="M507.36 712.21C507.04 710.633 506.736 710.138 507.408 708.638C509.162 707.338 511.854 707.447 513.985 707.367C518.389 716.059 520.966 725.636 524.891 734.563C528.78 743.409 532.544 752.457 536.609 761.204C539.52 767.466 543.009 773.475 545.569 779.899C544.053 782.279 543.026 783.957 540.357 785.133C539.942 784.948 539.53 784.755 539.126 784.548C536.244 783.07 534.559 779.835 533.099 777.063C526.824 765.143 522.706 751.327 517.832 738.736C514.389 729.84 510.199 721.345 507.36 712.21Z" fill="#94E1B6"/>
<path d="M532.607 702.827C533.419 702.853 533.05 702.802 533.951 703.026C535.124 703.319 535.785 704.284 536.363 705.303C539.381 710.621 542.2 720.914 544.252 727.018C549.275 741.964 554.09 757.193 560.751 771.489C561.746 773.623 564.557 778.406 563.977 780.724C562.673 782.18 561.055 782.676 559.274 783.388C557.758 782.875 556.827 782.542 555.891 781.147C549.632 771.821 545.991 758.079 542.598 747.419C538.143 733.422 533.541 718.818 526.518 705.87C528.501 704.583 530.399 703.668 532.607 702.827Z" fill="#94E1B6"/>
<path d="M347.32 698.159C350.219 699.029 353.39 699.332 356.384 699.8C370.996 702.159 385.193 703.244 400.001 702.672C405.822 711.233 418.662 776.62 417.006 786.646C415.477 788.826 413.213 789.472 410.682 789.929C404.469 791.05 383.555 791.632 378.777 787.505C378.676 787.418 378.6 787.306 378.511 787.206C374.517 784.436 372.669 774.79 371.209 770.095C361.417 746.728 356.141 721.861 347.32 698.159Z" fill="#32BC76"/>
<path d="M356.296 701.375C359.881 702.044 362.612 703.892 364.623 706.96C369.244 714.007 372.229 728.671 374.817 737.055C377.437 745.543 388.477 774.699 386.373 782.016C385.989 783.352 385.037 784.352 383.786 784.921C382.29 785.601 380.758 785.652 379.146 785.584L378.511 787.206C374.517 784.436 372.669 774.79 371.209 770.095C371.611 767.83 371.528 765.547 371.985 763.253C370.149 758.007 369.317 752.344 367.614 747.002C364.297 736.598 355.482 716.85 355.27 706.582C355.234 704.796 355.788 703.067 356.296 701.375Z" fill="#94E1B6"/>
<path d="M371.985 763.253C375.274 770.316 375.849 778.528 379.146 785.583L378.511 787.206C374.517 784.436 372.669 774.789 371.209 770.094C371.611 767.829 371.528 765.547 371.985 763.253Z" fill="#32BC76"/>
<path d="M382.706 706.136C383.511 706.131 384.079 706.229 384.861 706.479C386.596 707.033 387.65 708.242 388.397 709.839C390.797 714.965 391.669 720.96 392.924 726.448C396.36 741.474 400.328 765.107 407.103 778.278C406.008 780.653 405.054 782.934 403.26 784.885C402.627 785.041 402.218 785.175 401.576 785.218C399.878 785.332 398.083 784.689 396.91 783.439C395.386 781.816 394.671 778.224 394.087 776.099C391.728 767.516 390.29 758.684 388.297 750.011C386.171 740.754 379.646 718.336 379.718 710.684C379.737 708.753 381.45 707.421 382.706 706.136Z" fill="#94E1B6"/>
<path d="M575.492 498.689C575.958 499.045 576.378 499.437 576.756 499.888C578.455 501.913 579.675 507.339 580.869 510.047C591.139 533.336 591.655 569.11 589.086 594.312C588.014 604.831 585.529 614.886 585.021 625.532C585.82 626.947 586.901 629.454 588.191 630.381C590.279 631.882 595.966 629.576 598.647 629.811C604.69 630.341 612.114 633.215 619.538 633.901C626.114 634.508 632.835 634.743 639.438 634.995C642.049 635.095 644.928 634.281 647.422 635.105C647.667 635.648 647.748 635.757 647.867 636.429C648.536 640.231 647.352 644.471 647.556 648.357C647.781 652.666 649.075 656.985 648.897 661.298C648.842 662.63 648.7 663.992 647.845 665.066C646.501 666.754 640.872 666.971 638.77 667.254C637.185 666.202 635.952 665.094 634.656 663.704C634.6 663.594 634.565 663.47 634.489 663.373C633.842 662.54 633.116 661.915 632.089 661.922C629.101 663.814 629.628 666.881 628.031 669.562C625.218 671.022 620.492 669.205 617.569 668.511C616.884 667.187 616.169 665.859 615.241 664.686C614.3 663.498 613.447 663.018 611.967 662.825C610.264 663.916 609.67 665.862 608.726 667.569C607.956 668.961 607.334 669.292 605.835 669.704C602.782 668.942 600.731 666.623 599.003 664.128C598.541 657.579 597.866 652.052 595.243 645.966C588.258 643.004 592.576 639.117 589.233 634.798C586.412 634.183 583.301 636.759 581.002 638.197C579.267 627.807 579.965 610.661 579.273 599.346C578.609 588.505 577.739 577.41 576.633 566.612C576.291 563.271 575.472 559.977 575.222 556.623C573.786 537.359 574.364 517.929 575.492 498.689Z" fill="#DFDFD0"/>
<path d="M660.403 668.734C661.35 668.844 661.276 668.766 662.099 669.1C669.445 672.079 679.29 692.632 682.235 699.826C675.471 702.009 667.926 703.146 660.969 704.704C640.488 709.293 619.64 712.968 599.323 718.158C595.877 719.381 590.574 720.487 586.911 720.295C586.825 720.177 586.72 720.07 586.652 719.94C584.344 715.525 593.508 684.901 595.041 678.581C599.201 679.688 603.127 681.146 607.131 682.705C612.563 680.87 618.706 681.01 624.213 682.388C627.532 680.845 630.785 679.117 634.055 677.47C636.692 678.427 639.282 679.253 642.087 679.528C651.311 680.432 653.457 673.915 659.633 669.287C659.886 669.098 660.146 668.918 660.403 668.734Z" fill="#DFDFD0"/>
<path d="M324.183 259.826C325.214 263.522 320.246 266.745 324.546 275.405C327.125 280.599 331.602 284.071 337.078 285.795C352.551 290.663 364.475 281.944 377.682 275.131C379.379 274.256 382.048 272.562 383.948 272.419C385.097 272.332 386.976 274.72 387.659 275.532C391.341 279.91 395.383 286.073 400.933 288.238C403.351 289.18 405.98 289.487 408.411 290.392C411.21 291.434 413.899 293.041 416.78 293.838C418.264 294.249 420.069 294.234 421.371 293.353C422.139 292.832 422.535 291.952 422.686 291.054C423.635 285.387 420.055 279.387 416.694 275.086C416.614 274.984 416.53 274.884 416.448 274.784L416.872 274.35L417.145 274.541C417.676 274.376 417.701 274.343 418.35 274.293C422.835 273.948 429.098 277.435 432.217 280.579C437.388 285.792 435.791 291.295 435.994 297.818C436.126 302.049 437.058 305.871 440.336 308.768C445.52 313.346 451.821 314.028 458.396 313.702C464.339 314.442 469.272 306.71 472.147 306.541C472.155 310.089 470.37 314.398 468.236 317.168C464.383 322.167 458.862 324.162 452.788 324.811C438.635 326.324 423.268 320.956 413.568 310.472C409.849 306.452 406.574 301.317 402.211 298.02C395.023 292.587 382.592 303.112 374.153 304.29C360.003 306.264 345.168 303.718 333.604 294.913C326.612 289.589 321.474 282.148 320.478 273.241C319.929 268.333 321.171 263.724 324.183 259.826Z" fill="#32BC76"/>
<path d="M366.181 358.16C369.139 358.542 373.135 359.595 375.044 362.081C378.762 366.924 382.61 381.317 384.823 387.529C386.768 392.989 389.182 398.281 391.251 403.697C400.62 428.228 410.727 455.416 430.114 473.922C427.759 477.465 425.017 480.442 422.132 483.546L412.928 476.405C407.873 471.95 402.6 467.738 397.591 463.233C387.004 453.712 376.752 443.721 366.536 433.804C369.49 427.176 381.812 407.672 381.134 401.774C380.141 393.143 363.589 393.988 358.72 389.97C359.962 381.728 362.415 373.95 364.445 365.898C365.121 363.215 365.218 360.841 366.181 358.16Z" fill="#32BC76"/>
<path d="M356.413 167.292C366.507 167.289 376.495 168.895 386.478 170.166C410.523 173.223 434.358 177.75 457.849 183.722C471.262 187.256 484.452 191.828 497.745 195.786C505.394 198.063 513.433 199.442 520.951 202.06C533.46 206.414 544.994 212.574 556.915 218.194C563.69 221.389 571.309 223.99 577.588 228.074C581.832 230.835 585.368 234.393 589.012 237.876C588.316 239.722 587.559 241.55 586.831 243.384C581.656 246.756 575.588 239.059 571.902 236.086C570.118 234.647 568.317 233.691 566.286 232.675C535.554 217.293 497.474 202.334 463.944 194.711C446.754 190.803 429.267 188.544 411.91 185.584C393.18 182.39 377.705 179.188 358.501 177.985C357.716 176.87 357.007 175.623 356.472 174.367C355.501 172.088 355.593 169.582 356.413 167.292Z" fill="#32BC76"/>
<path d="M538.186 360.202C538.591 360.203 539.086 360.365 539.485 360.451C540.7 364.203 535.14 387.598 534.343 392.602C533.691 396.698 533.316 400.805 533.015 404.94C532.804 404.863 532.591 404.793 532.383 404.709C528.1 402.972 512.503 402.043 507.606 402.393C506.283 402.487 505.424 402.915 504.529 403.895C501.722 411.641 508.744 429.737 511.105 437.735C491.357 448.356 471.93 460.527 453.178 472.825C450.089 474.626 446.996 476.279 443.768 477.819C450.763 465.765 462.153 456.616 470.217 445.442C479.31 432.844 488.584 420.192 497.062 407.177L511.265 385.827C513.615 382.229 515.744 377.995 518.561 374.768C523.384 369.242 532.23 364.961 538.186 360.202Z" fill="#32BC76"/>
<path d="M124.358 296.52C129.322 295.963 133.787 296.408 138.319 298.64C145.861 302.356 151.943 310.009 154.48 317.962C155.813 322.14 158.619 344.67 157.708 348.658C157.577 349.235 156.662 349.916 156.551 350.488C155.727 354.737 158.107 357.028 155.282 362.08C152.097 367.774 134.909 382.784 129.026 386.272C127.419 387.225 125.507 387.7 123.718 388.195C119.019 383.105 112.867 380.564 107.444 376.385L104.172 373.424C107.065 371.765 110.262 370.565 113.307 369.204C119.031 366.646 134.798 360.383 136.612 353.935C138.176 348.378 131.871 343.377 130.047 338.665C129.547 337.374 129.693 336.763 130.186 335.522C131.652 334.358 133.569 334.419 135.365 334.262C135.413 334.215 135.461 334.167 135.51 334.121C136.72 332.982 138.043 331.851 138.919 330.421C140.525 327.796 140.605 324.286 139.91 321.363C139.15 318.17 137.346 314.783 134.384 313.144C132.766 312.248 130.825 311.956 129.055 312.568C124.656 314.088 123.693 318.815 121.688 322.501C120.863 321.548 120.101 320.576 119.367 319.551C116.299 315.267 114.375 312.254 115.279 306.818C117.7 302.862 121.008 299.678 124.358 296.52Z" fill="#DFDFD0"/>
<path d="M571.932 796.847L572.805 796.956C573.229 797.396 573.333 797.458 573.669 798.078C576.4 803.127 579.753 819.28 577.713 824.682C572.49 827.647 567.132 828.846 561.337 830.167C561.159 828.924 560.963 827.756 560.543 826.568C559.782 824.414 558.402 821.72 556.094 820.922C554.973 820.534 553.841 820.689 552.782 821.182C548.709 823.08 546.995 827.878 545.453 831.75C539.299 835.102 528.666 835.587 521.812 835.13C517.439 834.611 511.038 834.514 507.365 832.065C506.269 831.335 505.156 830.612 504.901 829.307C506.774 828.125 509.196 828.747 511.311 828.19C515.347 827.127 519.681 825.016 523.245 822.864C532.004 817.575 536.768 810.702 539.263 800.841C551.722 801.122 559.99 800.993 571.932 796.847Z" fill="#32BC76"/>
<path d="M436.616 410.759C441.096 411.762 446.205 411.329 450.791 411.346C455.168 417.729 460.35 423.15 465.608 428.804C456.373 437.896 449.594 449.917 441.531 460.062C440.251 461.617 438.734 463.056 437.349 464.524C432.888 458.196 418.197 433.51 416.586 427.096C424.581 424.349 429.995 415.82 436.616 410.759Z" fill="#DFDFD0"/>
<path d="M418.014 799.906L419.62 799.926C420.699 800.565 421.183 801.449 421.537 802.623C422.758 806.674 424.12 815.755 421.799 819.361C420.538 821.32 408.047 822.665 405.45 823.006C405.091 819.99 404.966 816.623 402.99 814.159C401.961 812.877 400.664 811.818 398.916 811.869C397.519 811.909 396.251 812.77 395.34 813.772C392.26 817.154 392.445 820.733 392.534 824.977C392.392 825.032 392.251 825.09 392.108 825.141C391.869 825.226 391.628 825.302 391.388 825.386C384.254 827.866 373.563 827.015 366.007 826.58C365.473 826.571 364.938 826.556 364.403 826.537C360.439 826.401 350.226 825.918 347.628 823.111C349.286 820.37 360.045 816.382 363.349 814.015C367.443 811.082 370.727 807.047 374.095 803.334C384.736 803.266 404.323 805.27 413.787 801.485C415.184 800.927 416.604 800.429 418.014 799.906Z" fill="#32BC76"/>
<path d="M602.646 597.658C619.213 601.274 636.997 602.515 653.781 600.014C653.371 606.591 653.378 613.285 652.783 619.829L651.98 620.484C650.042 620.988 648.069 621.353 646.079 621.575C639.517 622.291 604.4 620.06 601.263 617.014C600.416 616.193 602.43 600.123 602.646 597.658Z" fill="#32BC76"/>
<path d="M170.218 363.729C173.121 367.099 174.827 371.088 175.536 375.453C170.171 388.264 139.709 413.298 126.715 419.435C124.823 417.525 120.978 413.255 120.513 410.575C120.476 410.359 120.334 409.305 120.463 408.984C122.296 404.385 151.649 383.22 157.428 378.105C162.2 373.881 166.279 368.716 170.218 363.729Z" fill="#32BC76"/>
<path d="M391.875 366.201C401.795 369.745 411.316 373.963 421.384 377.245C423.113 377.809 425.12 378.296 426.556 379.429C426.646 380.385 426.752 380.208 426.493 380.929C423.132 390.293 422.937 392.42 425.728 401.821C424.077 403.026 422.516 404.378 420.933 405.673C417.844 408.238 414.891 410.981 411.899 413.658C407.865 411.215 394.757 373.389 391.875 366.201Z" fill="#DFDFD0"/>
<path d="M461.346 402.715C465.474 396.507 464.578 390.668 463.265 383.847L463.614 383.456C469.51 382.551 475.586 383.926 481.515 383.272C485.932 382.785 490.3 379.704 494.786 380.164C496.446 380.334 497.482 379.919 499.019 379.354L499.657 379.115L498.225 381.186L498.739 381.524L498.231 381.455C491.136 392.226 483.827 404.065 475.643 414.025C474.676 415.395 474.025 416.781 472.475 417.489C471.029 416.902 470.216 415.664 469.25 414.497C465.96 411.191 463.714 406.704 461.346 402.715Z" fill="#DFDFD0"/>
<path d="M68.7915 301.314C72.3065 302.53 76.1995 303.587 78.1455 307.081C78.9275 308.486 79.0245 310.069 78.4565 311.574C76.5025 316.742 68.4205 320.197 63.8135 322.518C63.1955 322.712 62.7455 322.971 62.0835 322.822C59.9435 322.343 57.1915 319.943 55.9145 318.183C54.8255 316.681 54.2055 314.749 54.6175 312.902C55.6965 308.062 64.7915 304.05 68.7915 301.314Z" fill="#DFDFD0"/>
<path d="M87.0904 322.254C88.4504 322.209 89.4224 322.488 90.4444 323.41C92.1074 324.912 93.0624 327.244 93.1024 329.469C93.1454 331.811 92.3314 334.117 90.6274 335.756C87.5564 338.711 80.0114 341.866 75.7974 341.841C73.7174 341.414 71.7894 340.608 69.8154 339.847C68.7804 336.303 68.7174 334.753 69.9694 331.244C75.7374 328.344 81.4564 325.407 87.0904 322.254Z" fill="#DFDFD0"/>
<path d="M98.9613 347.454C99.2653 347.452 99.5743 347.398 99.8743 347.447C101.132 347.651 102.378 348.602 102.982 349.691C104.448 352.336 103.542 355.444 102.784 358.135C98.4003 360.807 93.5713 362.965 88.7223 364.638C88.3703 364.559 88.0173 364.48 87.6703 364.383C85.5323 363.784 84.1963 362.303 83.2263 360.346C82.3623 358.602 81.7753 356.63 82.6573 354.759C84.7043 350.419 94.7273 348.721 98.9613 347.454Z" fill="#DFDFD0"/>
<path d="M443.693 384.364C444.669 384.553 445.662 384.739 446.614 385.03C448.514 385.613 450.079 386.811 450.941 388.622C451.781 390.386 451.645 392.251 450.895 394.015C449.671 396.894 447.339 397.812 444.596 398.899C441.073 396.753 438.436 396.117 436.869 391.929C436.418 390.723 436.461 389.422 437.082 388.275C438.42 385.806 441.158 384.975 443.693 384.364Z" fill="#DFDFD0"/>
<path d="M585.828 673.923L586.401 674.349C585.467 677.126 584.36 679.922 583.691 682.774C582.344 688.517 581.826 694.144 579.955 699.798C579.207 698.56 579.147 696.959 578.91 695.539C578.72 695.261 578.503 695 578.339 694.706C577.328 692.896 574.358 679.242 574.766 677.323C576.414 675.655 583.172 674.851 585.828 673.923Z" fill="#DFDFD0"/>
<path d="M585.168 655.619C586.751 656.898 588.11 658.493 588.196 660.64C588.262 662.284 587.57 662.841 586.491 663.949C585.417 663.526 584.65 663.238 583.834 662.403C583.228 660.189 584.461 657.733 585.168 655.619Z" fill="#EEE8E0"/>
<path d="M721.489 208.666C723.282 208.533 725.079 208.444 726.876 208.399C734.644 208.206 742.458 208.417 750.157 209.512C755.167 210.224 760.087 211.475 765.09 212.222C779.915 214.435 808.259 217.289 819.16 228.087C824.593 233.468 827.411 243.735 827.478 251.172C827.497 253.214 827.271 263.541 826.798 265.105C826.333 266.643 825.232 267.863 825.014 269.485C824.555 272.899 824.564 276.388 824.103 279.834C822.334 293.059 819.991 306.318 817.874 319.499C816.069 330.74 814.416 342.582 810.689 353.389C809.361 357.237 806.398 361.579 803.491 364.403C791.692 375.862 762.09 368.274 747.45 365.862C743.752 365.253 739.596 364.201 735.843 364.327C730.967 364.49 727.798 372.365 724.603 375.818C716.244 384.407 708.311 389.909 697.038 394.407C687.01 398.409 675.847 398.866 665.84 394.539C661.572 392.694 656.064 389.531 654.468 384.928C653.957 383.452 653.958 381.574 654.785 380.204C656.19 377.873 658.144 377.668 660.58 377.032C666.938 379.783 671.465 382.16 678.595 380.126C688.859 377.199 692.974 367.43 697.723 358.879C694 357.16 690.245 355.506 687.03 352.907C682.588 349.315 679.549 344.516 678.986 338.791C677.692 325.608 683.574 300.07 685.749 286.536C686.52 281.738 686.844 276.873 687.577 272.07C688.277 267.485 689.676 263.027 690.548 258.474C692.023 250.775 692.972 243.087 695.028 235.489C696.632 229.563 698.621 222.197 702.691 217.466C707.516 211.858 714.301 209.229 721.489 208.666Z" fill="#060605"/>
<path d="M733.991 218.608C735.124 218.326 734.59 218.333 735.765 218.565C740.264 219.454 744.828 219.781 749.352 220.508C759.416 222.125 769.224 223.734 779.348 224.909C788.833 226.011 806.323 229.698 812.315 237.663C819.18 246.79 812.229 274.153 810.36 284.968L804.504 317.724C802.788 327.146 801.765 336.696 800.085 346.121C799.465 349.597 797.152 355.44 794.069 357.387C790.941 359.363 785.995 359.586 782.338 359.554C772.59 359.467 762.427 357.144 752.804 355.604C745.244 354.394 737.872 353.681 730.427 351.714C720.586 353.154 723.973 360.137 718.086 367.252C709.389 377.766 700.491 379.612 688.869 385.291C691.367 383.13 693.954 381.055 696.192 378.618C700.767 373.639 711.427 359.109 710.547 352.198C709.658 345.221 698.577 346.729 693.976 342.955C691.851 341.194 690.527 338.651 690.303 335.9C689.11 322.714 704.476 232.317 710.976 225.238C717.155 218.509 725.694 219.173 733.991 218.608Z" fill="#DFDFD0"/>
<path d="M729.877 262.707L730.029 262.194C731.737 256.241 733.343 237.635 738.294 234.766C739.784 233.903 741.568 233.65 743.268 233.727C749.304 233.999 755.325 235.976 761.336 236.668C765.836 237.186 771.939 236.667 776.101 238.151C778.459 238.992 779.853 241.071 781.132 243.091C781.638 251.813 780.752 261.181 779.205 269.779C783.344 271.224 787.691 273.427 789.788 277.515C790.721 279.336 790.886 281.32 790.196 283.254C789.564 285.026 788.351 286.619 786.617 287.415C783.27 288.951 777.384 287.606 775.736 291.537C773.201 297.586 771.478 302.511 766.524 307.208C761.571 310.344 756.065 312.358 750.127 311.74C743.233 311.023 738.251 306.983 734.016 301.859C732.807 299.966 731.461 298.014 730.623 295.924C729.399 292.869 728.74 287.049 726.788 284.631C726.162 283.855 724.667 283.251 723.806 282.818C721.76 281.787 720.206 280.494 719.573 278.194C719.374 277.469 719.31 276.722 719.187 275.984C719.032 275.049 718.606 274.783 717.926 274.168C717.82 271.898 718.273 270.155 719.816 268.417C722.49 265.404 726.232 264.104 729.877 262.707Z" fill="#060605"/>
<path d="M744.951 242.473C750.643 245.339 757.735 247.319 764.113 247.44C765.675 247.47 767.574 247.364 769.069 247.826C770.027 248.122 770.473 248.444 770.867 249.389C772.28 252.777 770.866 262.872 769.535 266.069L768.48 266.262C763.302 264.861 757.8 263.904 752.478 263.238C749.865 262.911 746.633 263.008 744.159 262.27C743.076 261.947 742.776 261.523 742.057 260.706C740.863 256.106 744.043 247.372 744.951 242.473Z" fill="#32BC76"/>
<path d="M734.088 271.396C744.007 271.035 771.475 276.087 780.168 280.187L771.023 280.391C754.952 280.955 743.412 282.273 728.396 274.158C730.269 273.151 732.117 272.2 734.088 271.396Z" fill="#32BC76"/>
<path d="M737.555 287.257C742.31 287.607 746.726 291.261 751.644 292.024C756.048 292.707 760.3 290 764.773 290.282C765.416 290.78 765.571 290.644 765.613 291.345C765.73 293.333 763.992 295.14 762.733 296.473C761.188 297.808 759.542 299.13 757.615 299.871C754.061 301.237 749.964 301.208 746.518 299.54C741.357 297.042 739.217 292.425 737.555 287.257Z" fill="#DFDFD0"/>
<path d="M734.016 301.859C738.251 306.983 743.233 311.023 750.127 311.74C756.065 312.358 761.571 310.344 766.524 307.208C769.072 307.379 771.691 307.37 774.163 308.056C779.255 309.47 783.626 312.591 786.159 317.29C788.777 322.147 789.794 330.989 787.808 336.33C787.55 337.022 787.124 337.916 786.403 338.183C781.143 340.129 716.369 331.579 709.623 328.381C708.818 324.585 710.435 317.967 711.936 314.455C716.473 303.846 724.631 305.642 733.207 302.199C733.479 302.09 733.747 301.972 734.016 301.859Z" fill="#32BC76"/>
<path d="M695.832 6.78846L696.086 6.69366C698.429 7.58136 710.634 6.89626 714.594 7.30106C733.809 9.26486 776.79 14.4956 789.053 30.2966C798.539 42.5196 789.23 78.9396 786.518 93.4066C785.52 98.7326 784.957 104.112 784.181 109.471C782.341 122.17 778.439 156.729 768.1 163.996C758.654 170.635 727.374 167.781 715.385 166.128C707.686 165.067 700.004 163.178 692.279 161.991C685.87 173.356 678.535 179.969 665.99 184.192C657.897 186.916 641.47 188.378 633.892 184.27C632.542 183.537 631.426 182.415 631.155 180.843C630.707 178.244 632.216 175.875 633.716 173.926C636.335 173.353 639.037 172.827 641.597 172.028C652.053 168.767 656.681 161.203 661.551 152.214C657.68 150.609 653.261 149.86 650.168 146.795C646.264 142.926 645.293 132.218 645.276 126.847C645.197 100.711 648.431 74.5966 652.332 48.8186C653.473 41.2796 653.977 34.0876 656.678 26.8366C658.281 22.5326 661.023 18.6746 664.279 15.4596C671.333 8.49606 682.578 6.89507 692.169 7.00687C693.114 7.01787 693.997 7.01976 694.937 6.90546L695.832 6.78846Z" fill="#060605"/>
<path d="M686.308 18.4825C688.645 17.9725 691.461 18.2596 693.855 18.2646C712.98 18.3006 737.467 21.2096 756.026 25.9146C761.252 27.2396 766.595 29.2516 771.515 31.4726C775.334 33.1956 780.348 36.2116 781.733 40.4426C783.267 45.1316 781.765 53.9385 781.021 58.8505C779.392 69.6075 776.414 79.9736 774.258 90.6046C772.492 99.3196 770.596 108.136 769.041 116.88C766.897 128.934 765.942 142.528 760.465 153.62C752.069 159.782 735.366 156.658 725.396 155.711C723.451 155.526 720.714 154.51 718.862 154.799C717.605 154.996 719.35 154.877 717.663 154.946L717.706 154.748C712.412 153.978 690.844 148.238 688.161 148.782C684.126 149.601 682.712 157.638 680.944 160.853C676.408 169.101 666.883 173.255 658.291 175.53C660.603 172.605 663.208 169.936 665.367 166.882C668.516 162.426 673.513 153.895 672.328 148.318C671.005 142.094 663.613 143.042 659.332 140.228C659.154 140.111 658.981 139.987 658.806 139.867C658.392 138.638 657.952 137.383 657.659 136.118C655.49 126.751 660.323 90.1146 661.307 78.8996C662.423 66.1846 662.713 53.3236 664.912 40.6996C665.676 36.3126 667.016 30.8496 669.416 27.0746C673.486 20.6756 679.444 19.8445 686.308 18.4825Z" fill="#DFDFD0"/>
<path d="M705.698 27.8956C705.858 28.0386 706.017 28.1836 706.179 28.3246C707.153 29.1736 708.168 30.0956 709.398 30.5466C716.573 33.1796 746.723 36.0476 749.524 44.4256C749.341 49.6526 741.744 65.3346 745.006 68.9426C748.274 72.5576 755.199 75.4826 755.462 81.0106C755.518 82.1716 755.098 83.7816 754.278 84.6096C750.77 88.1536 741.465 87.6746 736.65 87.8746C735.695 91.5316 734.687 94.3056 732.246 97.2916L732.673 97.6756C741.783 105.754 751.208 110 752.127 123.73L752.476 129.734C750.72 133.317 748.732 135.83 745.43 138.086C740.908 139.158 737.101 139.176 732.5 138.861C722.241 138.159 685.746 132.691 677.049 129.112C675.603 128.517 674.777 127.838 673.759 126.668C671.679 126.375 669.679 126.268 668.35 124.408C666.928 122.417 667.207 119.638 667.857 117.425C670.125 109.706 676.508 102.152 683.605 98.5466C687.267 96.6866 691.283 95.3716 695.191 94.1286C694.563 92.3426 693.935 90.6026 693.164 88.8706C691.778 85.7596 691.83 82.9416 693.052 79.7746C693.236 79.3026 693.429 78.8336 693.631 78.3686C688.051 74.6776 680.427 69.4596 678.823 62.4626C678.499 61.0506 678.523 59.4636 679.205 58.1516C680.063 56.4986 681.826 55.8196 683.553 55.5366C687.282 54.9256 691.063 55.8956 694.716 56.5906C696.316 52.2226 697.964 47.8566 699.308 43.4006C700.482 39.5116 701.39 35.1466 703.054 31.4506C703.658 30.1086 704.721 28.9756 705.698 27.8956Z" fill="#060605"/>
<path d="M673.759 126.668C673.861 126.561 673.965 126.456 674.065 126.347C680.98 118.788 677.165 110.211 690.694 105.372C692.374 104.771 694.564 103.791 696.35 103.757C697.117 103.743 697.385 104.311 697.853 104.838C698.433 105.491 698.9 106.203 699.407 106.912C702.397 111.094 706.997 113.261 711.853 114.618C719.955 112.96 724.394 110.291 730.926 105.484C738.191 112.729 740.831 118.201 742.741 128.199C743.402 131.661 743.965 134.84 745.43 138.086C740.908 139.158 737.101 139.176 732.5 138.861C722.241 138.159 685.746 132.691 677.049 129.112C675.603 128.517 674.777 127.838 673.759 126.668Z" fill="#32BC76"/>
<path d="M709.789 41.1116C719.694 42.4216 729.913 45.9406 739.4 49.0106C737.692 54.0716 736.413 59.2076 735.162 64.3946C725.416 61.3406 714.936 59.3306 704.815 58.1146C706.41 52.4286 708.069 46.7606 709.789 41.1116Z" fill="#32BC76"/>
<path d="M691.606 63.1055C694.203 62.9525 695.749 64.8245 698.131 65.3635C699.692 65.7165 701.268 64.6615 702.915 64.7625C706.847 65.0055 711.151 66.2635 715.012 67.0925C723.528 68.9205 736.987 70.5375 742.776 77.8675L742.471 78.7745C735.658 79.4435 728.197 78.0525 721.507 76.7185C714.319 75.2845 695.231 70.6465 691.008 64.3535L691.606 63.1055Z" fill="#32BC76"/>
<path d="M702.289 81.9576C710.337 84.3346 719.102 83.6206 726.863 86.6396C725.785 89.0296 724.495 91.1826 723.107 93.3966C721.237 94.4946 719.09 95.3416 716.971 95.8036C713.996 96.4516 710.937 96.1336 708.419 94.3216C704.375 91.4126 703.146 86.5796 702.289 81.9576Z" fill="#DFDFD0"/>
<path d="M720.088 102.646L720.513 102.967L720.368 103.612C716.284 106.158 712.234 105.685 707.732 105.07L706.941 104.125L707.383 103.477C711.426 102.635 715.928 103.054 720.088 102.646Z" fill="#32BC76"/>
<path d="M207.961 0.591461C208.195 0.562161 208.427 0.523264 208.662 0.503464C221.569 -0.584836 250.487 0.0510609 262.705 2.80416C266.398 3.63626 270.381 4.94796 273.17 7.59106C276.429 10.6806 279.418 15.3276 280.813 19.5786C283.161 26.7336 285.99 58.8616 286.206 67.7926C286.5 80.0046 285.003 117.22 281.757 128.206C280.306 133.116 277.318 137.778 273.36 141.027C267.656 145.711 256.146 146.103 253.819 148.557C254.005 149.542 254.244 150.367 254.662 151.286C257.493 157.51 265.784 169.781 273.286 170.628C276.27 170.965 279.696 169.988 282.509 171.164C285.16 172.273 286.305 174.973 287.313 177.45C286.263 179.169 285.031 180.751 283.824 182.36C277.281 185.169 271.383 185.091 264.381 185.028C243.685 184.133 231.204 176.13 221.526 157.855C220.852 156.582 219.77 153.152 218.584 152.579C216.523 151.584 211.44 152.285 209.108 152.333C197.12 152.583 177.006 153.067 167.229 145.476C155.378 136.274 151.89 117.979 150.414 104C149.086 91.4196 149.322 78.4896 148.997 65.8616C148.702 54.4106 145.459 24.2726 153.181 15.3806C164.48 2.36846 191.905 2.18456 207.961 0.591461Z" fill="#060605"/>
<path d="M224.058 11.1416C235.111 11.3226 257.706 9.31495 265.746 17.6876C267.043 19.0385 268.461 20.7156 268.98 22.5556C270.876 29.2866 270.76 37.3636 271.334 44.3376C272.446 57.8646 273.99 71.1936 273.853 84.7876C273.757 94.2786 274.378 126.091 266.563 131.896C262.126 135.191 254.903 135.512 249.628 136.488C247.028 136.968 243.179 137.626 241.384 139.78C240.34 141.033 239.921 142.468 240.134 144.073C240.705 148.377 248.169 166.334 251.504 168.823C252.215 169.353 252.631 169.716 253.183 170.399C252.57 170.798 252.199 170.83 251.472 170.809C246.879 170.675 240.881 164.143 238.01 160.955C236.147 158.575 234.387 156.19 232.881 153.564C230.45 149.326 228.522 142.463 224.701 139.456C223.875 138.807 223.064 138.353 221.99 138.271C219.452 138.078 216.159 138.798 213.574 138.957C203.31 139.59 182.724 141.13 174.562 134.899C165.198 127.749 164.188 112.774 162.96 101.842C161.58 89.5646 156.479 29.3445 162.421 22.6485C171.456 12.4675 210.563 12.0206 224.058 11.1416Z" fill="#DFDFD0"/>
<path d="M192.302 36.0916C200.442 28.5566 214.629 29.8306 225.082 29.8656C229.057 29.8786 235.752 29.9516 238.592 33.1056C241.282 36.0936 241.138 50.9636 241.133 55.3576C244.9 55.7296 248.486 56.3146 252.113 57.4046C253.122 58.3476 253.958 59.2386 254.737 60.3856C255.847 62.0196 256.562 63.1996 256.154 65.2436C254.027 68.3676 248.617 68.6326 245.236 69.9096C244.607 70.1476 243.675 70.6136 243.28 71.1946C241.865 73.2766 242.705 79.3636 242.189 82.1126C241.788 84.2466 241.001 86.1476 240.075 88.0986C247.409 90.1976 252.187 93.7436 255.845 100.542C257.498 103.613 259.958 109.714 259.051 113.092C258.272 115.996 255.55 118.183 253.003 119.518C242.646 124.944 197.244 126.953 186.076 123.263C184.489 122.738 181.892 121.72 181.127 120.106C179.312 116.275 181.206 103.581 182.966 99.8036C185.414 94.5506 190.527 91.8186 195.273 88.9646C192.279 82.8626 193.664 76.8356 191.629 70.6486C187.495 70.5326 183.285 70.8196 179.804 68.1736C178.444 67.1396 177.226 65.4716 177.161 63.7106C177.1 62.0436 177.956 60.4896 179.076 59.3096C182.38 55.8266 187.667 56.0146 192.071 55.7416C192.075 49.1906 192.373 42.6466 192.302 36.0916Z" fill="#060605"/>
<path d="M240.075 88.0986C247.409 90.1976 252.187 93.7436 255.845 100.542C257.498 103.613 259.958 109.714 259.051 113.092C258.272 115.996 255.55 118.183 253.003 119.518C242.646 124.944 197.244 126.953 186.076 123.263C184.489 122.738 181.892 121.72 181.127 120.106C179.312 116.275 181.206 103.581 182.966 99.8036C185.414 94.5506 190.527 91.8186 195.273 88.9646C197.468 92.8646 199.88 96.5146 203.648 99.0876C208.661 102.511 214.86 102.937 220.684 101.848C229.442 100.21 235.157 95.1446 240.075 88.0986Z" fill="#32BC76"/>
<path d="M204.094 54.2606C204.231 51.7096 203.676 46.7806 205.501 44.8976C206.626 43.7366 220.687 44.7076 222.973 44.8726C224.826 45.0066 226.869 45.2486 228.485 46.2066C229.546 49.9026 229.685 61.0736 228.565 64.8286C227.092 66.3886 225.163 67.3626 223.055 67.7856C220.831 68.6886 217.683 69.1536 215.297 69.2076C212.452 69.2716 209.54 68.5046 207.482 66.4376C204.284 63.2246 204.201 58.5136 204.094 54.2606Z" fill="#DFDFD0"/>
<path d="M215.548 47.9076C218.692 49.0086 222.439 50.2466 223.881 53.5786C224.787 55.6746 224.499 58.5876 223.61 60.6396C223.074 61.8786 222.335 62.9946 221.564 64.0966C220.486 64.8276 219.301 65.7466 218.067 66.1776C216.396 66.7616 213.994 66.4496 212.429 65.6626C209.366 64.1216 208.181 61.3266 207.251 58.2196C207.745 55.1966 208.125 51.9326 210.824 50.0156C212.218 49.0246 213.953 48.4806 215.548 47.9076Z" fill="#060605"/>
<path d="M204.094 54.2606C206.054 56.6456 204.151 61.6126 207.622 62.0536C207.534 61.8566 207.441 61.6626 207.358 61.4636C206.859 60.2706 206.308 56.4086 206.769 55.3176C206.978 56.2876 207.136 57.2336 207.251 58.2196C208.181 61.3266 209.366 64.1216 212.429 65.6626C213.994 66.4496 216.396 66.7616 218.067 66.1776C219.301 65.7466 220.486 64.8276 221.564 64.0966C220.981 66.1406 219.433 66.2086 218.612 67.8976C219.809 68.0016 220.773 67.5536 221.87 67.1446C222.387 67.3236 222.761 67.3066 223.055 67.7856C220.831 68.6886 217.683 69.1536 215.297 69.2076C212.452 69.2716 209.54 68.5046 207.482 66.4376C204.284 63.2246 204.201 58.5136 204.094 54.2606Z" fill="#EEE8E0"/>
<path d="M231.648 76.9745C231.733 77.0815 231.849 77.1715 231.905 77.2975C232.141 77.8275 232.189 78.5335 232.407 79.1095C232.622 79.6795 232.905 80.2945 233.035 80.8895C233.324 82.2065 233.164 83.1365 232.426 84.2665C230.675 86.9495 225.915 88.4126 222.954 89.0956C217.229 90.4186 210.937 90.3045 205.845 87.1875C205.474 86.7305 205.434 86.7136 205.105 86.1086C204.161 84.3716 203.356 81.6575 204.014 79.7905C205.893 79.3595 208 80.4246 209.805 80.9576C217.763 83.3075 224.578 80.3395 231.648 76.9745Z" fill="#DFDFD0"/>
<path d="M42.5804 168.24L41.9544 168.059C38.8654 167.188 35.6324 166.996 32.5604 165.967C22.1154 162.469 13.2084 154.007 7.81439 144.606C-0.168609 130.692 -2.02181 115.39 2.19339 99.9506C5.99939 86.0116 14.6104 75.2196 27.1564 68.0776C39.7684 60.8986 55.4074 59.4896 69.2834 63.4376C82.6494 67.2406 94.2314 75.4876 100.933 87.8786C107.761 100.504 110.337 118.084 106.111 131.92C102.189 144.757 93.3324 156.407 81.4094 162.702C71.9374 167.702 63.1644 170.124 52.3774 169.806L50.9954 169.777L50.8834 170.006C48.1684 168.102 45.7514 168.316 42.5804 168.24Z" fill="#32BC76"/>
<path d="M33.1045 127.376C37.5595 127.012 41.7645 128.437 46.1935 128.46C48.8055 129.399 54.4955 128.397 57.3825 128.119C62.0355 126.945 66.1094 128.714 70.7944 127.685C70.5504 130.391 70.2105 132.935 69.6035 135.591L72.5435 135.389C73.1895 135.819 73.4194 135.752 73.5724 136.592C73.9224 138.517 72.7965 140.411 71.6535 141.879C67.9185 146.678 62.1445 148.567 56.3015 149.1C47.9495 149.862 41.1924 146.857 34.9924 141.551C33.3444 140.14 32.2614 139.18 32.0854 136.896C32.5324 135.4 32.9965 134.965 34.1235 133.972C34.0315 133.769 33.9545 133.557 33.8465 133.362C33.6015 132.916 33.2964 132.504 33.0614 132.053C32.2254 130.44 32.6285 128.997 33.1045 127.376Z" fill="#060605"/>
<path d="M69.6035 135.591L72.5435 135.389C73.1895 135.819 73.4194 135.752 73.5724 136.592C73.9224 138.517 72.7965 140.411 71.6535 141.879C67.9185 146.678 62.1445 148.567 56.3015 149.1C47.9495 149.862 41.1924 146.857 34.9924 141.551C33.3444 140.14 32.2614 139.18 32.0854 136.896C32.5324 135.4 32.9965 134.965 34.1235 133.972C42.1095 138.307 52.6835 142.678 61.8595 139.904C64.2905 139.169 67.6905 137.284 69.6035 135.591Z" fill="#EEE8E0"/>
<path d="M33.1043 127.376C30.3973 126.449 28.5593 123.072 27.4093 120.631C25.2063 115.958 24.9583 106.648 26.9303 101.821C27.3653 100.758 27.8353 100.2 28.8343 99.6566C31.8373 99.6066 34.9753 102.838 37.0403 104.835C41.8753 109.508 47.3512 116.567 47.3053 123.583C47.2962 125.081 46.9442 126.261 46.1712 127.547C46.2042 127.771 46.2653 127.992 46.2713 128.218C46.2733 128.303 46.2192 128.379 46.1933 128.46C41.7643 128.437 37.5593 127.012 33.1043 127.376Z" fill="#EEE8E0"/>
<path d="M57.3824 128.119C57.1014 121.65 61.0954 114.515 65.4024 109.853C68.1594 106.87 72.5954 102.594 76.8214 102.407C78.2644 102.343 79.8104 102.862 80.7684 103.98C82.9334 106.507 81.8364 111.164 81.2924 114.118C80.3614 119.185 77.5064 123.341 73.2554 126.22C72.4664 126.754 71.6654 127.296 70.7944 127.685C66.1094 128.714 62.0354 126.945 57.3824 128.119Z" fill="#EEE8E0"/>
<path d="M47.3293 195.327L48.0033 195.351C49.7683 196.62 50.7713 198.159 51.9613 199.926C52.1423 204.842 55.5043 216.172 53.6603 219.925C52.9383 221.396 51.5213 221.827 50.1033 222.427C48.2263 221.697 46.7873 221.044 45.7283 219.213C43.1183 214.699 41.5033 204.706 43.0873 199.753C43.8543 197.351 45.1863 196.498 47.3293 195.327Z" fill="#060605"/>
<path d="M42.5804 168.24C45.7514 168.316 48.1684 168.102 50.8834 170.006C50.6724 174.037 51.1754 179.958 48.4784 183.212C47.6524 184.208 46.5074 184.879 45.1794 184.86C43.6764 184.839 42.3044 183.959 41.4444 182.767C39.3544 179.871 39.9864 176.564 40.6024 173.329C40.9884 171.304 41.4754 169.998 42.5804 168.24Z" fill="#060605"/>
</svg>
