<svg width="674" height="754" viewBox="0 0 674 754" fill="none" xmlns="http://www.w3.org/2000/svg">
<path d="M192.333 128.169C195.114 126.446 198.528 123.752 201.628 122.8C214.92 118.717 240.191 122.431 253.881 125.456C259.075 126.604 266.572 129.105 271.764 128.725C274.76 114.64 276.028 100.156 278.703 86.007C279.735 80.549 282.273 75.347 283.171 69.905C283.834 65.888 283.461 59.377 285.398 55.857C285.953 54.849 286.845 54.232 287.755 53.571C287.366 52.981 286.974 52.442 286.541 51.878C286.996 45.565 293.784 27.347 298.559 23.408C301.483 20.995 304.847 18.935 308.232 17.242C313.899 14.408 341.322 3.22999 346.701 4.35199C347.474 4.51299 348.113 5.15799 348.688 5.65399C348.393 4.90199 348.084 4.213 347.729 3.492L348.332 2.845C348.595 2.95 349.965 3.629 350.295 3.644C356.047 3.9 366.031 -1.939 370.837 2.495L370.656 1.769L371.135 2.75099C372.081 2.35099 372.531 1.83799 373.208 1.07899C377.842 0.479995 382.701 0.212004 387.376 0.229004C391.392 0.244004 394.631 0.858 398.652 0C400.094 0.675 402.088 1.84099 403.674 1.98799C408.911 2.47299 412.934 -0.383999 417.979 3.164C418.206 3.324 418.44 3.474 418.669 3.632C418.81 3.729 418.949 3.82899 419.088 3.92799C420.089 3.29299 419.596 3.653 420.557 2.836C428 3.809 435.931 5.627 443.051 8.035C445.334 8.807 448.225 10.886 450.355 11.321C450.785 11.409 451.85 10.602 452.317 10.655C454.023 10.85 461.208 14.544 463.197 15.389C468.49 17.637 473.997 19.673 479.109 22.303C484.255 24.95 488.949 28.215 493.781 31.374C497.512 33.814 501.455 35.957 505.107 38.515C514.694 45.233 526.086 55.719 533.126 64.981C536.484 69.4 539.101 74.493 539.719 80.064L541.301 81.093C542.095 85.239 525.11 143.363 522.751 152.538C520.439 161.537 518.754 170.679 516.413 179.653C531.864 183.611 564.526 192.487 576.497 201.704C579.573 204.073 581.977 207.236 583.953 210.553C585.515 213.174 586.423 216.143 585.684 219.18C584.625 223.532 580.249 226.995 576.516 229.056C566.92 234.352 555.906 236.444 545.207 238.16C540.779 238.87 524.873 238.337 522.815 240.336C522.103 246.482 523.427 252.793 522.689 258.955C522.28 262.372 520.009 263.308 520.12 264.59C520.502 268.986 522.582 272.566 521.143 277.078C520.486 279.142 519.872 280.53 520.44 282.652C520.698 283.613 520.529 283.019 520.83 283.883C521.051 284.517 521.253 285.172 521.253 285.852C521.255 288.444 520.434 291.382 520.081 293.971C519.49 298.319 519.308 303.184 519.536 307.564C522.114 304.195 525.818 302.872 529.924 302.284C537.659 301.176 547.083 302.957 553.319 307.827C559.016 312.278 562.957 319.897 563.679 327.055C564.467 334.87 562.2 343.785 557.149 349.877C552.763 355.166 546.107 358.983 539.227 359.524C536.389 359.747 533.43 359.171 530.621 358.77C524.555 373.844 524.13 381.066 512.33 393.278C509.567 396.137 506.828 399.088 503.745 401.606C510.579 404.114 519.857 406.986 524.633 412.559C525.539 413.616 526.086 413.875 527.458 414.03C533.394 414.705 542.915 422.058 547.938 425.69C553.973 430.053 560.395 433.946 566.233 438.558C570.669 442.063 574.522 446.141 578.68 449.948C589.545 459.897 600.369 469.811 609.5 481.467C611.207 483.645 619.053 493.548 618.768 495.737C618.69 496.331 618.521 496.791 618.302 497.343C618.679 497.998 618.964 498.931 619.669 499.231L620.223 498.345C626.062 500.019 627.452 508.751 631.753 512.603C635.969 516.379 637.941 521.183 640.829 525.936C649.048 539.462 656.981 553.078 662.698 567.888C664.941 573.696 666.642 579.729 668.578 585.643C670.715 592.167 673.205 597.58 673.537 604.555C673.743 608.894 672.984 616.579 670.057 619.856C669.394 620.598 668.558 621.26 667.793 621.891C666.535 626.13 664.226 627.563 661.489 630.744C658.125 634.655 654.81 638.481 650.901 641.873C641.219 650.277 623.74 660.418 612.499 667.041C611.594 666.779 611.64 666.649 611.063 665.963C607.87 668.103 604.756 670.661 601.274 672.297C598.911 673.407 596.333 674.077 593.927 675.105C588.883 677.26 584.037 679.779 578.915 681.773C571.851 684.523 540.858 694.165 538.234 699.306C538.86 705.787 544.078 716.416 539.154 722.193C536.115 725.76 528.727 727.534 524.233 728.803C516.457 730.998 508.216 732.212 500.283 733.81C480.876 737.72 461.628 741.382 441.962 743.697C438.617 744.09 435.182 745.224 431.849 745.359C430.318 745.421 429.439 745.255 428.011 745.976C424.708 747.644 412.829 747.341 412.294 747.707C412.141 747.811 412.116 748.031 412.027 748.193L412.055 749.213C410.326 750.029 409.165 749.7 407.435 749.089C407.046 748.95 406.658 748.807 406.272 748.659C403.878 749.211 399.938 750.651 397.602 750.311L396.314 748.693L395.584 748.68L395.487 750.392C392.672 752.291 389.455 751.87 386.283 751.43C383.659 751.066 381.193 751.904 378.633 752.377C368.12 754.316 361.68 755.365 353.383 747.583C351.41 738.65 350.536 721.68 345.21 714.853C344.754 714.615 344.574 714.494 344.029 714.356C342.814 714.047 341.983 714.186 340.945 714.806C337.878 721.174 335.369 723.539 328.997 726.201C325.955 722.781 323.565 717.741 320.079 714.92C317.781 715.604 316.782 719.767 314.223 719.848C311.412 719.937 308.251 715.92 306.413 714.091C306.022 714.487 305.521 715.074 305.046 715.392C304.077 716.04 303.315 716.325 302.16 715.882C299.951 715.035 299.41 711.326 298.804 709.243C295.023 711.3 293.683 713.05 291.531 716.638L290.979 716.287C288.549 714.775 285 713.007 282.048 714.018C279.973 714.728 279.327 716.646 278.504 718.467L278.198 719.158L277.322 719.114C274.861 717.134 276.345 714.062 275.936 711.25C272.435 709.017 271.152 712.488 268.071 711.693L267.809 710.868C268.555 710.068 269.252 709.26 269.929 708.4C269.231 707.25 269.281 707.503 268.087 707.147C266.919 707.88 266.783 708.547 266.131 709.76C265.035 711.795 263.633 713.175 261.339 713.748C253.717 715.654 252.859 705.324 247.864 703.271C244.15 701.744 240.933 707.161 237.95 708.596C233.688 708.115 234.817 704.804 231.937 702.716C228.953 700.551 225.396 701.573 222.082 702.153L217.382 696.151C216.896 696.621 216.39 697.158 215.838 697.557C214.823 698.289 214.271 698.511 213.046 698.342C211.487 696.031 213.203 692.361 211.921 689.641C211.786 689.353 211.607 689.083 211.51 688.78C210.779 686.488 212.876 685.386 213.434 683.463C213.772 682.296 213.507 681.919 212.988 680.92C211.855 678.736 209.203 674.812 210.018 672.419C211.71 667.448 209.222 656.644 208.959 650.873C209.485 650.224 209.96 649.567 210.426 648.874C210.266 646.813 209.533 643.783 208.326 642.068C208.083 641.723 207.799 641.407 207.563 641.057C209.677 633.847 207.073 637.03 206.226 632.324C205.834 630.147 208.153 629.851 208.106 627.963C207.978 622.833 206.174 617.775 206.051 612.583C206.182 612.399 206.318 612.219 206.442 612.031C207.936 609.761 206.533 608.204 206.154 605.846C205.831 603.838 207.384 602.661 208.57 601.142C207.762 600.055 207.009 598.988 206.303 597.829C206.45 596.996 206.627 596.563 207.063 595.808C208.07 594.065 205.116 591.963 205.859 590.617C206.305 589.808 207.158 589.816 207.305 588.753C207.615 586.504 206.635 584.084 206.733 581.778C207.012 575.148 209.54 569.951 205.366 563.876C204.811 563.975 205.138 563.95 204.288 563.827L203.559 563.715L204.648 563.915L204.573 563.665C204.948 563.346 206.21 562.417 206.442 561.972C208.181 558.65 205.924 552.387 206.48 548.838C206.753 547.093 208.526 547.089 208.925 545.366C208.51 544.144 208.043 543.001 208.183 541.691C208.366 539.981 209.059 537.666 208.588 535.987C207.89 533.505 209.77 530.803 209.596 528.18C208.82 516.422 216.275 458.534 214.332 454.402C212.705 450.94 212.496 447.788 213.215 444.049L213.341 443.424C211.458 446.589 212.353 452.955 211.851 456.694L207.551 487.408C207.1 490.45 206.183 493.529 205.818 496.535C204.752 505.321 204.8 514.256 203.721 523.012C203.23 526.996 202.216 530.89 201.681 534.861C201.252 538.044 201.33 541.453 201.091 544.674C200.675 550.268 199.871 555.997 200.126 561.618L200.162 562.302L199.301 562.318C198.766 563.398 198.518 564.268 198.4 565.473C197.586 573.812 196.125 637.96 197.696 643.214C194.976 651.576 200.181 680.411 201.018 690.49C201.427 695.413 201.907 701.992 198.313 705.912C197.13 707.202 195.688 707.823 193.942 707.858C192.383 707.89 191.241 707.34 190.205 706.194C187.617 703.332 187.787 697.104 187.266 693.421C183.74 666.873 182.972 640.031 184.976 613.325C180.266 616.479 176.377 621.015 171.847 624.508C164.513 630.163 146.348 641.704 137.842 644.717C135.062 645.702 132.072 646.04 129.286 647.047C125.239 648.51 120.468 651.428 116.122 651.264C112.538 651.13 110.916 648.565 108.714 646.183C107.327 644.682 106.085 644.98 104.229 644.932C103.686 644.918 103.159 644.925 102.624 644.806C93.4018 642.748 75.4758 621.071 69.8938 613.18C65.8208 607.423 61.8398 601.32 58.3668 595.178C50.8998 581.968 18.5788 520.445 21.2718 509.014C21.7238 507.094 27.3298 504.692 29.0908 503.71L27.6998 502.207C13.5298 486.813 4.87879 466.805 1.73979 446.194C1.41579 444.064 1.4998 441.979 1.2598 439.86C0.900797 436.703 -0.230205 433.179 0.0417947 430.024C0.529795 424.346 4.59279 419.532 4.89179 413.813C5.06679 410.474 4.5598 406.922 4.3308 403.584C3.5788 392.641 4.4238 384.373 8.6068 374.11C10.7968 368.738 24.8258 349.95 24.8288 349.939C25.7098 345.493 22.8208 338.643 22.0068 334.085C20.6018 326.213 20.9848 318.512 21.3128 310.582C24.0338 307.018 26.0118 302.96 29.0968 299.664C32.2268 296.318 36.2308 294.056 40.6108 292.783C50.1008 290.024 60.4078 290.559 70.1948 289.912C79.9248 289.269 89.6618 288.232 99.4028 287.841C109.516 287.436 117.107 286.437 125.037 294.032C129.454 298.263 130.808 303.255 132.049 309.038C134.047 318.345 134.566 328.604 135.281 338.093C136.312 351.781 137.408 365.551 137.955 379.268C138.1 382.89 137.831 386.507 137.937 390.124C138.427 406.874 140.742 423.614 141.193 440.401C138.829 443.107 136.5 445.956 133.674 448.197C123.263 456.456 106.372 462.673 92.9868 462.096C89.9868 461.967 83.3218 460.233 80.8228 461.247C80.3638 464.226 82.1928 467.758 83.3228 470.489C87.8798 469.568 93.4588 467.855 98.0818 468.393C100.081 468.626 101.783 469.51 102.993 471.135C106.205 475.447 105.697 485.502 104.959 490.591C108.606 497.662 115.815 503.156 121.089 509.096C123.502 511.814 125.215 514.822 128.012 517.2C136.162 500.887 145.353 484.23 155.858 469.33C159.367 464.354 163.661 459.729 167.598 455.076C174.328 447.121 181.163 438.768 188.595 431.473C195.843 424.358 204.643 418.898 212.9 413.078C215.487 411.254 218.487 408.293 221.379 407.168C222.586 406.698 224.081 406.778 225.36 406.787L227.833 399.85C212.541 395.246 199.079 383.464 190.909 369.929C183.166 357.101 179.85 348.26 183.542 333.346C183.448 333.337 183.354 333.331 183.259 333.32C173.071 332.219 161.638 334.543 152.312 329.381C144.45 325.031 139.452 316.274 137.224 307.803C136.127 303.633 134.567 290.854 135.646 286.933C135.976 285.734 137.296 284.684 137.935 283.591C137.17 283.256 137.087 283.308 136.561 282.596C138.263 276.736 139.47 270.951 143.395 266.111C153.325 253.864 164.512 243.745 180.74 242.073C190.216 241.097 201.663 242.852 209.228 249.038L212.257 251.5C212.641 238.914 219.876 227.095 228.955 218.627C239.229 209.043 243.763 208.777 256.642 206.08C259.477 201.664 262.262 197.349 265.734 193.392C266.317 192.727 266.759 192.006 267.222 191.255C244.969 186.974 208.582 165.324 196.072 146.938C193.28 142.834 190.362 136.886 191.404 131.836C191.658 130.602 191.998 129.382 192.333 128.169Z" fill="black"/>
<path d="M216.065 456.859C216.289 456.913 216.512 456.973 216.737 457.021C217.64 457.214 218.438 457.15 219.351 457.111C224.24 456.905 237.522 458.191 241.014 461.022C241.248 461.755 241.563 462.087 241.207 462.833C239.587 466.228 235.001 469.619 232.573 472.69C229.816 476.178 227.399 480.024 224.923 483.718C229.309 492.662 237.225 500.01 243.674 507.468C246.633 510.89 249.383 514.533 252.461 517.846C254.241 519.762 256.458 521.249 258.186 523.153C261.002 526.255 263.067 529.867 266.081 532.879C271.688 538.483 277.799 543.778 283.976 548.738C288.018 551.984 291.925 555.431 296.092 558.51C299.109 560.74 312.213 568.717 313.29 570.939C312.737 571.884 312.291 572.43 311.187 572.758C305.854 574.341 301.179 572.292 297.352 577.855C294.934 581.369 293.75 586.485 294.594 590.685C295.496 595.18 299.121 598.361 302.787 600.835L307.943 601.2C314.313 601.683 315.099 598.37 319.785 597.385C322.68 603.639 323.817 612.09 325.486 618.831C327.389 626.515 329.825 634.34 331.255 642.115C332.068 646.54 332.221 651.076 333.157 655.472L341.382 692.577C342.865 699.541 346.063 707.693 345.21 714.853C344.754 714.615 344.574 714.494 344.029 714.356C342.814 714.047 341.983 714.186 340.945 714.806C337.878 721.174 335.369 723.539 328.997 726.201C325.955 722.781 323.565 717.741 320.079 714.92C317.781 715.604 316.782 719.767 314.223 719.848C311.412 719.937 308.251 715.92 306.413 714.091C306.022 714.487 305.521 715.074 305.046 715.392C304.077 716.04 303.315 716.325 302.16 715.882C299.951 715.035 299.41 711.326 298.804 709.243C295.023 711.3 293.683 713.05 291.531 716.638L290.979 716.287C288.549 714.775 285 713.007 282.048 714.018C279.973 714.728 279.327 716.646 278.504 718.467L278.198 719.158L277.322 719.114C274.861 717.134 276.345 714.062 275.936 711.25C272.435 709.017 271.152 712.488 268.071 711.693L267.809 710.868C268.555 710.068 269.252 709.26 269.929 708.4C269.231 707.25 269.281 707.503 268.087 707.147C266.919 707.88 266.783 708.547 266.131 709.76C265.035 711.795 263.633 713.175 261.339 713.748C253.717 715.654 252.859 705.324 247.864 703.271C244.15 701.744 240.933 707.161 237.95 708.596C233.688 708.115 234.817 704.804 231.937 702.716C228.953 700.551 225.396 701.573 222.082 702.153L217.382 696.151C216.896 696.621 216.39 697.158 215.838 697.557C214.823 698.289 214.271 698.511 213.046 698.342C211.487 696.031 213.203 692.361 211.921 689.641C211.786 689.353 211.607 689.083 211.51 688.78C210.779 686.488 212.876 685.386 213.434 683.463C213.772 682.296 213.507 681.919 212.988 680.92C211.855 678.736 209.203 674.812 210.018 672.419C211.71 667.448 209.222 656.644 208.959 650.873C209.485 650.224 209.96 649.567 210.426 648.874C210.266 646.813 209.533 643.783 208.326 642.068C208.083 641.723 207.799 641.407 207.563 641.057C209.677 633.847 207.073 637.03 206.226 632.324C205.834 630.147 208.153 629.851 208.106 627.963C207.978 622.833 206.174 617.775 206.051 612.583C206.182 612.399 206.318 612.219 206.442 612.031C207.936 609.761 206.533 608.204 206.154 605.846C205.831 603.838 207.384 602.661 208.57 601.142C207.762 600.055 207.009 598.988 206.303 597.829C206.45 596.996 206.627 596.563 207.063 595.808C208.07 594.065 205.116 591.963 205.859 590.617C206.305 589.808 207.158 589.816 207.305 588.753C207.615 586.504 206.635 584.084 206.733 581.778C207.012 575.148 209.54 569.951 205.366 563.876C206.368 563.79 206.466 563.779 207.251 563.282C207.615 562.11 207.551 561.006 207.529 559.797C210.054 556.396 206.697 551.063 208.441 547.451C210.216 543.778 210.894 522.519 211.043 517.371C211.137 514.112 210.485 509.11 211.812 506.154C212.591 504.421 213.299 503.174 213.156 501.233C212.712 500.661 211.908 499.801 211.792 499.042C211.638 498.034 213.741 483.277 213.769 479.37C214.111 479.084 214.914 478.484 215.077 478.044C215.712 476.325 214.104 460.731 216.065 456.859Z" fill="#32BC76"/>
<path d="M309.785 622.462C313.611 621.937 316.673 621.698 319.827 624.219C323.166 626.889 324.974 631.567 325.336 635.73C325.671 639.585 324.795 643.617 322.121 646.53C319.786 649.075 316.839 650.053 313.473 650.135C309.66 650.471 306.601 649.798 303.558 647.356C300.023 644.519 297.959 640.386 297.661 635.884C297.396 631.879 302.114 626.394 304.734 623.568C306.375 623.104 308.116 622.823 309.785 622.462Z" fill="black"/>
<path d="M312.464 627.696C314.793 627.889 316.572 628.376 318.126 630.18C319.67 631.973 320.676 633.42 320.542 635.879C320.001 637.172 319.464 637.466 318.333 638.195C317.319 637.666 316.424 637.205 315.294 636.95C315.053 636.896 314.807 636.862 314.563 636.818L314.608 638.67C313.932 639.7 313.885 639.785 312.749 640.24C311.391 639.963 310.607 639.416 309.806 638.296C308.658 636.69 308.177 634.747 308.626 632.81C309.194 630.361 310.36 628.985 312.464 627.696Z" fill="#FCFAF5"/>
<path d="M310.896 669.932C313.762 669.488 316.082 669.828 318.899 670.449C323.613 674.379 326.013 677.897 328.235 683.603C327.572 686.041 326.749 688.738 325.643 691.003C323.735 694.91 320.651 696.503 316.679 697.759C314.535 697.964 312.376 697.987 310.223 698.053C306.332 695.831 302.473 693.331 300.588 689.083C299.188 685.928 299.211 682.196 300.513 679.007C302.446 674.273 306.456 671.907 310.896 669.932Z" fill="black"/>
<path d="M313.207 676.259C313.833 676.255 314.45 676.247 315.074 676.308C317.035 676.5 318.601 677.115 319.793 678.741C320.938 680.302 321.426 682.543 320.936 684.432C320.562 685.874 320.131 686.388 318.921 687.193C317.398 687.088 317.236 686.895 316.001 685.96C315.281 685.452 313.527 686.503 310.617 685.073C309.494 684.52 309.266 683.857 308.913 682.734C309.281 679.958 311.22 678.047 313.207 676.259Z" fill="#FCFAF5"/>
<path d="M202.998 450.862C201.318 459.95 198.698 468.792 196.898 477.837C193.054 497.16 190.298 517.158 188.609 536.783C188.052 543.249 186.842 549.734 187.91 556.167C189.012 562.801 185.088 569.745 186.102 576.506C177.447 587.604 158.065 604.447 145.964 611.08C137.817 615.545 127.564 618.173 118.491 615.437C98.0758 609.28 88.9918 593.263 79.5148 575.777C75.4698 568.313 71.3308 560.948 68.0978 553.083C65.4338 546.602 63.8338 539.296 60.4778 533.181C60.3828 533.009 60.2828 532.839 60.1848 532.668C57.8538 531.91 56.0418 531.467 54.1318 529.822C69.9688 525.615 82.6988 515.92 96.1378 507.038C97.6238 505.112 99.0038 503.096 100.502 501.183C115.313 515.418 131.409 547.315 137.652 566.763C139.469 572.424 140.707 578.496 141.625 584.371C141.79 585.745 141.932 587.275 142.95 588.327C143.861 589.268 144.466 589.104 145.649 589.041C147.999 587.597 148.754 585.857 149.527 583.277C147.696 579.516 148.138 574.122 147.526 569.956C146.277 561.451 144.231 553.668 140.556 545.896C143.542 540.57 146.216 527.809 149.305 524.343C149.43 524.203 149.564 524.07 149.692 523.932C151.381 522.111 153.128 520.369 154.913 518.642C154.619 518.286 154.022 517.596 153.823 517.202C153.232 516.028 153.713 515.465 154.217 514.406L154.995 514.183C155.724 515.012 155.676 516.082 156.258 517.01C157.676 514.496 158.127 511.719 159.301 509.126C160.396 506.705 162.309 504.442 163.633 502.102C163.513 501.806 163.407 501.504 163.273 501.213C163.139 500.924 162.978 500.649 162.831 500.367C165.709 498.178 184.227 473.703 184.612 470.734C185.082 467.113 188.047 468.084 189.941 465.638C189.898 459.628 200.426 456.117 202.998 450.862Z" fill="#32BC76"/>
<path d="M100.502 501.183C115.313 515.418 131.409 547.315 137.652 566.763C139.469 572.424 140.707 578.496 141.625 584.371C138.238 590.16 137.827 593.906 137.558 600.497C135.311 590.323 136.501 579.328 132.43 569.596C126.826 556.197 117.29 539.564 109.53 527.086C107.421 523.744 105.063 520.567 102.477 517.579C100.783 515.657 98.4308 513.592 97.1038 511.442C96.3378 510.202 96.2738 508.451 96.1378 507.038C97.6238 505.112 99.0038 503.096 100.502 501.183Z" fill="#FCFAF5"/>
<path d="M183.542 333.346C183.448 333.337 183.354 333.331 183.259 333.32C173.071 332.219 161.638 334.543 152.312 329.381C144.45 325.031 139.452 316.274 137.224 307.803C136.127 303.633 134.567 290.854 135.646 286.933C135.976 285.734 137.296 284.684 137.935 283.591C137.17 283.256 137.087 283.308 136.561 282.596C138.263 276.736 139.47 270.951 143.395 266.111C153.325 253.864 164.512 243.745 180.74 242.073C190.216 241.097 201.663 242.852 209.228 249.038L212.257 251.5C212.311 257.399 211.057 263.475 210.786 269.433C210.857 269.699 210.931 269.964 210.999 270.231C211.928 273.891 211.564 277.933 212.358 281.666C214.736 292.858 221.144 299.745 226.838 309.218C226.728 309.521 226.61 309.822 226.508 310.128C225.369 313.562 223.255 339.404 223.306 343.556C222.89 344.263 222.916 344.681 222.037 344.852C219.766 345.293 207.019 339.936 204.981 338.333C201.375 335.496 198.621 331.065 196.119 327.267C196.04 326.086 196.155 325.324 196.509 324.196C195.359 323.034 194.103 321.825 192.319 321.922C189.731 322.062 187.636 324.485 186.295 326.449C184.773 328.678 183.962 330.691 183.542 333.346Z" fill="#FCFAF5"/>
<path d="M183.542 333.346C183.448 333.337 183.354 333.331 183.259 333.32C173.071 332.219 161.638 334.543 152.312 329.381C144.45 325.031 139.452 316.274 137.224 307.803C136.127 303.633 134.567 290.854 135.646 286.933C135.976 285.734 137.296 284.684 137.935 283.591C137.17 283.256 137.087 283.308 136.561 282.596C138.263 276.736 139.47 270.951 143.395 266.111C153.325 253.864 164.512 243.745 180.74 242.073C190.216 241.097 201.663 242.852 209.228 249.038L212.257 251.5C212.311 257.399 211.057 263.475 210.786 269.433C207.61 263.718 204.164 260.066 197.686 258.262C188.47 255.696 179.282 256.646 170.952 261.405C161.687 266.699 152.437 277.376 149.776 287.843C147.799 295.616 148.405 305.975 152.677 312.898C154.134 315.258 168.114 322.997 170.941 323.461C175.57 324.22 182.363 319.727 185.86 316.876C189.647 313.79 189.662 311.515 190.09 306.902C190.168 306.06 190.236 305.219 190.34 304.38C188.378 299.496 185.82 298.53 181.19 296.539C178.256 295.277 175.171 294.206 172.032 295.472C169.003 296.694 166.199 299.675 163.966 302.029C164.175 297.28 164.849 294.102 168.589 290.753C172.014 287.686 176.634 286.624 181.136 286.947C185.82 287.283 189.602 289.618 192.568 293.178C197.6 299.219 200.165 308.756 202.316 316.291C201.187 319.111 200.205 322.496 197.261 323.941C197.023 324.058 196.759 324.111 196.509 324.196C195.359 323.034 194.103 321.825 192.319 321.922C189.731 322.062 187.636 324.485 186.295 326.449C184.773 328.678 183.962 330.691 183.542 333.346Z" fill="#32BC76"/>
<path d="M169.907 307.256C170.242 307.242 170.577 307.216 170.912 307.216C173.827 307.215 176.84 307.922 178.797 310.202C179.71 311.265 180.176 312.46 179.897 313.882C179.44 316.212 177.852 317.333 175.949 318.491C175.878 318.516 175.808 318.54 175.737 318.566C173.777 319.292 171.955 320.164 169.952 318.995C168.673 318.249 167.844 316.829 167.602 315.393C167.045 312.086 167.943 309.824 169.907 307.256Z" fill="#28975E"/>
<path d="M120.982 637.836C117.258 635.182 112.766 633.554 108.755 631.347C103.654 628.54 98.9558 624.872 94.4228 621.231C82.5458 611.691 73.3338 593.424 65.6138 580.249C61.5158 573.255 57.0258 566.276 53.5538 558.951C51.3868 554.382 41.7678 534.492 43.0268 530.936C44.5828 530.484 44.7058 531.424 46.0738 531.609C47.9518 531.864 52.1548 530.282 54.1318 529.822C56.0418 531.467 57.8538 531.91 60.1848 532.668C60.2828 532.839 60.3828 533.009 60.4778 533.181C63.8338 539.296 65.4338 546.602 68.0978 553.083C71.3308 560.948 75.4698 568.313 79.5148 575.777C88.9918 593.263 98.0758 609.28 118.491 615.437C127.564 618.173 137.817 615.545 145.964 611.08C158.065 604.447 177.447 587.604 186.102 576.506C185.602 582.725 186.779 593.904 185.4 599.279C183.657 606.079 151.052 626.406 143.784 629.53C139.743 631.267 135.529 632.895 131.359 634.277C128.113 635.352 124.163 635.627 121.369 637.557C121.238 637.647 121.111 637.743 120.982 637.836Z" fill="#28975E"/>
<path d="M519.536 307.564C522.114 304.195 525.818 302.872 529.924 302.284C537.659 301.176 547.083 302.957 553.319 307.827C559.016 312.278 562.957 319.897 563.679 327.055C564.467 334.87 562.2 343.785 557.149 349.877C552.763 355.166 546.107 358.983 539.227 359.524C536.389 359.747 533.43 359.171 530.621 358.77C531.814 355.636 532.292 352.537 534.032 349.59C534.587 348.649 534.973 347.969 535.203 346.879C534.756 345.881 534.366 345.544 534.597 344.445C535.584 344.719 535.572 344.844 536.61 344.514L536.821 343.623C535.896 343.602 535.677 343.699 534.854 343.213C535.689 341.777 536.81 340.466 537.33 338.873C537.972 336.909 536.884 334.192 538.047 332.433C538.183 332.227 538.339 332.035 538.486 331.836L538.008 330.783C536.038 329.353 533.75 327.529 531.209 327.571C528.112 329.292 528.566 332.823 527.112 335.845C527.034 336.007 526.952 336.167 526.873 336.328L526.155 335.935C525.75 336.076 525.204 336.275 524.798 336.367C521.247 337.17 522.374 333.293 518.868 331.16C519.801 329.024 519.205 326.501 518.79 324.288C518.669 321.968 519.393 319.491 519.436 317.094C519.422 317.022 519.409 316.949 519.394 316.877C519.01 315.013 518.707 313.525 519.144 311.635C519.477 310.196 519.587 309.037 519.536 307.564Z" fill="#32BC76"/>
<path d="M519.436 317.094C525.099 314.521 532.925 313.203 538.825 315.516C543.228 317.241 547.173 320.573 548.979 325.02C550.714 329.289 550.484 334.692 548.579 338.869C547.085 342.143 544.424 344.586 541.013 345.747C539.332 346.319 536.955 346.984 535.203 346.879C534.756 345.881 534.366 345.544 534.597 344.445C535.584 344.719 535.572 344.844 536.61 344.514L536.821 343.623C535.896 343.602 535.677 343.699 534.854 343.213C535.689 341.777 536.81 340.466 537.33 338.873C537.972 336.909 536.884 334.192 538.047 332.433C538.183 332.227 538.339 332.035 538.486 331.836L538.008 330.783C536.038 329.353 533.75 327.529 531.209 327.571C528.112 329.292 528.566 332.823 527.112 335.845C527.034 336.007 526.952 336.167 526.873 336.328L526.155 335.935C525.75 336.076 525.204 336.275 524.798 336.367C521.247 337.17 522.374 333.293 518.868 331.16C519.801 329.024 519.205 326.501 518.79 324.288C518.669 321.968 519.393 319.491 519.436 317.094Z" fill="#FCFAF5"/>
<path d="M518.79 324.288C521.181 324.511 524.231 324.417 525.867 326.332C525.909 328.115 524.001 329.733 524.602 330.803C525.623 332.622 526.144 333.844 526.155 335.935C525.75 336.076 525.204 336.275 524.798 336.367C521.247 337.17 522.374 333.293 518.868 331.16C519.801 329.024 519.205 326.501 518.79 324.288Z" fill="#32BC76" fill-opacity="0.38"/>
<path d="M180.13 462.6C185.191 452.617 208.722 430.961 217.91 425.184C216.285 431.073 211.67 447.379 214.233 453.191C214.968 454.857 215.701 454.679 216.065 456.859C214.104 460.731 215.712 476.325 215.077 478.044C214.914 478.484 214.111 479.084 213.769 479.37C213.741 483.277 211.638 498.034 211.792 499.042C211.908 499.801 212.712 500.661 213.156 501.233C213.299 503.174 212.591 504.421 211.812 506.154C210.485 509.11 211.137 514.112 211.043 517.371C210.894 522.519 210.216 543.778 208.441 547.451C206.697 551.063 210.054 556.396 207.529 559.797C207.551 561.006 207.615 562.11 207.251 563.282C206.466 563.779 206.368 563.79 205.366 563.876C204.811 563.975 205.138 563.95 204.288 563.827L203.559 563.715L204.648 563.915L204.573 563.665C204.948 563.346 206.21 562.417 206.442 561.972C208.181 558.65 205.924 552.387 206.48 548.838C206.753 547.093 208.526 547.089 208.925 545.366C208.51 544.144 208.043 543.001 208.183 541.691C208.366 539.981 209.059 537.666 208.588 535.987C207.89 533.505 209.77 530.803 209.596 528.18C208.82 516.422 216.275 458.534 214.332 454.402C212.705 450.94 212.496 447.788 213.215 444.049L213.341 443.424C211.458 446.589 212.353 452.955 211.851 456.694L207.551 487.408C207.1 490.45 206.183 493.529 205.818 496.535C204.752 505.321 204.8 514.256 203.721 523.012C203.23 526.996 202.216 530.89 201.681 534.861C201.252 538.044 201.33 541.453 201.091 544.674C200.675 550.268 199.871 555.997 200.126 561.618L200.162 562.302L199.301 562.318C198.939 561.333 198.937 561.678 198.998 560.799C199.596 552.101 199.896 543.27 200.822 534.602C201.252 530.577 202.394 526.666 202.779 522.629C203.594 514.062 203.789 505.523 204.973 496.972C206.293 487.441 207.511 477.818 208.969 468.317C210.165 460.521 212.219 452.071 212.044 444.193C212.009 442.628 211.764 441.778 210.635 440.703C209.606 440.771 209.413 440.668 208.51 441.281C205.911 443.047 203.574 447.826 202.998 450.862C200.426 456.117 189.898 459.628 189.941 465.638C188.047 468.084 185.082 467.113 184.612 470.734C184.227 473.703 165.709 498.178 162.831 500.367C162.978 500.649 163.139 500.924 163.273 501.213C163.407 501.504 163.513 501.806 163.633 502.102C162.309 504.442 160.396 506.705 159.301 509.126C158.127 511.719 157.676 514.496 156.258 517.01C155.676 516.082 155.724 515.012 154.995 514.183L154.217 514.406C153.713 515.465 153.232 516.028 153.823 517.202C154.022 517.596 154.619 518.286 154.913 518.642C153.128 520.369 151.381 522.111 149.692 523.932C149.564 524.07 149.43 524.203 149.305 524.343C146.216 527.809 143.542 540.57 140.556 545.896C138.523 541.908 136.873 537.58 134.989 533.5C136.042 530.336 137.098 527.172 138.563 524.171C146.219 508.483 159.154 488.596 169.24 474.34C171.367 471.333 173.463 467.767 175.982 465.13C177.037 464.025 178.777 463.284 180.13 462.6Z" fill="#FCFAF5"/>
<path d="M518.868 331.16C522.374 333.293 521.247 337.17 524.798 336.367C525.204 336.275 525.75 336.076 526.155 335.935L526.873 336.328C523.715 340.657 519.938 344.234 516.663 348.417C517.598 343.179 516.561 335.723 518.868 331.16Z" fill="#F6F0E1"/>
<path d="M491.622 461.791C492.36 460.805 492.744 460.113 492.81 458.85C493.2 451.399 490.276 439.773 489.865 431.62C490.521 431.036 490.802 430.754 491.231 429.962C490.944 429.806 490.638 429.68 490.369 429.494C488.343 428.089 489.891 422.541 489.467 420.194C489.206 420.058 488.225 419.558 488.021 419.395C487.37 418.874 487.306 418.806 487.288 418.082C487.248 416.415 488.427 411.871 489.189 410.407C489.568 409.679 490.836 408.672 491.438 408.037C499.539 411.874 517.038 420.12 522.688 426.06C523.491 427.249 523.655 427.923 525.031 428.457C529.363 430.14 535.416 435.607 539.421 438.451C544.127 441.794 549.271 444.482 553.946 447.868C561.658 453.453 569.191 460.169 576.263 466.55C582.541 472.214 588.998 480.716 595.375 485.365C595.442 485.587 595.503 485.809 595.574 486.029C597.413 491.762 605.977 500.181 609.936 505.481C610.957 505.7 611.217 505.65 612.194 505.42C613.241 506.132 613.374 506.237 613.882 507.389C613.632 508.023 613.019 508.901 613.325 509.558C614.08 511.177 618.884 513.867 618.839 514.969C618.814 515.572 618.754 516.174 618.979 516.751C620.38 520.353 623.489 524.343 625.516 527.701C630.887 536.597 636.456 545.46 641.12 554.754C644.064 560.62 646.677 566.908 648.81 573.117C649.936 576.394 650.733 580.012 652.132 583.156C655.27 589.994 659.169 595.328 658.196 603.275C659.319 604.956 659.035 605.577 658.966 607.49C658.709 614.68 653.58 622.628 648.351 627.386C644.474 630.914 639.528 633.318 635.168 636.204C630.028 639.607 625.093 643.29 619.902 646.624C620.043 647.784 619.834 647.243 620.574 648.229L619.886 648.679L618.334 647.997C616.552 648.955 615.241 650.595 613.457 651.475C611.388 652.496 608.657 652.756 606.418 653.674C605.605 654.007 605.064 654.292 604.352 654.825L604.699 656.269C601.056 657.995 581.719 663.196 580.955 666.064C580.873 666.373 580.848 666.943 580.826 667.276C579.892 667.754 580.395 667.655 579.414 667.579C571.317 666.954 567.429 674.944 564.549 674.761C564.364 674.75 563.304 673.897 563.084 673.862C562.273 673.732 541.108 683.005 539.386 684.204C538.728 684.662 538.463 685.251 538.095 685.934C537.318 685.872 536.999 686.048 536.458 685.391C533.393 681.674 534.34 674.332 532.447 669.789C529.625 664.855 528.974 657.924 527.082 652.472C525.223 647.115 518.966 635.167 518.392 630.74C518.33 630.262 518.683 629.213 518.781 628.698C518.231 626.762 516.502 625.717 515.347 624.128L515.934 623.377C515.244 621.069 512.894 618.546 512.953 616.369C514.722 614.992 517.451 615.22 519.512 614.264C523.943 612.208 528.012 609.398 532.525 607.468C539.337 604.555 546.408 601.387 553.353 598.844C561.272 595.944 569.302 593.577 577.267 590.867C581.419 589.454 585.355 586.834 589.539 585.678C593.108 584.693 596.865 585.209 600.495 584.033C600.671 583.976 600.845 583.912 601.021 583.851C604.292 584.687 610.11 587.762 613.354 587.57C614.624 587.495 615.869 587.491 617.141 587.487C615.447 585.148 613.763 582.865 612.412 580.305C604.245 576.002 593.502 575.01 584.595 577.438C580.647 578.514 576.349 580.356 572.281 580.664C571.114 580.752 570.437 580.778 569.544 579.969L569.495 578.918C569.471 578.462 569.431 578.006 569.425 577.55C569.416 576.932 569.469 576.345 569.386 575.727C568.837 571.662 559.426 555.466 556.776 551.363C553.992 547.054 550.789 543.029 548 538.729C544.118 532.745 540.39 524.711 534.613 520.263C534.319 515.722 534.192 511.163 534.003 506.616C536.296 506.097 538.568 506.08 540.857 505.605L541.263 504.951L540.272 503.509C540.596 502.659 540.603 503.069 540.329 502.28C540.563 502.192 540.796 502.101 541.031 502.015C542.877 501.347 543.613 499.912 544.683 498.366C544.673 496.184 543.868 494.034 543.275 491.948C543.997 490.768 544.352 490.554 543.854 489.164C543.751 488.879 543.59 488.619 543.463 488.345C542.505 486.289 542.833 483.751 542.157 481.564C541.106 478.162 539.287 475.007 537.989 471.697C537.49 470.424 537.563 469.619 537.708 468.3C538.054 465.146 538.962 461.104 537.191 458.303C535.867 457.312 534.266 456.767 532.592 457.034C531.915 457.142 531.367 457.981 531.075 458.566C530.383 459.952 530.006 461.493 529.72 463.002C529.072 466.428 525.533 468.544 524.983 472.296C524.57 475.106 524.976 478.006 524.772 480.832C524.476 484.946 523.215 488.915 522.983 493.17C522.496 502.086 522.537 510.921 522.401 519.834C522.359 522.602 522.066 525.376 522.193 528.145C522.374 532.087 523.146 535.973 523.515 539.898C523.95 544.526 524.092 549.203 524.378 553.844C525.194 567.04 525.797 581.74 527.652 594.783L528.43 595.38C525.785 600.291 514.901 600.745 510.272 604.267C508.81 598.588 509.333 592.413 507.448 587.028C506.141 583.292 505.53 581.515 506.569 577.513C506.153 577.035 505.583 576.657 505.322 576.079C504.673 574.64 504.946 567.772 504.745 565.688C504.237 560.435 503.125 555.38 502.377 550.191C501.99 547.506 502.522 544.725 502.195 542.043C501.843 539.151 499.16 533.794 497.055 531.936C493.694 531.571 489.462 530.698 486.126 531.207C480.742 532.029 470.299 537.107 465.654 535.464C463.079 535.837 460.323 535.817 457.815 536.298C455.021 536.833 452.339 538.71 449.532 539.005C447.847 539.181 446.011 538.551 444.367 538.949C441.895 539.547 439.669 541.215 437.178 541.759C434.552 542.332 431.682 542.063 429.006 542.448C427.015 542.734 408.911 546.812 407.524 547.345C406.961 547.562 406.408 547.81 405.832 547.987C404.711 548.334 404.1 548.434 403.049 547.867L402.986 546.83C403.831 546.734 405.029 546.814 405.797 546.584C407.217 546.16 409.578 544.032 410.92 543.176C413.985 541.22 417.313 539.732 420.473 537.944C424.962 535.403 443.902 523.105 444.855 519.043C444.928 518.731 444.985 518.417 445.05 518.104C446.116 518.483 445.541 518.363 446.783 518.412C453.525 513.074 464.845 502.416 469.92 495.585C470.032 495.434 470.14 495.28 470.25 495.127C469.111 491.403 467.348 488.797 464.572 486.099C462.396 483.983 460.338 481.881 457.224 481.928L456.644 481.344L457.925 479.898C457.91 477.23 453.072 472.902 451.363 470.828C450.096 469.291 449.84 467.945 449.994 466.007C453.36 463.522 481.914 463.858 488.376 462.436C489.454 462.198 490.538 462 491.622 461.791Z" fill="#32BC76"/>
<path d="M522.688 426.06C523.491 427.249 523.655 427.923 525.031 428.457C529.363 430.14 535.416 435.607 539.421 438.451C544.127 441.794 549.271 444.482 553.946 447.868C561.658 453.453 569.191 460.169 576.263 466.55C582.541 472.214 588.998 480.716 595.375 485.365C595.442 485.587 595.503 485.809 595.574 486.029C597.413 491.762 605.977 500.181 609.936 505.481C610.957 505.7 611.217 505.65 612.194 505.42C613.241 506.132 613.374 506.237 613.882 507.389C613.632 508.023 613.019 508.901 613.325 509.558C614.08 511.177 618.884 513.867 618.839 514.969C618.814 515.572 618.754 516.174 618.979 516.751C620.38 520.353 623.489 524.343 625.516 527.701C630.887 536.597 636.456 545.46 641.12 554.754C644.064 560.62 646.677 566.908 648.81 573.117C649.936 576.394 650.733 580.012 652.132 583.156C651.525 586.366 651.801 590.124 651.743 593.411C645.798 585.118 642.37 573.765 638.261 564.386C635.61 558.335 632.225 552.324 628.89 546.622C626.244 542.099 622.527 538.148 619.504 533.863C613.589 525.482 607.643 516.893 601.235 508.885C597.64 504.393 593.539 500.459 589.739 496.162C572.597 476.778 554.866 458.317 533.789 443.144C531.172 441.261 527.885 440.419 525.12 438.542L524.447 438.082C522.096 445.157 518.729 451.976 516.668 459.111C510.665 479.89 510.599 501.352 511.974 522.783C512.287 527.676 513.022 532.608 513.255 537.477C513.308 538.566 513.566 539.459 512.949 540.374C512.459 540.076 511.245 533.995 510.705 532.857C508.46 528.121 506.644 515.433 505.974 509.922C505.138 509.896 505.542 509.996 504.766 509.602C504.441 505.619 505.871 501.67 505.861 497.671C505.847 492.355 504.501 487.107 504.69 481.767C505.254 465.811 512.305 443.593 518.797 428.715C520.195 427.908 521.427 427.069 522.688 426.06Z" fill="#FCFAF5"/>
<path d="M470.25 495.127C469.111 491.403 467.348 488.797 464.572 486.099C462.396 483.983 460.338 481.881 457.224 481.928L456.644 481.344L457.925 479.898C457.91 477.23 453.072 472.902 451.363 470.828C450.096 469.291 449.84 467.945 449.994 466.007C453.36 463.522 481.914 463.858 488.376 462.436C489.454 462.198 490.538 462 491.622 461.791C493.393 463.51 494.843 464.709 494.846 467.359C494.85 469.812 493.073 472.54 492.772 475.092C492.342 478.728 492.42 482.404 491.735 486.016C488.774 501.643 478.354 514.2 468.333 526.041C466.179 528.587 462.013 531.263 464.703 534.474C465.078 534.921 465.264 535.086 465.654 535.464C463.079 535.837 460.323 535.817 457.815 536.298C455.021 536.833 452.339 538.71 449.532 539.005C447.847 539.181 446.011 538.551 444.367 538.949C441.895 539.547 439.669 541.215 437.178 541.759C434.552 542.332 431.682 542.063 429.006 542.448C427.015 542.734 408.911 546.812 407.524 547.345C406.961 547.562 406.408 547.81 405.832 547.987C404.711 548.334 404.1 548.434 403.049 547.867L402.986 546.83C403.831 546.734 405.029 546.814 405.797 546.584C407.217 546.16 409.578 544.032 410.92 543.176C413.985 541.22 417.313 539.732 420.473 537.944C424.962 535.403 443.902 523.105 444.855 519.043C444.928 518.731 444.985 518.417 445.05 518.104C446.116 518.483 445.541 518.363 446.783 518.412C453.525 513.074 464.845 502.416 469.92 495.585C470.032 495.434 470.14 495.28 470.25 495.127Z" fill="#28975E"/>
<path d="M548.589 660.218C553.243 655.296 561.328 656.874 564.327 652.991L564.703 652.499C566.355 652.508 568.21 652.517 569.783 651.951C571.283 651.411 574.961 649.605 576.162 648.482C576.53 648.139 576.971 646.887 577.225 646.387L577.757 646.445L578.541 647.451C586.589 646.636 593.586 641.02 600.886 638.182C603.324 637.234 606.135 637.217 608.431 636.021C615.696 632.237 622.733 628.007 630.026 624.218C635.109 621.579 655.238 609.893 656.608 604.832C656.827 604.02 657.529 603.773 658.196 603.275C659.319 604.956 659.035 605.577 658.966 607.49C658.709 614.68 653.58 622.628 648.351 627.386C644.474 630.914 639.528 633.318 635.168 636.204C630.028 639.607 625.093 643.29 619.902 646.624C620.043 647.784 619.834 647.243 620.574 648.229L619.886 648.679L618.334 647.997C616.552 648.955 615.241 650.595 613.457 651.475C611.388 652.496 608.657 652.756 606.418 653.674C605.605 654.007 605.064 654.292 604.352 654.825L604.699 656.269C601.056 657.995 581.719 663.196 580.955 666.064C580.873 666.373 580.848 666.943 580.826 667.276C579.892 667.754 580.395 667.655 579.414 667.579C571.317 666.954 567.429 674.944 564.549 674.761C564.364 674.75 563.304 673.897 563.084 673.862C562.273 673.732 541.108 683.005 539.386 684.204C538.728 684.662 538.463 685.251 538.095 685.934C537.318 685.872 536.999 686.048 536.458 685.391C533.393 681.674 534.34 674.332 532.447 669.789C535.704 669 536.843 666.964 538.58 664.293C540.217 663.8 541.771 663.154 543.35 662.502C545.618 662.181 546.705 661.519 548.589 660.218Z" fill="#28975E"/>
<path d="M540.329 502.28C540.563 502.192 540.796 502.101 541.031 502.015C542.877 501.347 543.613 499.912 544.683 498.366C545.749 500.957 547.552 503.473 550.151 504.714C550.268 504.769 550.392 504.808 550.512 504.856C556.945 511.393 560.534 518.809 565.088 526.621C569.353 533.938 576.668 545.531 582.145 551.845C589.454 560.271 602.141 561.782 609.006 570.98C610.635 573.162 612.432 575.728 612.427 578.534C612.427 578.712 612.416 578.89 612.416 579.068C612.416 579.326 612.425 579.583 612.424 579.841C612.424 579.995 612.416 580.15 612.412 580.305C604.245 576.002 593.502 575.01 584.595 577.438C580.647 578.514 576.349 580.356 572.281 580.664C571.114 580.752 570.437 580.778 569.544 579.969L569.495 578.918C569.471 578.462 569.431 578.006 569.425 577.55C569.416 576.932 569.469 576.345 569.386 575.727C568.837 571.662 559.426 555.466 556.776 551.363C553.992 547.054 550.789 543.029 548 538.729C544.118 532.745 540.39 524.711 534.613 520.263C534.319 515.722 534.192 511.163 534.003 506.616C536.296 506.097 538.568 506.08 540.857 505.605L541.263 504.951L540.272 503.509C540.596 502.659 540.603 503.069 540.329 502.28Z" fill="#28975E"/>
<path d="M515.934 623.377C515.244 621.069 512.894 618.546 512.953 616.369C514.722 614.992 517.451 615.22 519.512 614.264C523.943 612.208 528.012 609.398 532.525 607.468C539.337 604.555 546.408 601.387 553.353 598.844C561.272 595.944 569.302 593.577 577.267 590.867C581.419 589.454 585.355 586.834 589.539 585.678C593.108 584.693 596.865 585.209 600.495 584.033C600.671 583.976 600.845 583.912 601.021 583.851C604.292 584.687 610.11 587.762 613.354 587.57C614.624 587.495 615.869 587.491 617.141 587.487C621.22 588.975 625.053 590.679 627.03 594.818L626.933 596.061C625.593 597.014 624.499 597.121 622.866 596.896C618.934 596.355 615.362 594.519 611.347 594.095C598.74 592.764 587.123 596.683 575.383 600.771C571.85 602.002 568.183 603.029 564.829 604.694C555.058 609.545 544.111 613.718 533.818 617.356C527.299 619.661 522.895 620.469 516.466 623.562L515.934 623.377Z" fill="#FCFAF5"/>
<path d="M543.275 491.948L545.839 492.357L546.35 493.074C546.204 493.659 545.863 494.228 545.912 494.829C546.063 496.68 549.612 502.7 550.512 504.856C550.392 504.808 550.268 504.769 550.151 504.714C547.552 503.473 545.749 500.957 544.683 498.366C544.673 496.184 543.868 494.034 543.275 491.948Z" fill="black"/>
<path d="M542.72 661.997C544.285 660.86 544.284 658.813 546.071 657.733C547.338 658.117 547.871 659.188 548.589 660.218C546.705 661.519 545.618 662.181 543.35 662.502C541.771 663.154 540.217 663.8 538.58 664.293C538.504 662.967 538.381 661.952 538.986 660.716C540.583 660.527 541.327 661.245 542.72 661.997Z" fill="#28975E"/>
<path d="M375.195 742.24C373.417 742.11 372.225 741.793 370.592 741.069C369.497 740.585 366.843 741.583 365.324 741.516C363.441 740.205 364.711 737.737 363.184 736.143C362.735 735.674 361.131 735.076 360.886 734.595C360.51 733.859 357.979 715.028 357.777 712.992C357.367 708.868 356.953 704.556 355.624 700.606C354.916 698.503 353.819 696.508 353.324 694.339C352.591 691.129 352.809 687.684 352.029 684.506C351.331 681.661 349.592 679.123 348.982 676.25C346.923 666.55 346.207 656.548 344.113 646.809C340.432 629.691 335.166 612.766 330.646 595.848C329.189 590.393 328.077 579.861 325.154 575.613C325.04 575.446 324.912 575.288 324.791 575.126C329.377 572.162 337.916 572.798 343.356 571.577C353.807 569.233 364.405 566.75 374.797 564.143C380.136 562.804 385.422 561.105 390.798 559.935C398.359 558.288 406.227 558.105 413.816 556.534L484.686 542.163C485.996 541.907 487.982 542.119 489.064 542.96C489.85 543.57 490.103 545.534 490.299 546.51C491.598 552.995 491.981 559.552 492.998 566.066C494.291 574.356 496.123 582.591 497.347 590.88C498.447 598.333 499.038 605.851 500.176 613.304C494.399 614.581 488.442 616.103 483.486 619.472C481.069 621.115 480.22 622.711 479.66 625.537C479.628 625.701 479.599 625.865 479.569 626.029L478.906 626.312C475.674 625.309 473.273 622.138 470.16 620.623C466.417 618.802 457.502 616.938 454.808 614.853C453.017 613.468 444.741 580.7 443.904 576.383C443.456 574.068 442.404 570.732 440.392 569.341C439.386 572.526 450.632 608.32 452.326 614.492C446.586 612.747 440.773 611.902 435.048 610.26C433.742 604.473 425.876 575.324 423.385 571.77C423.474 574.581 424.797 577.863 425.526 580.616C426.759 585.276 427.55 590.06 428.968 594.67C430.618 600.034 432.807 605.22 434.476 610.584C430.377 609.914 418.668 609.049 415.692 606.657C412.629 604.195 411.784 582.982 406.559 577.74L406.25 578.521C406.703 583.773 408.817 588.547 410.206 593.581C411.4 597.91 411.903 601.792 413.789 605.974C405.861 604.971 403.62 603.757 396.627 608.324C395.404 597.995 393.252 587.563 388.071 578.446C389.521 588.429 394.204 597.971 394.848 608.05C395.166 613.028 390.368 616.474 392.047 622.118C393.767 627.899 399.386 632.032 404.39 634.782L403.595 635.149L402.671 635.251C402.57 639.09 403.925 643.097 404.277 646.949C400.635 648.39 397.811 650.786 394.416 652.638C387.726 656.288 375.922 659.122 372.692 666.54C371.753 668.698 371.974 670.822 372.882 672.948C373.425 674.217 374.089 674.875 375.075 675.786C375.257 675.954 375.433 676.131 375.613 676.302C375.727 676.409 375.843 676.513 375.958 676.618C374.231 677.895 372.441 679.129 370.765 680.47C371.987 683.687 375.842 688.086 376.052 690.145C375.178 691.853 373.883 693.64 374.652 695.575C376.147 699.337 384.124 701.822 387.665 703.445C388.064 709.221 389.266 724.983 393.018 729.068L394.034 729.496C394.694 727.948 392.63 723.423 392.152 721.606C390.632 715.823 389.951 709.79 388.954 703.898C391.31 704.558 392.702 705.047 394.489 706.706C396.707 708.767 402.861 711.941 404.082 714.323C405.376 716.846 406.661 726.009 409.858 725.957C409.372 722.431 407.772 719.301 407.322 715.73C411.719 718.52 415.112 720.238 420.495 719.693C421.283 719.613 423.021 719.48 423.619 720.044C424.982 721.327 426.841 727.57 428.112 729.728L426.671 720.194C431.68 719.358 436.654 719.281 441.645 718.603C442.339 721.049 442.839 723.815 444.273 725.937C444.979 725.26 444.81 724.485 444.823 723.523C444.844 721.943 444.595 720.355 444.39 718.793C446.24 718.603 457.515 716.738 458.644 717.832C459.936 719.083 460.037 721.559 461.642 722.239C462.238 720.341 461.617 717.651 461.151 715.744C465.761 713.533 470.428 710.314 475.203 708.629C476.316 709.495 476.225 710.1 476.402 711.47C476.463 711.957 476.519 712.445 476.572 712.933L476.928 712.683C476.905 712.55 476.876 712.417 476.86 712.283C476.66 710.648 476.833 708.86 476.87 707.211C481.185 704.868 485.604 703.702 489.506 700.609C490.287 704 489.714 712.737 491.201 715.033L491.795 714.897C492.308 713.334 492.054 711.894 491.865 710.307C490.598 699.671 489.151 698.298 499.273 693.075C500.728 696.454 503.367 706.095 506.373 707.618C507.196 707.201 508.015 706.787 508.855 706.407C509.892 708.212 509.443 710.338 510.666 712.125L511.226 712.049L511.175 711.448C511.054 709.811 511.002 708.805 511.679 707.302C515.079 703.931 522.271 703.508 526.538 700.794C526.979 704.637 529.822 712.271 527.407 715.256C526.858 715.931 526.294 716.593 525.714 717.241C520.65 718.709 515.537 720.152 510.351 721.126C496.5 723.73 479.071 725.268 466.183 730.642C459.827 731.571 453.435 732.622 447.044 733.246C440.584 733.876 434.074 734.044 427.626 734.79C417.962 735.908 408.31 737.914 398.622 739.128C391.248 740.052 381.913 738.622 375.195 742.24Z" fill="#F6F0E1"/>
<path d="M384.792 732.692C391.639 731.34 398.166 732.528 405.053 733.095C405.851 732.536 406.408 732.147 407.367 731.914C410.565 731.135 415.097 731.867 418.511 731.548C427.075 730.748 457.799 726.188 464.044 727.983C465.415 728.377 465.57 729.458 466.183 730.642C459.827 731.571 453.435 732.622 447.044 733.246C440.584 733.876 434.074 734.044 427.626 734.79C417.962 735.908 408.31 737.914 398.622 739.128C391.248 740.052 381.913 738.622 375.195 742.24C375.31 741.708 375.557 740.59 375.858 740.174C376.872 738.773 381.938 736.455 384.792 732.692Z" fill="#32BC76" fill-opacity="0.38"/>
<path d="M351.902 584.196C355.151 588.239 356.785 605.438 358.078 611.303C359.419 617.391 361.3 623.37 362.757 629.434C365.446 640.618 367.739 652.091 369.751 663.416C365.086 656.53 363.043 639.332 361.022 630.678C358.561 620.14 350.76 593.935 351.902 584.196Z" fill="black"/>
<path d="M475.511 563.895C475.916 564.577 476.305 565.269 476.677 565.97C479.767 571.732 487.483 599.368 485.793 604.977L485.147 604.283C482.965 595.563 480.82 586.812 478.382 578.16C477.389 574.637 475.535 570.673 475.018 567.123C474.865 566.073 475.232 564.902 475.511 563.895Z" fill="black"/>
<path d="M206.505 351.104C211.167 352.014 214.898 354.749 219.943 355.301C231.83 356.602 245.719 353.2 256.941 349.397C261.273 347.929 265.453 346.063 269.815 344.658C277.316 342.254 284.975 340.37 292.735 339.021C297.135 338.234 301.696 337.396 306.178 337.474C306.475 337.48 306.771 337.496 307.068 337.5C310.267 337.552 312.863 338.732 315.781 339.923C319.966 339.578 324.403 340.524 328.558 341.023C338.591 342.226 352.061 343.701 361.591 339.542C362.687 339.064 363.139 338.863 364.369 339.178C367.958 339.933 377.93 341.583 380.238 343.644C383.32 346.396 388.625 347.558 392.349 349.474C397.987 352.375 403.341 355.958 408.847 359.118C414.408 362.31 419.986 364.853 425.24 368.601C429.058 369.544 432.213 371.995 435.409 374.178C450.175 380.112 467.407 384.853 483.403 381.539C485.227 381.099 487.114 380.89 488.97 380.614C490.622 380.343 492.521 379.36 494.094 378.749C504.715 374.628 512.6 367.529 521.044 360.112C511.799 377.09 503.683 388.848 486.806 399.197C481.883 402.215 476.969 404.941 471.548 406.981C465.799 409.144 460.089 409.906 454.133 411.181C450.342 411.992 446.46 413.155 442.592 413.51C438.536 413.882 434.179 413.009 430.102 412.817C421.595 412.417 411.013 413.289 403.095 409.725C402.707 408.766 402.48 408.172 401.669 407.509C401.011 408.119 400.62 408.509 399.729 408.757C395.932 409.816 369.59 396.434 365.156 393.677C359.027 389.867 352.596 384.867 346.906 380.392C343.434 377.662 341.261 373.613 337.549 371.283C337.399 371.189 337.245 371.099 337.093 371.007C334.237 365.367 332.013 360.724 331.726 354.278L331.145 352.777L330.326 352.748C328.399 355.303 327.535 359.668 326.46 362.728C319.273 380.334 303.209 391.27 284.815 394.272C281.81 394.762 278.337 394.267 275.544 394.823C275.107 394.91 274.065 395.791 273.637 396.071C251.4 396.886 229.129 393.179 211.686 378.277C198.28 366.825 193.066 354.342 191.64 337.182C194.294 340.833 196.945 343.82 200.544 346.57C202.515 348.076 204.86 349.235 206.505 351.104Z" fill="#32BC76"/>
<path d="M331.726 354.278C331.991 354.396 332.259 354.51 332.522 354.633C341.101 358.648 348.617 366.616 356.64 371.732C369.358 379.843 382.72 387.114 397.005 392.081C418.088 399.412 448.087 402.303 469.416 395.131C476.637 392.703 482.991 387.14 488.55 382.088L488.97 380.614C490.622 380.343 492.521 379.36 494.094 378.749C504.715 374.628 512.6 367.529 521.044 360.112C511.799 377.09 503.683 388.848 486.806 399.197C481.883 402.215 476.969 404.941 471.548 406.981C465.799 409.144 460.089 409.906 454.133 411.181C450.342 411.992 446.46 413.155 442.592 413.51C438.536 413.882 434.179 413.009 430.102 412.817C421.595 412.417 411.013 413.289 403.095 409.725C402.707 408.766 402.48 408.172 401.669 407.509C401.011 408.119 400.62 408.509 399.729 408.757C395.932 409.816 369.59 396.434 365.156 393.677C359.027 389.867 352.596 384.867 346.906 380.392C343.434 377.662 341.261 373.613 337.549 371.283C337.399 371.189 337.245 371.099 337.093 371.007C334.237 365.367 332.013 360.724 331.726 354.278Z" fill="#28975E"/>
<path d="M191.64 337.182C194.294 340.833 196.945 343.82 200.544 346.57C202.515 348.076 204.86 349.235 206.505 351.104L206.794 352.44C207.794 354.488 208.847 356.334 210.455 357.976C218.584 366.276 241.615 376.632 252.962 380.544C269.807 386.352 292.597 379.995 307.928 372.395C310.344 371.197 312.824 369.967 315.063 368.456C317.557 366.775 320.302 363.378 323.082 362.407C324.039 362.073 325.5 362.479 326.46 362.728C319.273 380.334 303.209 391.27 284.815 394.272C281.81 394.762 278.337 394.267 275.544 394.823C275.107 394.91 274.065 395.791 273.637 396.071C251.4 396.886 229.129 393.179 211.686 378.277C198.28 366.825 193.066 354.342 191.64 337.182Z" fill="#28975E"/>
<path d="M206.505 351.104C211.167 352.014 214.898 354.749 219.943 355.301C231.83 356.602 245.719 353.2 256.941 349.397C261.273 347.929 265.453 346.063 269.815 344.658C277.316 342.254 284.975 340.37 292.735 339.021C297.135 338.234 301.696 337.396 306.178 337.474C306.475 337.48 306.771 337.496 307.068 337.5C310.267 337.552 312.863 338.732 315.781 339.923C315.303 340.946 315.581 340.895 314.379 341.303C309.805 342.856 304.321 342.661 299.553 343.172C295.782 343.577 292.028 344.325 288.342 345.207C270.056 349.581 244.827 362.285 226.966 361.492C222.866 361.31 218.946 360.01 215.343 358.103C212.325 356.506 209.541 354.456 206.794 352.44L206.505 351.104Z" fill="#FCFAF5"/>
<path d="M364.369 339.178C367.958 339.933 377.93 341.583 380.238 343.644C383.32 346.396 388.625 347.558 392.349 349.474C397.987 352.375 403.341 355.958 408.847 359.118C414.408 362.31 419.986 364.853 425.24 368.601C421.599 368.539 393.165 351.661 387.348 348.985C383.363 347.151 379.294 345.322 375.181 343.796C371.387 342.388 367.765 341.883 364.205 339.775L364.369 339.178Z" fill="#FCFAF5"/>
<path d="M435.409 374.178C450.175 380.112 467.407 384.853 483.403 381.539L483.855 382.604L483.087 383.375C474.989 385.308 456.163 383.968 448.198 381.483C444.482 380.323 437.295 377.802 435.409 374.178Z" fill="#FCFAF5"/>
<path d="M506.009 153.785C507.356 153.969 508.742 153.967 510.101 154.027C508.896 158.37 503.181 182.34 503.504 185.337C503.656 186.748 503.637 187.24 502.989 188.506C501.828 190.772 500.481 193.474 500.006 195.976C499.675 197.721 500.108 198.456 501.107 199.861L500.968 200.523C500.758 200.563 500.549 200.607 500.338 200.642C498.221 200.985 495.825 199.97 493.665 199.922C471.109 199.541 448.597 197.776 426.256 194.637C423.145 194.219 420.146 192.926 417.008 192.497C404.542 190.79 392.018 189.994 379.635 187.457C366.375 184.741 283.451 159.886 275.95 154.27L275.833 153.23C279.493 149.65 283.845 127.068 285.009 120.943C285.817 116.696 285.884 109.077 288.48 105.718C290.662 105.789 293.513 107.695 295.514 108.668C305.64 112.401 315.377 117.238 325.557 120.862C335.868 124.532 346.688 127.215 357.195 130.294C366.284 132.958 375.362 136.138 384.495 138.558C393.935 141.059 403.3 142.606 412.843 144.493C423.747 146.649 434.651 148.93 445.684 150.359C452.111 151.192 458.873 151.019 465.38 151.572C471.223 152.068 504.899 153.294 506.009 153.785Z" fill="#32BC76"/>
<path d="M506.009 153.785C507.356 153.969 508.742 153.967 510.101 154.027C508.896 158.37 503.181 182.34 503.504 185.337C503.656 186.748 503.637 187.24 502.989 188.506C501.828 190.772 500.481 193.474 500.006 195.976C499.675 197.721 500.108 198.456 501.107 199.861L500.968 200.523C500.758 200.563 500.549 200.607 500.338 200.642C498.221 200.985 495.825 199.97 493.665 199.922C471.109 199.541 448.597 197.776 426.256 194.637C423.145 194.219 420.146 192.926 417.008 192.497C404.542 190.79 392.018 189.994 379.635 187.457C366.375 184.741 283.451 159.886 275.95 154.27L275.833 153.23C279.493 149.65 283.845 127.068 285.009 120.943C285.817 116.696 285.884 109.077 288.48 105.718C290.662 105.789 293.513 107.695 295.514 108.668C295.583 108.938 295.665 109.206 295.722 109.479C296.104 111.339 294.848 113.978 294.433 115.834C293.474 120.122 288.443 144.583 289.909 147.139C304.257 152.634 318.348 158.372 332.97 163.176C337.753 164.748 342.784 165.579 347.633 166.966C356.845 169.601 365.981 172.731 375.233 175.181C379.551 176.325 383.955 177.027 388.301 178.033C393.554 179.249 398.701 181.085 404.012 182.028C421.847 185.193 439.877 185.628 457.786 187.794C464.5 188.606 489.59 191.673 494.505 189.5C497.148 188.331 498.508 183.8 499.323 181.214C502.066 172.511 504.701 162.813 506.009 153.785Z" fill="#FCFAF5"/>
<path d="M479.985 252.999C487.599 249.064 504.061 238.168 511.247 237.291L511.515 244.319C511.446 245.89 511.636 248.272 510.791 249.588C501.721 255.436 491.838 259.914 483.31 266.597C490.145 265.772 506.21 256.825 510.47 251.543L511.089 250.786C511.216 250.628 511.338 250.466 511.462 250.306C511.808 253.523 511.58 255.726 510.627 258.817C511.565 261.493 512.661 264.035 511.647 266.867C510.769 267.245 510.622 267.457 509.661 267.299C504.192 266.403 493.471 274.297 489.147 277.727C488.96 277.876 488.787 278.042 488.606 278.2C490.975 277.554 493.325 276.902 495.56 275.869C498.094 274.696 508.009 268.728 509.572 268.486C509.975 268.424 510.345 268.749 510.732 268.881C512.736 272.311 511.254 282.376 510.222 286.262C509.967 287.222 509.566 288.175 509.204 289.1L510.184 290.462C510.929 292.155 510.726 292.727 510.138 294.454C509.775 295.522 509.822 295.039 509.899 295.989C510.348 296.921 510.494 297.602 510.685 298.606C508.685 303.951 510.29 312.427 509.524 318.493C509.423 319.293 509.222 321.194 508.765 321.871C508.7 321.968 496.053 329.527 494.252 330.969L493.764 331.366C500.162 329.564 503.583 326.547 508.949 323.056C509.445 323.962 510.086 324.984 510.159 326.036C510.521 331.248 500.005 332.66 497.475 336.012L498.191 336.555C501.783 337.11 505.006 332.651 508.162 331.344C509.155 330.933 508.683 330.963 509.732 331.404L510.028 332.701C508.581 338.677 498.339 343.45 493.836 347.522C493.671 347.671 493.51 347.824 493.347 347.974C499.227 345.647 503.728 342.45 508.764 338.794C509.466 339.456 509.73 340.049 509.783 341.057C510.023 345.597 500.638 350.036 498.045 353.719L497.703 354.215C500.721 351.856 504.616 348.089 508.369 347.093L508.968 347.512C508.95 347.681 508.951 347.854 508.914 348.021C508.09 351.807 503.533 355.033 500.665 357.304L500.744 357.724C503.339 357.141 506.067 354.876 508.31 353.436L509.296 353.844L509.415 354.783C508.924 356.104 508.407 357.252 507.298 358.187C504.275 360.735 500.526 363.862 497.163 365.934C465.935 385.176 434.577 360.746 408.464 344.632C398.828 338.686 387.735 332.018 376.162 331.295C375.117 331.23 375.621 331.437 374.77 330.613C375.037 329.194 374.999 327.554 376.048 326.543C377.302 327.305 378.377 328.279 379.621 329.034C382.152 330.57 385.595 330.91 388.438 331.631C391.759 332.472 395.018 333.855 398.446 334.206C402.961 334.668 416.995 331.69 421.974 330.296C435.11 326.62 445.963 317.44 452.504 305.653C461.941 288.649 462.204 275.031 456.868 256.744C460.268 255.158 473.184 258.202 477.775 258.479C478.163 257.55 478.274 256.55 478.38 255.554C478.509 254.349 479.207 253.894 479.985 252.999Z" fill="#32BC76"/>
<path d="M479.985 252.999C487.599 249.064 504.061 238.168 511.247 237.291L511.515 244.319L510.102 244.765C506.678 247.342 503.012 249.244 499.394 251.499C497.298 253.46 482.633 261.057 480.061 261.003C479.802 260.998 479.551 260.918 479.296 260.875L477.775 258.479C478.163 257.55 478.274 256.55 478.38 255.554C478.509 254.349 479.207 253.894 479.985 252.999Z" fill="#32BC76"/>
<path d="M497.419 249.459C500.141 248.023 506.251 245.669 507.924 243.241C508.474 242.443 508.835 242.04 509.583 241.44C510.272 242.303 510.055 243.667 510.102 244.765C506.678 247.342 503.012 249.244 499.394 251.499C497.298 253.46 482.633 261.057 480.061 261.003C479.802 260.998 479.551 260.918 479.296 260.875C481.292 257.459 493.386 251.732 497.419 249.459Z" fill="black"/>
<path d="M510.184 290.462C510.929 292.155 510.726 292.727 510.138 294.454C509.775 295.522 509.822 295.039 509.899 295.989L508.67 297.56L508.793 298.356C507.255 301.134 505.716 301.983 502.964 303.433C501.303 304.309 500.678 304.349 500.108 306.159C498.792 307.383 496.547 307.263 494.788 307.813C493.797 308.122 493.63 308.211 492.562 308.068C493.877 305.534 497.641 302.883 500.092 301.427L502.637 296.365C499.929 297.216 496.088 298.673 493.285 298.205C495.848 295.269 504.56 291.112 508.367 290.642L510.184 290.462Z" fill="black"/>
<path d="M510.184 290.462C510.929 292.155 510.726 292.727 510.138 294.454C509.775 295.522 509.822 295.039 509.899 295.989L508.67 297.56L508.793 298.356C508.676 298.314 508.563 298.255 508.441 298.23C506.148 297.762 503.549 300.174 501.746 301.426L502.78 295.634C505.432 294.242 507.089 293.427 508.367 290.642L510.184 290.462Z" fill="#32BC76"/>
<path d="M503.009 262.238C503.656 262.301 504.383 262.611 505.008 262.806L505.157 263.473C503.573 265.038 501.103 265.887 499.096 266.823C498.604 267.115 498.178 267.116 497.619 267.191L498.393 266.971L497.303 266.838L497.586 265.729C499.108 264.013 500.988 263.229 503.009 262.238Z" fill="#260401"/>
<path d="M397.684 225.438C415.36 224.353 432.254 232.854 441.916 247.694C451.579 262.534 452.518 281.423 444.376 297.149C436.233 312.874 420.266 323.009 402.57 323.684C375.647 324.71 352.909 303.885 351.57 276.976C350.232 250.066 370.792 227.088 397.684 225.438Z" fill="#32BC76"/>
<path d="M390.413 236.44C394.719 235.528 415.758 236.088 419.45 237.875C427.674 241.854 435.36 252.801 438.199 261.331C441.605 271.562 442.308 282.525 437.282 292.334C431.434 303.748 421.859 309.861 409.898 313.621C399.442 315.812 389.255 314.462 380.031 308.859C369.97 302.746 362.718 291.624 359.986 280.248C357.966 271.834 360.481 261.48 364.998 254.212C370.764 244.934 379.877 238.817 390.413 236.44Z" fill="black"/>
<path d="M393.599 243.886C393.661 243.891 393.726 243.882 393.785 243.902C395.498 244.486 396.267 244.955 398.148 244.784C403.931 244.258 410.671 245.307 415.795 248.144C422.986 252.125 428.068 260.282 430.078 268.118C432.264 276.641 430.277 285.171 425.785 292.573C421.117 300.266 413.852 304.576 405.287 306.629C396.32 306.575 388.621 305.143 381.359 299.555C374.239 294.076 369.217 284.705 368.164 275.822C367.294 268.493 370.158 261.028 374.754 255.352C377.916 251.447 385.802 245.209 390.747 244.791C391.609 244.718 391.896 244.666 392.68 244.313C392.988 244.174 393.293 244.028 393.599 243.886Z" fill="#FCFAF5"/>
<path d="M393.074 261.817C394.952 261.805 396.776 262.079 398.382 263.113C402.714 265.903 405.537 271.548 406.474 276.475C407.41 281.399 406.549 287.486 403.603 291.629C401.633 294.401 399.369 295.553 396.085 296.128C394.624 295.976 393.146 295.837 391.765 295.307C388.18 293.929 385.688 290.314 384.346 286.859C382.34 281.698 381.7 274.757 384.087 269.673C385.984 265.633 388.91 263.27 393.074 261.817Z" fill="black"/>
<path d="M392.528 271.593C393.361 271.629 394.164 271.68 394.971 271.914C396.089 272.236 397.264 272.916 397.766 274.022C398.717 276.117 397.568 278.198 396.7 280.078C396.515 280.086 396.327 280.13 396.144 280.1C394.841 279.89 393.65 278.707 393.04 277.582C391.9 275.483 391.899 273.841 392.528 271.593Z" fill="#FCFAF5"/>
<path d="M261.992 214.01C262.408 213.92 262.589 213.866 263.059 213.849C272.5 213.494 282.835 218.412 289.914 224.461C302.363 235.1 306.556 247.496 307.648 263.486C308.455 275.311 303.776 288.604 295.998 297.526C288.85 305.724 277.241 311.078 266.436 311.752C255.723 312.249 245.67 309.87 237.061 303.14C227.067 295.325 220.51 282.125 219.085 269.651C217.452 255.345 220.613 238.873 229.829 227.428C238.341 216.857 249.349 215.47 261.992 214.01Z" fill="#32BC76"/>
<path d="M260.021 222.987C268.792 222.942 277.316 225.886 284.19 231.332C292.224 237.613 297.167 247.159 298.381 257.213C299.722 268.306 296.627 281.574 289.554 290.354C283.465 297.912 276.021 301.278 266.5 302.347C257.003 302.025 250.457 302.731 242.307 296.463C235.023 290.86 230.064 281.783 228.786 272.775C226.886 259.383 230.541 246.248 238.685 235.503C244.052 228.422 251.214 224.17 260.021 222.987Z" fill="black"/>
<path d="M255.599 232.342C260.901 232.391 267.668 232.723 272.499 234.975C279.441 238.212 285.928 245.414 288.505 252.603C291.645 261.362 290.826 272.64 286.665 280.939C282.626 288.996 276.24 292.215 268.112 294.93C264.375 295.845 261.003 295.946 257.237 294.975C249.377 292.948 242.458 286.627 238.571 279.607C234.261 271.821 233.446 261.585 236.085 253.12C239.112 243.413 246.833 236.791 255.599 232.342Z" fill="#FCFAF5"/>
<path d="M255.353 248.815C259.623 249.784 264.117 251.739 266.911 255.216C270.292 259.423 271.46 266.388 270.76 271.692C270.277 275.35 268.651 279.211 265.586 281.435C263.932 282.636 262.087 283.337 260.051 283.038C258.247 283.309 256.598 283.104 254.873 282.486C250.699 280.991 247.817 277.814 246.09 273.789C243.929 268.755 244.218 263.421 246.264 258.399C248.063 253.984 250.894 250.602 255.353 248.815Z" fill="black"/>
<path d="M257.608 259.878C258.659 259.505 259.831 259.757 260.635 260.53C261.439 261.302 261.738 262.463 261.408 263.528C261.078 264.593 260.174 265.381 259.074 265.563C257.568 265.811 256.121 264.869 255.74 263.391C255.359 261.913 256.169 260.388 257.608 259.878Z" fill="#FCFAF5"/>
<path d="M475.019 415.778L476.055 415.93C477.324 417.221 477.532 418.253 477.762 420.031C478.349 424.583 477.32 429.134 477.628 433.676C478.038 439.712 479.468 445.51 479.676 451.651C478.805 451.649 477.937 451.666 477.067 451.674C473.336 451.709 439.8 456.301 438.328 457.2C437.258 458.76 436.779 459.852 436.788 461.77C436.83 471.081 451.01 489.354 457.429 495.868C439.26 515.455 391.59 545.055 366.096 553.418C358.656 554.768 351.133 558.898 343.578 559.193C343.7 558.724 344.536 558.177 344.904 557.85L344.366 557.219C347.811 552.559 351.967 548.436 355.601 543.919C363.182 534.493 370.642 524.776 378.026 515.192C388.996 500.954 398.855 485.84 409.954 471.686C412.56 468.365 415.618 465.521 418.312 462.296C421.322 458.692 423.985 454.761 426.888 451.066C434.207 441.751 442.367 432.344 447.934 421.838C456.777 421.995 467.427 420.602 475.019 415.778Z" fill="#F6F0E1"/>
<path d="M91.4848 313.575C95.7288 312.832 99.3348 313.891 103.178 315.544C104.991 318.005 106.38 320.212 106.855 323.282C108.671 335.015 108.702 347.165 109.678 358.984C110.525 369.24 111.937 379.433 112.839 389.68C113.663 399.053 113.805 408.487 114.462 417.878C114.914 424.34 115.942 430.836 116.166 437.298C116.207 438.497 116.369 441.771 115.62 442.657C110.366 448.879 90.6188 447.87 82.4838 448.494C84.9368 445.95 88.2018 444.082 90.8548 441.667C90.8068 439.406 90.3658 437.173 90.0108 434.943C91.7708 433.685 93.3438 432.325 94.9298 430.856C96.7928 428.658 99.4428 425.338 99.9178 422.437C100.195 420.751 99.8878 419.988 98.8978 418.669C98.5438 418.199 97.5728 417.079 97.7918 416.42C98.0008 415.795 99.0698 414.618 99.4778 414.096C102.986 409.61 103.357 407.3 102.986 401.801C102.916 401.678 102.85 401.552 102.776 401.431C101.32 399.05 98.2788 394.853 95.8358 393.551C89.3498 390.095 67.2048 393.335 58.1998 391.097C55.1668 387.383 50.7208 339.572 50.2668 330.928C50.0328 326.467 50.2398 321.958 50.3718 317.494C55.5768 316.597 60.8438 315.599 66.1098 315.173C74.5798 314.487 83.0008 314.466 91.4848 313.575Z" fill="#FCFAF5"/>
<path d="M80.9768 328.569C83.6948 329.343 85.4918 329.123 88.1108 330.814C91.7538 333.166 94.4088 336.681 95.1978 340.983C96.0768 345.774 95.4648 352.229 92.5998 356.307C89.7158 360.414 85.8578 361.667 81.1898 362.56C80.7438 362.45 80.5258 362.413 80.0698 362.195C74.8938 359.727 69.6858 356.019 67.8098 350.389C66.4438 346.286 66.4398 341.33 68.4108 337.421C71.1018 332.082 75.6578 330.306 80.9768 328.569Z" fill="black"/>
<path d="M81.2097 334.363C82.7667 334.667 84.8428 335.535 86.0528 336.589C88.5308 338.75 89.7327 342.668 89.9097 345.846C90.0687 348.7 89.4207 351.963 87.3697 354.088C85.8267 355.687 83.9728 355.861 81.8638 355.977C79.2798 355.301 77.0427 354.092 74.6807 352.881C73.8347 348.513 71.8687 342.266 74.4787 338.181C75.9907 335.814 78.6227 334.975 81.2097 334.363Z" fill="#FCFAF5"/>
<path d="M79.3138 338.589C80.2888 338.726 81.0777 339.041 81.9857 339.414C83.3587 341.007 84.3518 342.756 84.8128 344.831C85.3738 347.356 85.5748 349.075 84.0908 351.27C83.0458 350.903 81.9698 350.538 80.9928 350.011C79.2088 349.05 77.5158 347.22 77.1098 345.186C76.5858 342.556 77.7458 340.571 79.3138 338.589Z" fill="black"/>
<path d="M402.419 617.631C403.228 616.475 404.117 615.886 405.27 615.129C411.308 615.267 418.03 618.114 424.009 619.377C434.33 621.558 444.682 623.308 454.998 625.59C458.544 626.375 462.372 626.993 465.813 628.14C466.878 628.495 467.677 629.224 468.541 629.906C474.312 634.459 477.223 631.891 481.17 639.579C486.054 646.903 495.151 668.659 495.858 677.453C495.051 680.262 491.903 682.396 489.568 683.97C478.18 691.647 457.019 704.822 444.08 708.441C434.343 711.164 422.066 711.049 412.212 709.053L416.511 706.391C426.368 706.402 439.234 705.666 447.659 700.168C448.004 699.478 448.27 699.253 448.147 698.444C447.848 696.472 446.694 695.302 445.215 694.096C441.658 692.957 439.101 695.756 435.894 696.698C423.888 700.229 404.994 700.74 393.707 694.894C398.672 694.139 403.791 694.532 408.795 694.081C414.512 693.566 436.974 690.254 440.244 686.312C441.131 685.242 441.494 684.31 441.308 682.914C441.118 681.487 440.357 680.483 439.264 679.61C437.631 679.432 437.055 679.781 435.59 680.441C421.568 686.752 399.249 688.15 384.556 683.679C391.892 680.45 398.19 679.808 405.794 677.969C411.44 676.604 417.046 674.779 422.603 673.078C426.229 671.968 430.339 670.858 433.672 669.032C435.771 667.882 438.347 666.053 438.758 663.502C438.975 662.156 438.515 661.285 437.831 660.186C436.417 659.107 435.213 658.734 433.473 659.092C429.059 660.002 424.224 663.006 420.003 664.686C409.995 668.669 395.329 671.872 384.556 670.136L383.75 670.002C389.599 663.283 409.334 653.576 418.048 649.949C423.789 647.559 437.876 644.29 441.569 639.76C442.057 638.203 442.213 636.942 441.901 635.318C441.69 634.224 441.157 632.628 440.111 632.06C437.526 630.656 419.086 634.505 407.121 625.339C404.569 623.385 402.882 621.366 402.476 618.142C402.455 617.972 402.438 617.801 402.419 617.631Z" fill="#32BC76"/>
<path d="M402.419 617.631C403.228 616.475 404.117 615.886 405.27 615.129C411.308 615.267 418.03 618.114 424.009 619.377C434.33 621.558 444.682 623.308 454.998 625.59C458.544 626.375 462.372 626.993 465.813 628.14C466.878 628.495 467.677 629.224 468.541 629.906C474.312 634.459 477.223 631.891 481.17 639.579C479.317 639.213 477.434 638.005 475.656 637.295C472.45 636.016 469.337 635.262 465.941 634.688L463.213 632.079C454.634 630.746 446.138 627.759 437.63 625.929C428.213 623.903 418.472 622.965 409.15 620.562C406.685 619.927 404.493 619.152 402.419 617.631Z" fill="#FCFAF5"/>
<path d="M451.282 667.652C451.918 667.674 452.596 667.721 453.213 667.874C455.754 668.506 457.004 671.039 458.332 673.074C458.341 674.987 458.965 677.765 458.263 679.559C457.718 680.953 456.51 680.955 455.235 681.338C454.838 681.878 454.312 682.063 453.732 682.378L452.898 681.961C450.981 679.167 450.789 676.043 450.376 672.783C450.099 670.598 450.23 669.625 451.282 667.652Z" fill="black"/>
<path d="M243.38 405.196C245.911 406.262 249.412 406.544 252.136 407.064C255.589 414.746 257.871 423.041 260.827 430.94C263.528 438.155 266.999 445.046 269.045 452.496C269.676 454.792 271.041 456.618 272.445 458.517C275.634 462.833 275.174 468.589 277.515 473.294C279.342 476.965 281.907 480.249 283.8 483.882C288.729 493.343 293.793 502.888 298.477 512.469C300.679 516.975 302.343 521.723 304.892 526.065C308.153 531.622 312.409 536.742 316.076 542.055C319.419 546.9 322.236 551.976 326.39 556.227L327.544 555.56L328.077 555.988C326.484 558.593 325.078 560.892 322.296 562.316C321.784 562.329 321.26 562.46 320.758 562.355C318.706 561.925 305.472 550.352 302.945 548.335C296.458 541.766 288.429 536.569 281.461 530.499C277.55 527.092 274.393 522.767 270.736 519.085C266.941 515.264 262.556 512.002 258.719 508.211C252.919 502.481 249.402 494.415 243.483 488.829C241.673 487.12 239.795 485.602 238.667 483.335C239.138 478.787 259.644 462.517 261.262 456.296C261.472 455.486 261.585 455.014 261.034 454.358C259.368 452.375 241.434 450.223 238.341 450.033C233.366 449.726 228.329 449.863 223.341 449.698C223.55 441.341 228.136 425.238 230.236 416.457C233.661 413.362 235.568 409.693 238.632 406.447C240.001 404.998 241.516 405.302 243.38 405.196Z" fill="#F6F0E1"/>
<path d="M17.1168 461.934C13.1828 458.77 10.8588 448.124 10.3038 443.009C9.5328 435.895 9.02881 424.002 13.9988 418.286C19.8958 411.503 39.0508 403.946 47.8848 401.792C50.9888 401.035 54.2808 400.753 57.4658 400.624C63.1228 400.397 89.0028 399.449 91.9468 402.359C93.3778 403.774 94.5328 405.697 95.5338 407.436C92.9888 409.7 91.6628 410.916 88.0278 410.648C84.4408 410.383 80.8458 409.462 77.2528 409.368C64.8848 409.047 43.7848 411.624 32.6188 416.5C29.9378 417.67 27.4028 419.433 25.1738 421.313C20.2708 425.447 16.8258 430.534 16.2708 437.071C15.9718 440.587 16.5178 443.724 18.6088 446.616L19.4808 446.959C21.4898 445.242 22.2758 436.721 24.9378 432.828C32.1178 422.321 50.8378 420.468 62.3858 418.767C67.6708 417.989 73.2018 416.69 78.5648 417.238C81.5408 417.542 87.2408 419.046 89.1868 421.497C89.8908 422.383 90.0248 423.445 89.6238 424.5C89.0268 426.068 87.1438 427.327 85.5848 427.755C82.8148 428.516 80.1658 426.911 77.2988 427.019C62.0188 427.597 38.4308 429.592 29.4278 444.021C27.8568 446.538 25.8398 451.005 26.2488 453.97L26.8478 454.604C32.7318 454.182 35.6978 447.16 40.2758 444.221C47.4898 439.591 72.3568 430.218 79.7518 436.337C80.9568 437.333 81.8808 438.487 82.0648 440.071C80.0558 443.625 74.9418 444.937 71.2388 445.953C64.6458 447.76 47.9868 450.092 44.5478 456.139C41.6858 461.171 41.1268 470.814 42.9898 476.275C43.5208 477.832 44.4638 479.432 45.9808 480.2C46.8248 480.628 47.4988 480.582 48.4028 480.517C49.7098 479.547 50.2248 478.766 50.4938 477.133C51.2098 472.79 50.3468 467.345 50.2028 462.93C51.3948 460.982 52.6628 459.095 53.4548 456.943C59.4638 462.139 63.3208 467.644 63.8788 475.849C64.2598 481.451 63.3408 487.392 59.4618 491.68C57.4448 493.91 50.3558 499.361 47.3278 499.229C46.4838 499.193 45.5438 498.893 44.7208 498.706C43.7698 498.491 44.1878 498.536 43.1988 498.597C40.4078 497.783 38.2158 493.621 36.3188 491.56C34.9938 490.12 33.1698 489.606 31.8908 488.143C28.6948 484.486 25.3128 479.463 23.1848 475.09C21.9098 472.469 20.9428 469.69 19.4698 467.171C18.4888 465.493 17.8558 463.727 17.1168 461.934Z" fill="#32BC76"/>
<path d="M17.1167 461.934C16.6907 460.142 15.4557 456.781 16.6417 455.117C17.2917 454.207 18.3437 453.362 19.1637 452.594C21.3327 460.138 23.7197 468.052 27.7257 474.85C30.9147 480.262 41.7907 494.07 43.1987 498.597C40.4077 497.783 38.2157 493.621 36.3187 491.56C34.9937 490.12 33.1698 489.606 31.8908 488.143C28.6948 484.486 25.3127 479.463 23.1847 475.09C21.9097 472.469 20.9427 469.69 19.4697 467.171C18.4887 465.493 17.8557 463.727 17.1167 461.934Z" fill="#FCFAF5"/>
<path d="M293.333 209.219C293.085 209.088 292.839 208.953 292.589 208.826C287.607 206.288 281.19 206.243 276.324 203.541L276.59 202.75C279.797 201.16 285.228 203.402 287.839 200.586C287.881 199.462 287.914 199.373 287.298 198.444C284.575 197.617 281.743 198.07 279.061 197.039C285.563 195.763 290.954 199.568 296.829 201.348C300.416 202.435 304.042 203.211 307.627 204.389C311.12 205.535 340.559 213.645 341.352 213.556C341.961 213.487 342.484 213.037 343.092 212.958C344.734 212.746 351.341 215.129 353.324 215.575C358.177 216.667 375.906 218.914 379.399 220.957C376.032 222.569 372.529 224.036 369.367 226.023C361.269 232.434 352.973 239.986 347.891 249.103C345.544 253.314 343.739 257.771 341.058 261.8L340.652 262.402C335.453 261.418 329.569 259.658 324.261 260.356C321.198 260.759 318.401 262.02 315.281 262.156C314.682 261.324 315.244 252.039 314.624 249.641C311.4 237.158 307.594 226.511 297.305 218.263C295.762 217.026 294.132 215.559 292.379 214.638C290.839 213.829 290.517 214.241 289.033 214.795C288.548 214.013 288.301 212.851 287.839 212.173C287.104 211.093 285.122 210.545 284.84 209.202C286.001 209.359 287.169 209.494 288.328 209.664C290.165 209.933 291.156 210.119 292.932 209.394C293.067 209.339 293.2 209.277 293.333 209.219Z" fill="#32BC76"/>
<path d="M293.333 209.219C293.085 209.088 292.839 208.953 292.589 208.826C287.607 206.288 281.19 206.243 276.324 203.541L276.59 202.75C279.797 201.16 285.228 203.402 287.839 200.586C287.881 199.462 287.914 199.373 287.298 198.444C284.575 197.617 281.743 198.07 279.061 197.039C285.563 195.763 290.954 199.568 296.829 201.348C300.416 202.435 304.042 203.211 307.627 204.389C311.12 205.535 340.559 213.645 341.352 213.556C341.961 213.487 342.484 213.037 343.092 212.958C344.734 212.746 351.341 215.129 353.324 215.575C358.177 216.667 375.906 218.914 379.399 220.957C376.032 222.569 372.529 224.036 369.367 226.023C368.999 225.611 368.792 225.32 368.261 225.045C364.645 223.175 356.58 223.892 352.201 222.895C340.636 220.262 328.752 218.127 317.305 215.127C311.024 213.481 304.972 210.999 298.628 209.568C296.824 209.161 295.174 208.878 293.333 209.219Z" fill="#28975E"/>
<path d="M322.812 479.924C323.363 477.815 324.29 476.017 326.184 474.799C330.298 472.151 340.942 472.588 345.514 473.799C346.354 474.021 346.343 473.828 346.658 474.391C350.661 481.557 351.557 506.412 352.894 515.578C353.414 519.141 354.359 522.633 355.291 526.106C352.425 530.216 349.57 534.324 346.366 538.183C343.156 542.048 339.294 545.731 336.689 550.026C329.901 543.39 314.895 517.002 310.58 514.109C310.88 508.208 311.92 504.487 314.46 499.162C314.967 498.315 322.443 481.126 322.812 479.924Z" fill="#32BC76"/>
<path d="M322.812 479.924C324.814 479.636 326.916 479.6 328.685 480.769C329.508 481.312 329.795 482.033 330.181 482.891C329.866 485.183 326.156 487.28 328.2 490.01C328.491 490.398 328.826 490.678 329.178 491.001C328.411 492.366 327.239 493.275 326.082 494.297L327.326 494.869L327.141 495.446C325.714 495.645 325.105 495.569 323.987 496.517C324.019 497.924 325.436 499.253 324.794 500.173L323.382 500.634L323.343 501.318C323.581 501.394 323.821 501.464 324.057 501.546C325.032 501.885 324.675 501.689 325.408 502.343C325.329 503.972 324.266 505.102 323.348 506.374C323.131 508.706 323.373 513.244 321.625 514.946C321.024 515.531 320.2 515.802 319.437 516.097C318.154 515.903 317.869 515.878 317.121 514.679C316.303 513.366 316.165 510.949 315.966 509.438C315.098 509.561 314.947 509.851 314.288 510.395C313.421 509.295 313.723 507.474 313.879 506.128C314.141 503.871 314.781 501.41 314.46 499.162C314.967 498.315 322.443 481.126 322.812 479.924Z" fill="#FCFAF5"/>
<path d="M323.233 287.946C323.799 286.766 325.248 285.515 326.379 284.861C329.433 283.096 332.902 283.961 336.041 284.919C338.334 285.634 340.632 286.321 342.875 287.184C347.726 298.569 352.624 308.514 362.363 316.515C363.083 318.516 363.795 320.487 364.65 322.436C365.267 323.843 365.709 325.338 365.241 326.875C364.684 328.706 362.524 330.339 361.146 331.559C344.133 334.734 325.74 337.571 310.474 326.99C308.146 325.376 304.248 323.202 303.758 320.215C302.648 313.436 308.813 302.273 312.993 296.996C315.783 293.474 319.295 290.131 323.233 287.946Z" fill="#32BC76"/>
<path d="M323.233 287.946C323.799 286.766 325.248 285.515 326.379 284.861C329.433 283.096 332.902 283.961 336.041 284.919C335.694 286.841 335.518 286.952 333.96 288.043C326.74 293.099 324.938 297.441 322.341 305.567C321.461 308.321 320.102 311.076 319.564 313.917C318.951 317.153 320.648 320.501 319.96 323.594C318.259 322.763 316.489 321.989 314.842 321.058C312.74 312.238 313.482 301.815 318.535 293.974C319.941 291.792 322.592 290.533 323.233 287.946Z" fill="#FCFAF5"/>
<path d="M330.176 380.357C331.532 382.292 333.188 383.61 334.657 385.408C344.289 397.203 358.163 405.978 371.391 413.286L371.77 413.213C374.297 414.174 376.89 414.841 379.498 415.541C372.467 418.433 365.279 421.739 357.782 423.197C337.313 427.179 318.659 423.639 301.348 411.941C299.007 409.784 296.708 407.582 294.453 405.334C298.15 404.149 302.028 403.066 305.546 401.423C314.703 397.148 324.805 388.946 330.176 380.357Z" fill="#32BC76"/>
<path d="M330.176 380.357C331.532 382.292 333.188 383.61 334.657 385.408C344.289 397.203 358.163 405.978 371.391 413.286C354.41 415.509 342.903 403.556 330.515 394.244C324.786 401.973 313.276 408.157 304.109 410.675C302.983 410.984 302.297 411.259 301.348 411.941C299.007 409.784 296.708 407.582 294.453 405.334C298.15 404.149 302.028 403.066 305.546 401.423C314.703 397.148 324.805 388.946 330.176 380.357Z" fill="#28975E"/>
<path d="M390.684 420.425C396.567 420.062 403.21 421.428 409.122 421.945C415.892 422.537 422.75 422.662 429.494 423.394C431.669 423.63 432.008 423.445 433.428 425.214C433.458 426.505 432.844 427.159 432.087 428.191C429.685 431.467 426.535 434.206 423.966 437.354C421.66 440.18 419.784 443.324 417.365 446.068C413.385 450.584 405.53 457.302 402.883 462.336C402.753 462.583 402.636 462.838 402.512 463.089C402.443 463.135 402.369 463.176 402.304 463.229C400.952 464.32 394.863 467.737 394.535 468.281C394.116 468.978 393.886 469.244 393.255 469.742C390.972 467.494 390.334 464.126 388.475 461.556C380.999 451.22 373.744 440.622 365.665 430.741C371.094 429.103 385.228 420.948 389.377 420.911C389.582 420.91 389.785 420.958 389.989 420.982L390.684 420.425Z" fill="#F6F0E1"/>
<path d="M317.543 439.895C319.68 437.955 321.338 435.545 322.718 433.03C335.733 434.117 345.837 435.052 359.081 434.088L363.061 438.729C363.668 440.623 363.452 441.207 362.549 442.95C358.583 450.607 353.907 459.998 347.561 465.845C341.524 465.493 334.754 464.394 328.851 465.673C324.42 462.115 316.288 447.451 315.921 441.889C315.879 441.245 316.319 440.658 316.825 440.268C317.038 440.103 317.304 440.019 317.543 439.895Z" fill="#32BC76"/>
<path d="M317.543 439.895C319.68 437.955 321.338 435.545 322.718 433.03C335.733 434.117 345.837 435.052 359.081 434.088L363.061 438.729C360.3 439.492 347.179 442.903 346.141 444.248L346.259 444.811C345.149 444.658 344.096 444.329 343.018 444.032C340.09 441.724 322.624 440.596 317.543 439.895Z" fill="#28975E"/>
<path d="M343.018 444.032C344.096 444.329 345.149 444.658 346.259 444.811C346.362 445.037 346.539 445.395 346.581 445.634C346.883 447.361 344.871 452.13 343.986 453.73C343.419 454.756 343.799 454.426 342.669 454.759C341.968 454.166 341.92 454.349 341.742 453.655C341.001 450.766 341.664 446.654 343.018 444.032Z" fill="#FCFAF5"/>
<path d="M282.25 407.059C287.667 413.966 299.33 421.485 307.474 424.782C309.47 425.59 311.376 426.492 313.308 427.438C307.362 435.411 298.944 441.829 291.329 448.162C289.111 450.384 286.852 452.116 284.247 453.864C282.217 448.726 279.151 443.922 276.868 438.854C273.912 432.292 271.921 425.735 269.432 419.044C268.301 416.003 265.691 411.372 265.966 408.125C269.112 406.41 277.365 407.812 281.494 407.18L282.25 407.059Z" fill="#F6F0E1"/>
<path d="M368.525 451.074C373.517 454.972 381.755 475.357 388.754 480.289C389.525 480.832 390.079 481.224 390.669 481.987L390.201 482.759C389.202 483.171 388.296 483.551 387.56 484.378C385.744 486.419 384.204 489.275 382.583 491.534C378.509 497.201 374.372 502.823 370.174 508.399C367.772 511.328 365.402 514.26 362.766 516.983C362.084 511.281 356.605 473.048 356.967 471.436C357.289 470 360.183 466.488 361.098 465.021C363.889 460.549 366.185 455.792 368.525 451.074Z" fill="#F6F0E1"/>
<path d="M360.056 15.589C364.005 15.36 367.724 15.185 371.658 15.737C364.648 16.576 358.163 18.422 351.498 20.688C344.405 23.099 317.778 34.915 313.739 39.696C309.48 44.738 307.33 54.829 306.319 61.316C306.016 63.262 306.116 65.246 305.751 67.182C305.144 70.402 303.541 73.93 303.804 77.203C303.845 77.704 303.953 77.984 303.849 78.495C303.311 81.123 301.758 83.7 301.028 86.32C300.122 89.579 300.669 97.02 298.295 99.175L297.067 99.012C294.664 97.446 292.622 95.865 290.549 93.875C293.944 77.455 296.289 61.603 301.646 45.613C302.918 41.816 304.116 37.798 305.917 34.215C306.943 32.174 308.478 30.304 309.691 28.352C312.887 27.5 316.28 26.817 319.228 25.304C319.706 24.365 319.657 24.743 319.644 23.744C319.64 23.519 319.62 23.294 319.609 23.069L320.49 22.853L321.04 23.9C327.215 22.904 333.198 19.678 339.284 18.042C341.926 17.331 343.336 18.387 345.802 18.066C350.592 17.444 355.221 15.988 360.056 15.589Z" fill="#FCFAF5"/>
<path d="M503.56 625.087C503.888 625.342 504.091 625.929 504.289 626.271C506.037 629.288 507.145 632.687 508.504 635.904C513.472 647.666 517.458 659.246 521.193 671.436C522.032 672.094 522.618 672.572 523.151 673.504C519.29 676.644 525.617 684.335 522.713 688.193C521.79 689.418 519.8 691.053 518.262 691.257C516.316 691.515 514.912 692.193 513.119 691.321L513.417 690.601C510.28 681.142 501.633 650.658 495.335 644.608C494.713 644.01 494.246 643.456 493.732 642.765C495.604 637.382 489.548 636.652 489.132 631.761C491.271 626.907 498.294 627.375 502.654 625.493C502.958 625.362 503.258 625.222 503.56 625.087Z" fill="#F6F0E1"/>
<path d="M307.631 448.248L308.012 448.66C309.023 454.505 314.26 463.855 317.633 468.677C311.867 477.959 308.528 489.442 304.379 499.565L301.509 494.925C295.882 486.223 290.373 475.981 287.754 465.918C292.67 461.572 297.402 455.478 303.161 452.313C305.015 451.294 306.234 449.802 307.631 448.248Z" fill="#F6F0E1"/>
<path d="M94.6268 478.691C94.7398 478.787 94.8668 478.869 94.9658 478.98C96.5408 480.745 96.7798 485.925 96.8318 488.277C96.8978 491.211 96.8118 492.634 94.7148 494.742C87.7728 501.72 77.0638 509.336 68.0218 513.336C63.7568 515.223 59.1028 516.396 54.7348 518.102C50.2838 519.84 44.6968 522.606 39.8508 522.416C38.5078 522.363 38.1918 521.674 37.3118 520.773C35.7438 517.722 34.0658 514.906 32.1248 512.078C58.9818 508.097 76.6308 499.207 94.6268 478.691Z" fill="#FCFAF5"/>
<path d="M108.112 296.029L108.58 295.966C111.074 297.225 113.637 297.304 116.045 298.413C117.401 299.038 118.295 299.432 118.828 300.815C118.657 300.993 118.489 301.174 118.316 301.349C118.109 301.557 117.897 301.759 117.688 301.965C118.667 301.848 118.18 301.852 119.148 301.95C119.711 303.129 119.811 303.27 119.632 304.55C118.291 303.704 117.725 303.383 116.174 303.643C110.71 304.558 104.628 304.161 99.0648 304.376C81.7708 305.043 63.9258 304.841 46.9068 307.971C41.7118 308.894 36.7188 310.934 31.5778 312.19C32.8658 310.3 33.8198 308.114 35.2348 306.324C38.3898 302.332 46.1388 299.971 51.0168 299.108C56.1358 298.202 61.6768 298.393 66.8788 298.238C73.9988 298.026 81.0988 297.583 88.2128 297.314C94.5918 297.073 101.167 297.148 107.473 296.138L108.112 296.029Z" fill="#FCFAF5"/>
<path d="M534.374 541.635C538.772 544.893 550.401 564.189 553.1 569.624C555.24 573.934 557.478 578.892 558.376 583.619C556.06 584.81 553.632 585.757 551.227 586.751C547.361 589.168 542.594 590.436 538.305 591.903C538.334 582.628 537.059 573.359 536.044 564.154C535.329 563.359 535.602 563.539 534.828 563.059C534.671 562.961 534.508 562.873 534.347 562.78C534.159 560.528 536.117 559.056 535.941 556.816C535.47 550.824 533.905 548.864 534.374 541.635Z" fill="#F6F0E1"/>
<path d="M119.912 321.155C125.637 327.177 121.329 339.746 123.033 343.026C123.262 343.466 124.007 343.486 124.209 343.939C124.585 344.785 122.762 347.245 123.196 348.842L123.792 348.927C123.929 349.151 124.11 349.353 124.203 349.598C124.538 350.481 124.994 352.945 124.959 353.883C124.912 355.145 124.19 354.776 123.863 355.591C123.595 356.26 124.456 373.896 124.517 375.962C124.899 388.923 130.748 425.079 128.702 434.229L128.353 435.822C128.01 435.961 127.664 436.094 127.33 436.251C126.336 436.718 125.71 437.189 124.58 437.113C122.718 431.942 122.675 408.701 122.162 401.818C121.159 388.376 120.793 374.881 119.324 361.475C118.523 354.168 116.775 346.967 115.813 339.68C115.249 335.405 115.21 331.022 115.076 326.714C116.996 324.973 118.667 323.482 119.912 321.155Z" fill="#FCFAF5"/>
<path d="M452.058 239.762C452.839 239.432 453.898 239.202 454.376 238.504C455.246 237.231 456.193 235.94 457.797 235.623C459.842 235.218 463.325 236.38 465.357 236.912C463.316 238.773 458.419 242.279 457.992 245.08C460.762 245.085 464.949 240.963 466.869 239.036C467.465 238.442 468.046 237.833 468.611 237.21C473.834 236.656 479.52 237.398 484.789 237.605C479.774 240.729 472.429 243.579 468.59 248.052L469.085 248.762C478.877 247.487 481.951 237.119 498.878 238.135L498.965 238.793L499.711 239.36L499.845 238.477L499.924 238.933C499.763 238.957 499.601 238.975 499.441 239.004C498.634 239.151 497.862 239.351 497.121 239.714C495.345 240.582 493.734 242.425 492.003 243.513C488.31 245.832 477.792 249.842 475.734 253.026C475.626 253.193 475.563 253.384 475.477 253.563L475.804 254.222C477.385 254.336 478.589 253.638 479.985 252.999C479.207 253.894 478.509 254.349 478.38 255.554C478.274 256.55 478.163 257.55 477.775 258.479C473.184 258.202 460.268 255.158 456.868 256.744C454.533 251.151 453.255 246.256 449.96 241.015C448.893 239.662 447.633 238.493 447.79 236.713C448.763 236.019 449.147 235.79 450.391 235.704C451.945 235.597 453.254 235.993 454.391 236.993L454.165 237.966L452.261 238.79L452.058 239.762Z" fill="#28975E"/>
<path d="M247.556 341.079C245.134 341.38 242.544 342.953 240.171 343.72C238.605 344.226 237.579 344.419 236.087 343.683C234.566 338.85 235.656 320.195 235.258 313.31C239.518 317.009 243.548 319.571 248.657 321.971C257.478 324.264 261.966 324.487 271.006 323.359C267.837 327.914 261.483 337.225 255.891 338.759L254.894 337.94C253.791 338.378 253.04 338.838 252.079 339.538C250.588 340.625 249.384 340.884 247.556 341.079Z" fill="#32BC76"/>
<path d="M247.556 341.079C247.968 338.488 249.002 335.454 248.907 332.859C248.725 327.852 245.975 327.547 248.657 321.971C257.478 324.264 261.966 324.487 271.006 323.359C267.837 327.914 261.483 337.225 255.891 338.759L254.894 337.94C253.791 338.378 253.04 338.838 252.079 339.538C250.588 340.625 249.384 340.884 247.556 341.079Z" fill="#F6F0E1"/>
<path d="M214.721 131.178C225.691 131.418 260.867 135.885 269.46 141.439C270.38 143.651 269.835 147.181 269.904 149.623C270.728 151.349 274.203 153.141 275.794 154.402C275.441 154.486 275.099 154.661 274.737 154.655C272.627 154.62 216.752 135.184 214.898 133.877C214.117 133.327 214.088 132.996 213.902 132.131L214.721 131.178Z" fill="#FCFAF5"/>
<path d="M29.6207 358.485C29.8887 358.593 30.1757 358.661 30.4247 358.808C37.5577 363.018 28.3957 378.601 27.0827 384.365C25.9367 389.391 25.9407 394.233 27.8087 399.096L18.7837 405.088C17.8927 405.501 17.1587 405.74 16.1907 405.904C16.0427 405.79 15.8847 405.688 15.7477 405.562C14.3067 404.231 14.2457 402.034 14.3087 400.201C14.4627 395.77 14.8907 391.013 15.8987 386.687C17.6047 379.361 24.3357 363.377 29.6207 358.485Z" fill="#32BC76"/>
<path d="M513.413 190.452C520.211 191.94 526.762 194.55 533.353 196.731C537.844 198.217 542.478 199.274 546.946 200.822C551.155 202.28 565.019 209.007 566.688 212.477L565.188 212.095C556.683 210.82 548.391 208.29 540.03 206.333C530.662 204.139 519.797 202.367 510.194 201.799C511.477 198.08 512.418 194.256 513.413 190.452Z" fill="#FCFAF5"/>
<path d="M38.1238 318.251C39.0898 318.271 38.6338 318.216 39.7498 318.479C40.8828 318.745 40.6178 318.7 41.1718 319.583C41.1278 324.691 40.8738 329.964 41.3878 335.046C42.2648 343.721 49.9658 387.503 48.6048 391.553C48.4448 392.027 48.0908 392.411 47.8338 392.841C46.3958 393.36 46.1818 393.31 44.6748 392.984L44.2158 392.116C41.1748 382.369 41.5968 372.987 40.3668 363.002C39.0578 352.377 36.7318 341.756 35.8288 331.07C35.6388 328.815 38.3138 326.855 37.9758 324.969C37.7188 323.528 36.7608 322.76 35.5748 322.053C34.8958 321.648 34.5758 321.473 34.0138 320.887C35.0578 319.519 36.6098 318.972 38.1238 318.251Z" fill="#FCFAF5"/>
<path d="M330.858 267.508C335.052 267.656 338.873 270.191 342.98 271.073L343.31 281.801C342.425 280.88 341.536 279.942 340.482 279.212C336.259 276.29 329.447 275.892 324.672 277.031C320.791 278.237 316.109 282.658 312.071 282.152L311.702 280.234L311.65 280.33C313.526 275.525 314.473 272.288 318.592 268.967C322.699 268.77 326.793 268.106 330.858 267.508Z" fill="#32BC76"/>
<path d="M324.229 39.747C325.178 39.744 326.227 39.842 327.142 40.103C329.133 40.671 331.502 43.331 332.364 45.182C333.311 47.215 333.449 49.801 332.648 51.904C331.67 54.475 329.447 55.523 327.12 56.664C325.498 56.876 324.077 56.94 322.526 56.319C319.598 55.146 318.441 52.148 317.302 49.463C318.888 45.253 320.676 42.539 324.229 39.747Z" fill="#FCFAF5"/>
<path d="M323.814 44.597C325.424 44.06 327.199 44.438 328.45 45.585C329.702 46.732 330.234 48.466 329.84 50.117C329.446 51.768 328.188 53.076 326.553 53.534C324.11 54.218 321.566 52.829 320.823 50.402C320.079 47.976 321.406 45.4 323.814 44.597Z" fill="black"/>
<path d="M540.329 502.28C538.813 501.628 537.709 500.329 536.071 500.319C535.367 501.355 535.371 502.287 535.283 503.495L535.249 504.023C531.987 499.741 534.531 482.458 534.989 476.904C536.909 482.404 539.229 487.677 543.275 491.948C543.868 494.034 544.673 496.184 544.683 498.366C543.613 499.912 542.877 501.347 541.031 502.015C540.796 502.101 540.563 502.192 540.329 502.28Z" fill="#32BC76"/>
<path d="M289.142 320.138C292.115 321.787 290.523 324.69 292.717 326.775C293.435 327.458 294.499 327.17 295.445 327.153L295.753 327.853C292.375 329.432 286.782 329.357 282.983 330.249L282.412 330.387C281.377 330.826 279.482 330.567 278.338 330.544L278.751 330.09C280.539 328.084 281.27 326.982 281.07 324.219C281.059 324.066 281.043 323.914 281.03 323.762L281.712 323.097C282.68 322.955 283.582 322.875 284.56 322.906L285.516 322.942C286.673 321.461 287.388 320.836 289.142 320.138Z" fill="#32BC76"/>
<path d="M404.39 634.782C408.96 636.16 413.852 637.307 418.163 639.367L418.142 639.81L417.395 640.007C412.704 641.263 409.376 644.121 405.118 646.183C404.588 642.834 403.154 638.449 403.595 635.149L404.39 634.782Z" fill="#FCFAF5"/>
<path d="M71.3498 474.467C71.3118 474.14 71.2798 473.811 71.2358 473.484C70.5368 468.359 65.0478 462.167 65.6608 457.487L66.3778 456.84C67.6018 456.981 69.5098 457.302 70.2718 458.403C73.0058 462.351 74.5408 470.92 75.1858 475.745L71.3498 474.467Z" fill="#32BC76"/>
<path d="M310.846 580.771C312.364 581.23 313.692 581.545 314.514 583.051C315.325 584.535 316.612 586.948 316.092 588.638C314.39 589.951 311.939 590.746 309.971 591.626C308.875 589.954 306.655 589.055 305.858 587.473C305.53 586.821 305.235 585.925 305.477 585.206C306.199 583.056 308.998 581.815 310.846 580.771Z" fill="#FCFAF5"/>
<path d="M511.012 130.513C510.805 130.522 510.597 130.543 510.389 130.541C509.009 130.528 508.402 130.459 507.384 129.527C506.838 127.933 506.864 126.544 507.475 124.971C508.133 123.274 509.395 121.2 511.085 120.415L512.425 121.193C514.112 122.112 515.329 123.369 515.817 125.291C516.319 127.269 516.117 128.969 515.097 130.708C513.832 130.181 512.727 129.993 511.385 129.828L511.012 130.513Z" fill="#260401"/>
<path d="M512.425 121.193C514.112 122.112 515.329 123.369 515.817 125.291C516.319 127.269 516.117 128.969 515.097 130.708C513.832 130.181 512.727 129.993 511.385 129.828L512.406 128.626C512.165 128.09 511.803 127.447 511.67 126.881C511.195 124.864 511.318 122.924 512.425 121.193Z" fill="#F6F0E1"/>
<path d="M350.173 29.507L351 29.576L350.771 29.997C343.033 32.334 337.503 37.693 329.425 39.29L328.662 39.107L328.465 38.482C333.574 34.1 339.372 31.392 346.074 30.422C347.331 30.24 348.481 29.992 349.704 29.643L350.173 29.507Z" fill="#FCFAF5"/>
<path d="M71.3499 474.467L75.1859 475.745C75.6399 476.513 75.5909 476.226 75.6629 477.015C75.8329 478.85 76.0508 480.55 76.4268 482.36C74.5428 483.789 72.5138 484.976 70.4958 486.205C71.1918 482.274 71.8429 478.463 71.3499 474.467Z" fill="#FCFAF5"/>
<path d="M511.385 129.828C512.727 129.993 513.832 130.181 515.097 130.708C514.778 131.593 514.573 132.319 514.456 133.258C514.271 134.747 514.047 136.478 513.365 137.826C512.86 138.827 512.897 138.834 511.779 139.16C511.011 138.512 510.542 138.112 509.544 137.848C509.315 137.787 509.079 137.752 508.847 137.705C509.966 135.251 510.831 133.998 510.984 131.171C510.996 130.952 511.003 130.732 511.012 130.513L511.385 129.828Z" fill="#FCFAF5"/>
<path d="M313.612 63.594C314.821 63.618 316.302 63.514 317.445 63.926C318.482 64.299 318.569 64.722 319.046 65.637C318.952 67.236 318.464 68.377 317.834 69.815C315.814 69.921 314.349 69.678 312.846 68.348C312.28 66.611 313.02 65.223 313.612 63.594Z" fill="#FCFAF5"/>
<path d="M521.878 89.558C523.4 89.026 525.071 89.794 525.659 91.295C526.247 92.796 525.543 94.494 524.065 95.138C523.058 95.576 521.893 95.43 521.026 94.755C520.16 94.081 519.731 92.987 519.908 91.904C520.086 90.82 520.842 89.921 521.878 89.558Z" fill="#FCFAF5"/>
<path d="M518.2 102.028C518.692 102.136 519.692 102.277 520.155 102.559C521.284 103.248 521.388 103.623 521.605 104.81C521.039 106.54 520.001 107.239 518.609 108.345C518.345 108.28 518.07 108.252 517.819 108.151C516.716 107.711 516.143 106.843 515.841 105.777C516.213 104.072 517.021 103.275 518.2 102.028Z" fill="#FCFAF5"/>
<path d="M515.039 112.294C515.872 111.679 516.977 111.577 517.909 112.029C518.841 112.481 519.445 113.412 519.478 114.448C519.51 115.483 518.966 116.45 518.065 116.96C516.782 117.685 515.157 117.287 514.356 116.051C513.554 114.815 513.854 113.169 515.039 112.294Z" fill="#FCFAF5"/>
</svg>
